<mxfile host="app.diagrams.net" modified="2023-12-07T09:17:21.583Z" agent="Mozilla/5.0 (Windows NT 10.0; Win64; x64) AppleWebKit/537.36 (KHTML, like Gecko) Chrome/119.0.0.0 Safari/537.36" etag="92oxiqaOjGp5Mg9_4s1E" version="22.1.7" type="github">
  <diagram name="第 1 页" id="dBQuVHGav61XCZwjeMOm">
    <mxGraphModel dx="1434" dy="866" grid="0" gridSize="10" guides="1" tooltips="1" connect="1" arrows="1" fold="1" page="1" pageScale="1" pageWidth="1169" pageHeight="827" math="0" shadow="0">
      <root>
        <mxCell id="0" />
        <mxCell id="1" parent="0" />
        <mxCell id="VpvmrexH3NGM5sz_Zpp6-6" value="" style="shape=image;verticalLabelPosition=bottom;labelBackgroundColor=default;verticalAlign=top;aspect=fixed;imageAspect=0;image=data:image/png,iVBORw0KGgoAAAANSUhEUgAAARcAAABSCAYAAAB+MZC/AAAAAXNSR0IArs4c6QAAAARnQU1BAACxjwv8YQUAAAAJcEhZcwAADsMAAA7DAcdvqGQAAFW2SURBVHhe7b0HvCVVlT28br4v59SR7qbJ0KQmSpQgqCCCYpgRTDOMOU9UZnQcHZ0xjOM4BhjHiIqgIFmCxG5SEzvn7pfzfTfHb619br13+9HAa38jze/739Vdr+pWnTqpzl5n731OnfKVCFRRRRVV/B/DX95XUUUVVfyfokouVVRRxZ8EVXKpoooq/iSokksVVVTxJ0GVXKqoooo/CarkUkUVVfxJUCWXKqqo4k+CKrlUUUUVfxL88eTyx069+395yp7K7m0zu8pTFQcz5ytOObzghMOLnK6iiv2CP5pcSpVNeR9a9R73zRX/P5Ealb1UKnB78bqzny9VXl57uTqcvmphq6hi/6A6/f8VR4FbwB2+LPRofO6wDD0t356nXoAiN589VdIQA6sHeWFMVVTxp8WcyUXBisWiNexsVr1vEfmCthwKlJeAv/SijbdYVBIzyfBW+AN+23z2j5j+42JROj7dwwMdO6GSmLjr2pWP7Lr9sCR0wbvyYnB5Ucp+T/Jmg1EoTcu7xa14KwPayfL+hShZmSsx+3f5DP8k00n0b1yLRCyB+csWorV7EYLBCNPPMUDQEQS3YiGPYDjMB5CEPxRBvqg8sQDcFfIirQJqIhH+Zs0x87rHy6ERTnmroopXAnMmlzwbdjaTM0KIUQiymQwSyTSmpiaRyxcRDEjlp6xQCP0kGjtmU7aGzXsLYqAydC0SCSEUjlCIghQCneUfn3p0Z6n5Kch+XvBR+nWdosWTIf4O8ipj5rmA/hA+7k3GFG6agLytDDvkHyauMDItJHyBQEWYWVA+RaAWE/OjsnlQtSldkewe6ZSRZ5046Joqwys/j8tQ/Aq1e+tG/OLLX8Dgtu249MNX4djzLkZDcyev51kultnClpDLJNHW3oaxvl2ob+9ChiQfCpN8/AGk4glGlkV3VyefRXCGTLzkuddhFVW8UnCSPCc4DcIEmZufQh8g0ZQQQiTsRygU4Dkn/H5uEgq/L0ShCCAcjSDMHldE4raAbYEA99y0D1Ag3Obi9VNgjEgsTmk5il89eJl0ymyifCg/Jj3cJEAiAm3SSuweu0/xKl0Xl/LhYxoMxTz6qaGoKmaOtdcWCrIcFl7ps2zMo/Lm4tWx8lpOo2KbKYd+K03Fw03lYl6M4JjvMPMT274VeZJ15wEHoLNngQuv+1Q+blbnMqe4l0IUK0SQLjCfJKy6UgaBdAyxwa3Y9vxaI31VAmMXI9mTE5GyOqqo4hXFPpCLBJX9ofXUarDsKMsNVqZDQT28L49wqMDjEs0kaTPseZE1zeXFFKTi9HkKz3TvrrRKCPoKCFB4fN55OUPZO5eKM+EqYZrAtDkiTUN51W+3KR7KJw+VL6WXRyigfKtceQqyritumh8BHSsc8870pIlIkygVVRaXvn7vDcqHRzKzITIrMIBpFiSa2NgQVt9+OzXAOBYsXYruxQdQgZN25uIRRJLKt4qWypdYx36ElZdcFlMTg9jx2Crsfuj3WPfgg8ik0u4m3lBi+opC1CSCqaKKVxL7RC6eWaC/EuJcQY2W4pfPI58rIpcTyfCqSIBtOUdBUO9PbnH3mtmju2fiEek44lFWtHdCoPASJglj0bQIO024nlx7C21hHCyMi9qd5x8jhDLJKD4Rn65pL+2hQC2lUJQG42N+dV53K25pDwErw75CcXubg/buuEByEoI0x1KTo3jolt9i8/PPoqalGWdccgnCrfOQL1HjYx5cXosI0+QkE9l9KrvI2p+bQnrHZmxd/RB2P/sM2qPtOOGs01BbV2vhpnNtdaDYyhVTRRWvEOZMLjIznLkw0wv62eMbvYg0aALJjMkXKKi+CAlHYXneTJvy5tOmRj6j/XhqvxGPrhuKRgS5IgWMcRQQ5O8Z4XBkIU2Cwso/0n68vSI1TUrEJoXEiMkJ6QyUsiMQ+UHNjJK5UjZZFE0uT9K0a+6OPaH7XwhL/gWXdJIakKflMEJpNKO9O/DQTdfjzp9ej0hdHU485mh0LT+CpXI+lumImO+izKjyoyLVwpdPYu0Tj6LvydUIThVw+IVvwOLXvx7LVp6IUDRq4QQf4zCTyjSYvee5iir+VJgzuUjDlxCqB7W5GjwX8pfNCwo/dXRKNe19Mxkk1Vlu/K1z0xtVdl4v0syQsKvhy2GqUSj9NjND8dieZolEgj19MZ9jby2TyBM4HSuMCEPEwb/KGuOzY562YwSMEPnLbnNQeMXj4lZaZup4m+Vfkbg8vBBKo5KoGEzREfk9tJUyLKwfaX9YmWLxUujftB73/OAHuPVX16OV1XToyhNw6mVvNSJV2lY3tIUcMQSRkyZTTtNXyCGQz2JyLIa6Iw7GogsuQP28hShFmuAPhK2kTlNxdeCh8riKKl4J7MNoUYHaAMmEjX5ycgKpdAGZdAKT4xNU9SWEewrwnr9nUKQAi0xqaqIIR2ope0VzfIq01P6lyThor3h0LYCgdtIwTOC8MLzOa3Ie61hnA3JQTENhad74RIZOQzJH8DS8eGbjxfKv+KiZGQmVTxEiFI06ye+kMJVVaukxqjFqZeGxfux66hHcd8NN6H1yI5oP7MRxp52Kw848D60LF9PMVFiaabkM2ubNRyEVp5bjyqbzqWQc0WgtlUCSDZ+HT6NyrPuIfDARaSw+G4WbqcMqqth/mDO5yNSQb0WCMjk5SXLJIpNKGdE4oXppKBkJt8hFxxEKSTgcMeFTryzhlI9DZpdpSOWJZiKGadOJicukmCEXQYKnsDpHQ4e998zosjESMy9B5C9e8IqrdPckGsHFIe3FN22i7QmvHPIvWZYqIW2HeclRu2Au7ZSGhUvZBEY2rcOaR1fh0fsfRHp8HEtXHI6Tzj4PJ55zPiZZl6rbbK5I4oigmMuitacH2XgcIc1rMZSQSiWNXAIsfyadRCAYRE00jFBIeWV6LI9+u7qqoor9i9nS9aKQUOmfhxIFSA1+rvBMIcERCoWORCK/jbwqIgA5V/OaNFb2scgK0nCvUslR+CwOntxzghoFSfGaCeNMFvlfFML7W5ZzC8YoGMZ+ca88edusOMvQae8SlSwSqfvtye+ecqy8kAy15wVdm6K28vwDd+FX3/0ebvnpzxEjQcxbsgSNrfXINLdj/a5hah0REot8RiJf5ZqaEO/VkLQ0O0OZlAU3qqWEfdND6oLKvkcxqqhiP2LuZhGFu2C+EZ9NnEsmEshmc9RcYk6jKWN2r6nodc7TWDxEo1H2yiE0UhjDdr6ENLWOXCBgpGKqhsVF4RFBkID0V2aPNsVpGoyF5Z9pTYPpyb+hPf+ql6+EonQaTPm3/REROH+HNgmpNBdHJk5DcWZP+aYKzJwvX2N5lLdsOoWR3Tvx7AP34IFbb4Uvl0P7AUvR0dyI9sZGjCfS6Mtm0bloCc6/9C2IUIvLyT/EjAVp7ixa0I0ETU/NW5H2IlMsFk+hoa6O8buh8WAojPpalVWOdR/SDNvU1Mg8yXRTPexZ9iqqeCWxbz4XOVVJLrFYDPGpKfPBTNBEyuUy5VA0SzQq5ETWhLKgYVMzd0RMLimJfW1NDVrDftSTnIKZFHvjEqYoLIlgAPlwDRCpQ5Ek4afQ+31yrroeXL15pV9FUUqYRRiK2flgPKJxxok338T9nQWedNdFIi6EVyNF84HMvsurLnfPNKT9KD3GlZiKYdcTD+Le63+DLevXoWfJYqw49FCcc/pZmHfoIUgNj1m49OQYfnHDr4HDjsUZ557DMkRcVMzAQpJLsoJc8iSnBM3QKEkozHrT72A4auTi/Eo+jI5NobOjuWwmVVHF/sWczaJKaAQmX3BmizSSGUhD0WiQTBhN+XfXnEk0I4jFfBYN/iKa4pMIZtMIRbKI1sRRExtGrn8QgWyKphJFteQmtlXSgrQnbR4k0J6VpBm+xhPFLO/VfU78CzI1KtKfOSL4o0jNo6T3dBiXevxinptpIy6OGSieGaKzkSaRSllbKZJkx3btxN033YDrv3cNtu7YjgOPORqHHXYY3vTGi9F24FIkk0nkShlkqLWkqPmdfdqZ8I2MI5ORmTkDy285HR3b8DoJRaRkQ+5Gem4zM5P7fCGrHNo9VVSxv/FHkYsbtZE2s+82voigtTaCdqr+tYEUaqJxigUJSaMfuRTCY+NI9g+Y81IcIqGieLmbCYmTB52lBUBCKSFGDai3txd93IaGR6ldUaPKJE3olVf17AovwXRxzkDXJbSFvMhRJ9x5wZuFa5qXCJPXS9SOHFnxHsalkZtMIo7dax7BfV//Cv5w7Q+MCA448yxcfOWVOPmiixBqakYumSIBSePIIDY+btpflr9bmoM0NcfLJKk/GtJ2xCVIS8nksshTa4yGAqZBKh8adWPGLf9p1leBRF35QPb0TVVRxSuLP8osmqLaPzkZRzZLIYlRKHj+5aBkrHfncXM4gHkklnB83IRwYlJTx5LIp9OYSPgwTDU/umQZmroW2MuJe5tGL/NIZ3VpYHAY9913L555bDXT8KOtq8de8Dv+xBNw5JEr3NCtySz/MD4Jo+KtLLhLQWaQnM2av+OIUFuAZl2+ODMC5EGWWIkkMLFzC557/HHcdcMNSJHUlh1xGA5fcSxOfcOFqGtoxM4N67AIQYwNDdh9NfkcHlrzNM2gII448nCsGxlCy4rj0TZvGcIBp+UtmD8PqUzR6ljpioAzqSl01AYQy/uxffNW1NbXYunyg20YenQ8Ru0niYXz55svq4oq9jcC/0iUj18S6vG93jpHQsizl9QITjqV4nlRhoPnt/DgkYqcvt61aNCP4GQCiZ292LltCIO9A9i9bj2e3rUJu2gu5GgUNbR3oLap1cRZHbTjBUcMgoQ+RE1igoJ513334dn770VhdBixiXFM9O7C+vVr0UcTa0FPNzq5adRFmof8E979itOKxE0vNspfo7LI7JI4q8xGiDyn6yI0wZWjhGx8AsOb1uPX//sLPHDDLzCeyeLg44/FBW+7DCtfez6y0RYSRAaFsWGESJzbN200f4yIL8tyds/rQWddFIU4NY76etS2NJNCIjaZLhQKs860nEWeZAEkSFrxvp0YHRrFwI4deP6+e5BNTWDJgcvhD0cwMZU2smqor6M2N6OQmmPXq7QqqngF8UdqLpOYmEggk45jfHyUQuB8DopKbz97x9qLVCSUUuG1lylV6yvgwFAKLYEkNqwbQDFRwORIP57ZuRsJfwS+aBMOOeN0HEANoGBLFyiLilNmkM9GgCRIUwN9uOuWm/HYww+hlfIUoJDV19TgNScejRTNpRtvvB0HH7sSV37y024ExYrKzZy+bkTJwcUvEZT5pKFsQfkPkFTyJCUrI8vOP4gwD+PD/dj62CP49Y9/hv7+fixffAAOP/F4vOGKK1Cqa0OQ2lIinUPEl0Hk+WcQbWyRUsTyFBAbG6FZNIGWNpJnMo6dA0MoLj8IzUsONvITwdXWN1r6IrVoJICtTz1BzexZPog8Fh+8CEuWL0Vjcysau+YjkaIGOZUiP9Who63JyjB7pKg6elTFK40/SnORqp5OZykoOe7T5fNOGM1c4V7ajQknhVoEo73ISfGEc1m0+LMI+/LITqYRDdcgVZAvBGhiN53Lp9C0aAGaunts6r/xgQRGsq00dEByWfPAH/DY7bfAz/yEGX9XVyeOWbYMxy45CIu6OzHhL2J3/yhWrDgKNY3NJrTKv4tIZhUj5jmn0bgRFucQ9YSQ2kkmjkGSx7rnn8UzTz2JyeFhYLwf913/S9z8o58gSfJbedIJOOkNb8Wl77uCJksQeWkeQe5JJH7qIvWsI2kgU9Sy+nfvxvjAIDWQAcQmp1AKU3NhXdUvmgdfnUZ6wkbEIdYJS2rzWIok5CwJMUqN58gjlqJ58XLWzQI0tnXYSNLE+DjNsxzqaiOoIbk6LaxchDJUb1VU8UpiRn/eR1Anofmw5yiQICKRyl95rDA61l5rmDRk8wjTrNKIUqSmFn4KVHJyDL7EMJKjo2ikGdPc00XTS6MfIgKSm0ZCeL8cmdIxptj79/b1Gk80NDehEAohwmtdzS22vkwhkUdzPqQlXrBrbJIFncmnzTbOMT+FDImF5GWCVyYaCqnRC8+JHNY89Qz+69v/iV/+8Fr8xze/gW9/8R/xhas/j5tuuQvzli7FJZdchAuvuBInXHgueifyJE+SlMpp9VKyUaEiNYZEcgopEkoumURHfdRm147KqTsxgdq2NtS1tFs+RMq6tbO9CV0dTVZHqUyeZWxHz4Il8DfPR11dI4LRehJ5EOlkCmlej/KcN5lO9VWJqmO3iv2BfSIXk0HC3jgut1cToWlhcghR0CWc6nU9P4UHP4NNRENIReopDNRSMglMZTKYyASQZa+frosgtHAJok2dvDfMjQLDuG2Sm0wZXxAhXxH5gR0ITo6iiaZBbW0NjujpQU9DE57bsQ1bd+zG2i2bsPq5Z5FOJNBHbUHxSAPQxj8IQEO/KhA3014cyUgO3cQ5H7Zs3op//dJXESKxHdnciA6SxPDEOB7vG0WyowfHvOMKvO7Dn0LbgSso4IyXZGUkSIJySyswbmoRUx3tiLU2o27+Iizq6UR9E4+Z1/nMs5zhk62tyNU0WjmLvjBKgSjJKIfRsfh0vbq80zRjOSLlN591JZ5I8SDn6sl7QLNQNYeq2B+YM7nIiJC6Pbv9Vv70BMH1vk5bseHSSugGRpIt1DFcAB2Lm9HZGsU89tK+hhY09MxDz7xuBEgkmYy0Bwq+hF8mTVEjJwWkEnEM7NyF3bv7sHbnbuwa3ITF8/04/eSVeM0RR6KHJlFNeycOWLgADIzhvl0UsErdxeR4Om92XoJNNaeIoC3GNDo2jpt+81tEY7142xnH4wNvehM+ccnFOO/oFej0ZZAd3o0JhsmRGEVWFmEZvoAbnbL68JFIEbLRqbHxMWRoBkmbkTNc9dRHM6uuJoxUMsFzWeRpbupm3ZtmOL1vpBxmsq5OtRXt3SUgyWtTyYzN1A1TYdpz/KuKKvYv5kwuarbaRC7q1bVurp03IdLmtBkJrAlVGTqSaSNHsN1HYRxmr1xsaIA/EoFeUZqanGJPncRQKo3WpcvQ2tVJUpHPRjN+bTodNxGb1lspoXfbVjzzxOPYvWMndu/aiRp/B4447BQ09dQhXCuNiNoNlZylhyziXQFsXb8BmhOniX+2qLUHntPiVlosSi9fytka8lHAMyls2rgB9915K970mjNw/LKjkK2pwSkrjsC7X3cezjrpBGwemcBPf3qdCX0oyDhIDPbiIqFJgqqfkk1qU7pAPc2ebFcterduwwZug4OD6BsaQviAhRggiW7evJ15oEbCOtK/dDppcVmdqi4YUz7DehMBlRewykxNWTqhEIm6IEewnd4DVZOoiv2Fffa5qLO3d3NoRkibyOb9yORDSKc00ctPodCEuJkGnc8HkEqXMBHLIh5PYfWqR/Gb62/AMCPK1s7D6DDNpHgB63p7MUVtpRSshRYCD/hpuvhTTC/NtERYBUtTTuS123di3cYtSGUzSFHlb2ioRRg1GNw2iomhPuym8D6z6llsWrsTfb07mK5Gt8aoeTkC1OpyWnBchFXk5re1Z3iN8ftZpqn+nXj4wfswGRvHvEUHYPu2bRgeGkbfVJJbHIsXNaA7FKBJEsdzzzxlzuo9NLjpv9TQ8qwrfwQTrKdAsBlNbW1oamlDa2sjIksX46hTX4Nbbl+Fm+5+BAODA2V/Fe8VyXCTlpMlcfiYRyPnnPM9FUnS45Nxe+lT81rCQb0PZQnvgb2NGpUzaPDIR51Cgibk6OgohqlNaa/ZxJYWr42MjGB8fNyOhWwmy2c+48x/SSjJvYXT+RcjvzlEK2iQYJwapPKsPE6RcF+AWXG9WJqV51V+xefl+0Xz+RJQ/fX19ZmG+n8B1b/yNDs+5bGyfpXuEDsu7fcJjMLiqdy/RLlfrk72zeeif2yrIg/NBcllafbkWAD12GrDzFBNTYjaQZACXEAsnkNschxbNj2LG67/Oa6++vO49bZb8ciq1Vi3YRuiyw9F/tClmCSBBGhaLF1xGH7z4Cpcf9NtfLiTFCwNfzttQz13gfFqlbsGEkOd3meimSZTTS8JJuMxNNXXob2pCRGSTWN7M0kvjxTzlKQQ9PUO2PC1yytjY71IO9KSkXlbUEoCm8Tw5g343U9+jLt+fT1Jq4EaRwPuX/Uwerdvx85tW3DXqlXIjpbQ09BIYYzj93ffbeRi5S/Dlv+UY5hpZJIpTI5PYc3T6xHQSBDNs4aODnScsgJnvenNeGprP8YTWns4hNvuuA8PPLwKE+OTjDtjguyjKajRLDWoTCZNck2TrEUser8r5hoBIc1wLjCyqQiq3xkS1UMPPYQvfelLeMc73oGLL7oIf/Znf4b//M//nBbaCy+8EFdddRVJesLuu/2O2/H9H3wfvRSel4UlqTovN0bu7Fjn7VmUz5eh3xkbkSyvB/wiEJHcdddd+KsP/hUuYp4vu+wy/NM//ZMJoQeRjzoBwRMGj3BnC0clESu+888/3+pd4WaT9Fzwv//7v5g/fz6ee+658pkXpinYuReeNqguvHuuvPJKvPa1r8Xzzz9vv63e+F91OP2b+NnPfobjjz8eP/zhD+33i0K3l+Owffl5VD4vez57ybPwcnWyb+RihWBi7tf0ptXVmBMbfUkmkhgh66958ilc97Of4stf/ldcc82PsG7dWj7oDB+W5rsAqx99Ams37cSCQ1aitecAHHXwYThk2UE4esXhuPv3d+Pqz/0D93dibHSQBEAi0/KZWuk+kEPHvPlo6ewmKdDeYJ7yWrRquM+Er4aE0CSHaV0ddvb3Y5QEtfTIo6mRuHeeNF+HtcX73NCzlYlCPDU2iifvvA3fvPofcevNtzN8CYvrozimewEuP+dsHHXIcnS0d+Kq178eK5YfbOQaCvmxYeNWZyJ69V/K2Zq38t1oLtC27Ttw482r0ds/hPlHrsQw81Z/9FE4dOW5SPob8Lu7V6E2Ws88NCAY6cDO3gxuuO12rFr9OHs9Es94AgO9W/Dk46tx5+030pwaIKkk0bubZRsd4xMMWhnyWgd4723gBahszBLgj3/84zjvvPPwhz/8Aaeeeire9va34/TTT8czzzyD9evX29yl2tpae5NdTvoU7/nV9dcbGT35xBMWj9ewp+tBqDxmNbv28xLHZYyxXD/5yU9MSF4MIpZ///d/xwUXXGBfaHg78/y6170OY2NjuP8P91sYkfOaNWusfMJsUtmbcHjXVF5t+r1HuMoyvQw0sKEBDet8ypidphc/pWevcatuvHs0zUB58uKzeitHZ+HK9RgMBVFfX2/P7SWh28txePdOQz95ThNIX6qeLNvl4+lzZcyZXGxiVvlY79NkaQJNN2bLWAmhSB127e7FLTf/Etdf/2ts2LDeLmklfxGLwuTzGRY6io1rN2CCxFFiRQ3sHsTv77sXm3Zsw4knnY5DDzsCO3bsJPP/DF/5yr9Zr5rJSPULsScvIuYLYGcgjCn21qKI0WwR6/oGse6p1Xj8oXuw6tGH8BsKyiPPPMuGF0BTJIDFrQ3MQ94KLNMiRyLSOzvITGFs41O469r/xnXsqUfHJnDQgm7UsXDSfPr6dmHN449Q9R6j4Pfhqc3bMUCVU5WhXnFspB8jg722QFSmoDk6RaqjCWzdsh2PPbEGj63p5zl946mejcKH1es2ItDUgRxNpeeeW0dtayHq5CdiRdXW1KGhrgHRwDxs3JzA3fc+hNtu+T1J9j48ueZp9A8MIpWUPyeDwaFB0zjk7xH8mvKvyp4Dw1hjcbfhb/7mb/DjH/8Y3/yP/8ADDzyAz33uc/jIRz6Cv/3bvzUBF8mkUuw8ypCTvoYk88mPfwK/+MUvcO5559p5r3FKSNKsW92TK89RKl+wTkJ1JmivMCI3z9TysHXbVvzbV7+Kxx573H5791SinxrTN77+dXz605+2/CvPKsu1116Li990sYWRmaff0iAE5d16Ywkz9zLr1BnadImyYMwWJAtbvqb7VaY9BEvthM/BXkh9EfPHqxuVVWWuLI+XnsJIkBXmpeIylJP39l5des/J0zo8wvf2qmeLn2W2+L14CJXJy5fKqXAKYKO9DKcyKn7tFZ/lm+enj4nKuhL2SXOpyAtzqsRnGoUmfOWyMTzxxNMYGpStqqnr0lS81wNmKpHZx7YdG+1Fw0Qyg9auVpogdaih2TBvXheWLl2M5uZGNsYCNm/ahP/4xtfww2u+jRFqJ700bx4m2WzcuBGTNAuy2TTSLFBmdAq5XRuxe+OzWP/YdmzbtQsTNM1KNJn6qTU99dAD2LzqQfQ+twaTW5/H8Ian8PTdd+LHX/sW/vnvP4t77roX3d1deM1Zp+G0t12G3lQGO+JJbE3Rxq1tR5z1rjpM0cTJkKR6E1NGuFPxNJ58cg20DITm5eRyeTyxZh3uJzFs3BpjT+8vk0cJN99yN6775W14/198GDFqH5u3bDNC0QPSXrAejJueaS7fgliujsfNOPCQY3DSqeeisbWHZsoYekk0juTdHUWmncnqibh6ngvuu/c+/OqXv8JnPvMZXPGud5XPzsBrlJXwBEV+Hmus3qdMCIV/6qmn8PWvfR3/8A//gBtvvJHlnHINh7ft2LkD999/v5kt6jCuvvpqfJUk8vjjjkQEXbubpqZM2Z07d+LWW2810psNjbZNxeNYtGhR+cyeEGE89PBD2MV2IAG55ZZbLC5pNsr3E9S4vv+DH+Dqf7wa3/vu99gp7tqjvDZRswwJjYTttttuw3333cd6Z2NgUAmjNLtvfetbRsq//OUv2UZHXHnLUH1JIJ9fu5Yd5VeszE8++eSews298vsczZ1vfvOb9jwUl2Z+W54q4jN4Usss6rry9IXPf8E0yYcffhhx1kvlFBDlQeFknn3jG9/AZz/3WfzqV7/CZGyyHAJWT9JcNdDw29/+1sJ5JvD27dvxne98B5/97GdphVxjfiRBcVYSivYe0QhzJhd7m5gkEWRP6erdx8olw6lBM1K9XDgwHEcsnmBdUIsJRcmA7toLoTkwPlbK76ne70RWlbttDPntO+HLTeGggw6krdpD9U5rw9Yy7iDuvuc+hn8A29irPfX0M9gxOIqBTAFDBT9GEykkoz7Udx6IllwnW74PddQcGyNhJINRPEIN4gtf/DK++Ld/T8F+P971rvfgfe/7C3zpi5/HqvvuBJVXHH/C8Tj7zZfiLR/8EPytC1CsaUCGxHHDjb9H5+E9WNTeal8zzNUEcDMb5pS+dsA60btVa5/bzDIVEaA6umEjBeiRjUiWGlFfV28PIJmawlGHt9paLInJAVz5nvdj544B7Ngtv4zXw8w8FAcfzY84xicGsYFhH3vmeZuBGy/6sIMa1BBNz5zWvWEj8u7Uc9lbbVfCGkI50D333oN6mpFnnnEmIvoM7Cx4RFIJl1fgv/7rv1iH7zPhEnT+29/+Nl5Ps/HnP/+5mSNX/eVf4oorr8DgMDU94o7b78Dlb7scH/vYx/BXV11ljf2aa641k0ZEJ4icpDXt2rUTd9xxO974xjdaozYo6+X21NTUhGOOOQb/RtPomWefNQezlzdBvf8X/unzRioSbvljrrjiCmzZssWcnSeccAJ+ft3PzX/xhX/+As499zw770Ht3QimHOX73/9+vPOd70QdzQ3T4fn/pz/9Kc4++2xcd90vqKVvwHvf+15c9pbLpoVP98qMEaH81VV/hUceecSE+oILLjRB9h6cBhc++tGPYuXxx+OGX/8amzZuMv/WOeecw4704elwgp7JjA0B1s3nzDT8zW9/g9WrV+Mv3v8X1Oi+wXAaXXXhVC8/IJHKbyZtVM/mQx/6kJVnYMC9THsvLQf52+SzUl2JSKWprCUpvvXyt+JrX/t3qytZJCIfoVJjqdx72CfNxYFMVciSWNhT5mTvUzvJp+0ZjA/voqnh3uL1HkolVNYsTRhb0Jq2+7Zt29Hb14/46CRKNCf6endiqL8Xxxx7EhYsXM7eImvVqAetBrJt62ZsWL8ZWhqhqbGewlaDumgdhqgFPL1jCFOJIuq6mtC8oIPdikywAsYTGWowsn+DqGXD6J63CIsWLMLh87kdsJQN9CicSdX+0o98Ake98TJkgvVobazDApJVqJTFw7v6cPMv7sCmrVswsHUt7mXj37B9B1rq6xBOxVmOABYsamdPFEaKms5Tzz1vaVEKqJVNucbAQtTV1pk5JW3jnNeejsceH7PzevCj44Om3VTCze1RJbqvN8Ynp+xFTF9iEr3sXRpqatEaDtgDtGBzhDUAVSohgV66dAnmL5zvTrwcdF85LfleZNN7PaQcq9dee40Rinw199xzD35GktlA8rmGDVuI1kRt1E0+m8cef8I0id/97mbz5Xz1375qYc466yyse34tVhx1lJk60g6kuagutHkNuLurG1/8l39hfEM4/rjj8JGPfgRr+GzM1CWam5vxwIMP4pOf/KT53yQo0opEKt3d3SZU0oCVh6effhqbNm3E//zP/5Tr3ME6VGo515IAZQJ+8xvfxInHr7RnLq3ik5/6pJHCY489iptvvtmET1rJ7275nd2vvHr5vvHGX5vAPsW0WlqaLS3FIfz3f/83brjhBiPn1Y8+ijvuvAOrHlllaX/9G19nR7TTwglefIKI4n/+51rm41N4lkR9xx132IDJwQcfjK1sr55vRprN9777Xbzrz//cCF3P5tckMU8jEfQMpLXo+jPsvEV+bW3tuIX1s3v3btzOjkH5v+eeu82xPBuV5pCHP4JcCEqFqXXFhLVssWSagta7e5Q9iN5+LofbC3Qtnysgk49g5+4RPPnEk/bQ9cnXDU8+hwE2xiUkh9aOHntHx2vNaswPPrTKHsLgYL8bQfKHUUMhyyKA9SOj2OZLo/aANiypjWJRsJm6BAWUKmzOF8AANaymA5bgY1Qfv8YH8o2fXIsv/fBavOMf/wUnX/5OBBsaoVX3tSZKIpXDeLAW+Vqeo0W3bSKGlBZzosCnxsZZBh/iqSyYayt/QZN1fAlqcWkKPtXiMkSyIomgTyvEdePGX/8S0YYO7O4fwq7+DRZmaKQfHW09duzgyjsyNshtwO4PRWuMjHt39FFLegKDA0NoZs/tBPuFD3Wu0He/1YD31jD2Cgab3Tt5UK+sxbrOO/98i1Pt49BDD8Xhhx9uPaogomhpacHbLr+cPTq1LkKjKXImS6PYunWrnUtnM+Z4l+3vwUi6Im05Lc/nfY899pj1tNdddx1OPukkfJRa0VTMDUerQ/L8LLPR0dFhpo78MiKf0047zYimMqxSu/E3N+K973uvmU5XvvtK004F9d4yZd5Fc1J7kdeyZctw8smnUADvtfWFlGedl+YlQRWaGhtxyimn0ix70kbiBPmETj75ZHNIezj8iMPx5je/Gfc/8KCRdSUUr3DvvfeaBnfJm95kZrkgM1E+py6Sr+dDUR3JjHz9G95g5dOzOfDAA7FixYrpZ6NnpvakujzyqCPtnJIR6UgLrAwnbWw2jEhntaM5k4uKYw2RmdNQs85kcwGksporUoPRiQSGR6m5UKNRGkpGlZDNFphpN43fe26kI9SEcggHc1i3/nlW8hCCtOGnNvchOUDhJeM2NbWwEPVMM0cyShu5yCzQp1eVD/ljZJYpP6rY/slJPL1tEPFsFN1HHIrTXncKTli8EE1+ffYjiBS1mJGsj71tA2oampCMtCBm83PUG4aZb82hyWKotx9P3nk3tHiTZtfWhKMIsXIbG2qhGf2BCed8CQRDzs/Ck8+vXY9YrIAkzbPYuIaKp2gKOfMwSdJtbmnAlqERmjMjCEbqsbmXGggJWXnXA62tmdFaEsk4t1j5V1mYGK6leSG29I5h/a5xIzzvFYs0SW+2QLwUKs0i1alGXSQcc4WXlu2ZmHpHNVzZ7Or1PvGJT5j2oSHTt7/9HRSA+yx+LY2qsMq3GqwH5UGjIEKln0B16wnRS0Gr/GlUST44qfrfZQ/9la9+pXx17xDhyOfznve8B0cecYQRnrQj5a8yzR07duADH/gAeqjpyNzRNU+A5NtQ3i+99FKaVOfasPWZZ55Js26NDWRkc9K6neYi8qpEXZ2+fBGyupBfSUP9xx57rOWjEhq501QJj4Q8KF3NwxEZa8h5+fLl5SsO0iij7Ky9+tSzWbt2HT71qU9bHmVuvf1tb8ddv/+9EY38UMqrtL0lS5bYPWojiucCEt7KlSutrk495RQ8+OBD7vpeMLvjmTO5CLpVJo1miaZJKm5uhZYlSNt6Ismyby+ZCVIAZhLSCJF6YA1Dywej5yfzSItgP0t7ua+/zx6seufhAY2+DGJ+VxtaG+rYu+iNZU2nl4qq3itkjOyW01Sc8vSTaKidPD40gHv6dyPd0IBlnR04/6AlWNbWjJJPE80iGOND3ECzRa8CuPszqI2WELXVF3ymFv7+/ntxzzOPI8gwjQ0RnHHGqTiNjSe+eCm2BajNLG3HaM6HCBvGGWefh49/+mpcdPHl7AGnbLJecnKHeyWgDDVILRGx5t4/IFzTiKOPOQnb1j5nxDM8OkCtpbscUsTietxEksRUQRiC/C96ALHxLOrCevNZjkJWeEUwez9q1n2zYQ2g/GjUW8qprm2uqBQ+NUj91jq/6t1kbohYZNurF37DG15P0+bDePe7341G9theT1oJ3V8ZpwcN9VfWQWWvuDdNq7Oz03wb8tFo9MjD7DjUZqShSFM5+uijcQtVfZHN2cx3JZSnnRTKL37xixil8Im4EvHEtACJlOvYg0tQ5fNQeaWByZT74Ac+aBqFfJSCl9+95VvtXiSguvHy6oWT4CsflaTrwbvPdbQzAyuCF4/uVRxy8GrFgLPOOtPyKiK88PUX4sMsk/xmIrXpvHr1pWLyUBrOzTRdZYKpg3gTtSKZdB6UV92xt88L7RO5KBLn0HUVbNHyUHZuPilBrUEi7aMW4DKoUFIL9fCCwYj7YFf54SgKEdXo0AQ2jA5jgoQlRu7btg2TI0Ooa2DYIM0n9noiAt2lFeLyeS1f4BqpzudJLkYUDDE1laAt/zhWU0XXKzlLDz4SJx9/ojmFpb2MMp3rb/g57v/Dg4xLs2ppzrHTVkNW7zoxHmMFTtFMi5swHH887fNFS7AV7G0XHIa6I4/BYWedhwtfdxGuuur9+PhHP4DXnnGGvQsl/87YBBtcSw/zIc3DlVMPq7d3GPc8/hRNr1q0NndgZDRkZFRf22BhhBliiRuRGJlYjZOI0ynbGJn9jtSHabolSS56vYCaJOs/x/x77eKlYA23HO6iN15E4guY/S1ifSlMN/zyXm1Ax3oW6pnnzZtnpsY73/FO/PVf/zX+7u/+zjaNorz1rW+1ezzNtxKzf1ei8pqEWmnlshS4chva271dXV0mTHuD7pOwyc9wwgkn2qjMoYccYvFqudFKKAUNw1/1l1fhy1/+spkuv/jlL+x+Qc5k3ecN23vl/fu//3u87/3vM63Ey5+XX2/vQffLLFS9ycTxSN4LJ62vpaUVixbvOSImeZKWoXulvahzrsQoO1FNnRCUD4Vrb2szbUXD9V5eZa7Jma5nqVdfKmHtpJzdaCRqzt+bf/c7HHHkETZi5EF5VbDKBco8zJlc2CzKRzNQIbOUzjyimKJ6rsqSyVMX1ar1CbNpVcFlLjLotyafac6HICfftu07qfqNmBq2deNmpMaGMTk6hoHBUVML3bd7vEicHyOXTVO4UiQGrRUTpKYRQD4QwfZkAXev24hHdg3g2eA8bA6eCX/pZKZJ7SVQom2/jT3XbRSqkr2uwMjYI2UwNBJDJBqkPXwyheFSvOvK9+Dc112KE04+A5de9naq7hEcteIknP+6S/CJT30Krz3vIpJWM0kgwQc5gSQbdHJ0ghpXF0YGttFcYS/HgkugVj/6GFXs7fZb5KHRI5lNMvsEEYszh+KYnBhGhsShfAkiFZGIEUm5LjNT1Ix4Oclw2ZSbdyB47xy9FKzhlqty5QkrWbbLTHA0dCwHn+LSczVn+Pj4dO+pTfD2Hry0pZ5rlOT73/+eaTFOqyTpcdNxJbx7BB1X/haUhvwlUucFXZfW8KMf/Qh/edVfWnwiEDkqdU2EozxvY8f029/8Bm95y1vsPkE9vMJLcNU+BXViE+Njdq9GmeSEnT3cLWcuA9hIjibhacbuBz/4QdO0Bf3WMLsEVPWkuE0e1BnupRffG7x60WxojcrIeeq9vvDgAw/iFgrzKdQuDzn4EDvnwauv017zGqx9/nkzC928FOdfuZF1oHf1PBx33HE24fI73/kv8zEpr6qzymczTXzlR6Hfuq4RNJlNgp6JSEeE5cHTsvaGfdJcKqGp85YTyxN1gOIEtZQpJlZwZlHBNUibYl+RAZ2TeeS+9cPf3KWo3m2ZnMAk1fwY7csENYx4bJzxJWcKzZ3MIm0zNeB2nv9F7V48umUsjh+vSuG3d82jwK9A94LjbIZvNJeCn41t8+YNNoszHAowKveGshqK/CDNTe046ZTX4sijVlITo+0a0bIQcs75SQZO+9IDCXifWSWk+QzSBm7p7kRdKIhJNnxPCNUQtvf3o7kmhK7G1j1GhRypOGLxtBWRSJxaTUaaCqFvQ81GPJtCmhqbvhiQtc+6zNTvy8HUWO95cPfVr34FX/va12zI9ugVK3DiCSeYei+T6dhjj7NRAjnwpIJr8xq2jiW4Ht72trdRS7ka3//BNebYVBynnvoampVn2pCtoDrx1HkPXryV5xYuXIiLL7rYnKannXa6jaaISKWa7ybhKKyEXMPAhxx0EFX915mZcwa1yGOYZ807Udnk25HDVYInQZTJpCH3D3/4w9i4aROWLllCE+E8MxPkO6nMQ1BlKz9D4fvf/z7a29vNjyTzQCbVz376Mxt2P/ywwyxtlVkaxYMPPWj3KL7KOvIgf5LOe21EJtfll78Nn/n0Z6ze5fA959xzTGP5zF9/hpqxc/h79eTd9573vBfvuuIKmz8jn80pp5xCE/Q9pqnIVyJyEC655BJ84Z//GT9hfpcuXWom3Gmnn0bN7IzpVwQUp8XtyRsxPjaOf/3yv5ppJF/NeeedbyNHn/+nz9t1tSMvvNemKslmn5e5DAYD7FEGsGnDemTyPgyPjPJcGE+yd968ZQMFrcDedxxjoyPsvTNk4gmbjt/S0saGmTeBqCQbffsoXcjg8Lwf82mqxKfieO+XPov72NN/57vX8J4cNYQaqt40IZhVmUl5mlDSZsyhy3/hUJSFdA1DD67giyDJuDpaVuLA+e8mSe3Glq3XMPwG3utGd0477Ux87GMforYUJTuPUljlyW+w0SdB5twATYXlFJQwCUXVpAcQDLgp1fqdY76L+SL6+wdQW1eL3b39+MOqR/HYw6twwinn0gRqRyE3gh9f9yv0tDfjqKNPQXf3YiOTzvaePYhlatJNaEqmYiTnNOZ1zrf0RDaCfEtM1Yht+dIFbHBtjL8ZRxx+KA5YvLDcQ5fQ091qz+jlYA1DjbTclvSJXg1/Pv3M06YVtLe148STTjQhUqNTzyphXbpkqU2g27xlM3v/CRv21DtYXv1I+7n99ttNi5FpeczRx5iGpGMN/+r6QSSE1tZWS1dtSk5NOSiPOOKIaWevtIGbbrrJrp1y8imYN38eLrzgAnzu6qvNhyMtYfPmzdbDawKcCFD+D/XSgtfwVV9PUDORFiCTSVqC8istR5pQG80FEZDSkwNXppCguTO6V0PiVk9sslqcTGaITEA5PlUvMieVT5VNeTrppJNw1plnmUauc5tIYhL8SqfuJuZb9S2TrPK8JhNqCFgagnxX0gYrtYR169bZNTlwvftkzjz62KOmealjfcMb32AEojTkS5nPvHqQJih/k7Q41cHRK47GCSeeYP4haSgasdOzUZ14GKV8y+eiuu7q7sbFF1+MRSR/D5UEMxv7TC5Sdnbu1ALYW9ngqaXER8zEuOvBpxCjxjHYvwvDQ4MWVvc4cmkx23E2ueihSYilmHX5C1hCgommCjj0/HPw8OBu3LvqIcatj6vXGrkoq4pXPhaxskZ3RGZar1Y+HbUAjUpFaaiVcjSboo3o6HwtakKnkyhuQDLxICtDQijzjWrl6Wfjwx/5ONW+cZvt2dXZwXiCFFS9FzRBrSCPw8o2eSXk/NI9u8ji8n2onI182HoxcjMf0I033YHjjn8NtZ4app3Gb67/Eeqa5+H8C96O4dF+tLc6J66IRfDIRR+X02hbb+8uHHLIcpa9bppcPChMJOrDEYctp8A24MTjj+XDnmdfbNwXcvEwm2QMqpy9t5c/DoxPnYClsze8zHU9d/mFNPlOk9U8wXqxhu2df6mGP5cwHuYcdla97Usae4MRtiLcy60vuKa0Bf5+qftegJd7NpUol2+u5ZmzWeTZZjOgGuWTT8W9ZRzIJdHXT/uMvVmUJoCY25kqfjZ8rUgnW1fDYzMNX45IaRoau44xfolROBTG42tWYxO1IJGG4OJxKvUMXElVMabBkDAEEUeSplOS2ksuncDI4Bqy8n00nZLMq0wYF5cIY/eu7Xju2cfNmaeqsrxGomY3a4RAJlCWJCWBt7QYgd7rSdNk2cZerp+91mKqoIcdpJcataK/m0BYG/aTLCb4AGQ/U/sItaJ93iIzdzwNxYNHLNJYYskYEiTjQjaBbCZgxCIyqdyEWCyJhOxfa0SaCl/kVjZT5wg1EAW3xq+KqbxVDah87gXXCJ2z83MF43tJYmFcL9W4Zda0d3TgW//xrT16ek9wZ2MuDd+7tzLs7Li833sLK3jXp++blawXfvZ9c4XVyYvc+oJrOi7/1jXJxZyekaJ5ibo3MBoroxf/HMszZ3KRCijoXRnlxe9LmVk0lQ5Q+DSfI8GTIdTXN1BwfUgkkmwUSR5nMRmLQy/zyRG7Nyi+JPPeF8hjZySDATk8zSnoCENmUIZxSXBFMLPrTEUV+WmtF222/gv/aSQpkR7AeG4NUqVe6OWb0w9Zgms+/3f4ygffixMXdmHztu2Mv2BmjdWiwAzVsxEvmt9u2oAekmYh2xcNeSznc9/23Thg0SIj0fJNCNE8lCNwcmrK8jz9MBhfd0cLendvQwNNRMEzh2wUqIwaah/uFvmlZshkNkIk6VwixzqZceYaRPReGV4G1kC8/FUce/Aa7wsaMaFzL9sg5wpF/zKNVfNgzjzjDFzy5kvKZ2bwUve+XLyzr7/U773F5Z3b27X9jVf6Ge0NcycXpqDoteyk2m86R/OiRO2lpLc4U+zlayjheZIKBYa9qnwEIge9YySVXevuanQnGHTvIVUiSHNCQ6IpptBPEhnIpJGSplQmI9myMj1eUFf8Lc98Vk5jfVKV/2SySLBFMjou5eIoTm1HMbYbJy6Yh7846XQcFvDhaNqZK5cux4HNXYhPxCxP0mbi8SnLuxXW/SFIMAWVUx+Bm8LWLeuQYrrtbS0Is2zCzPeZSyimxjE5ofdU3ANuoX2r5RemqJ3UROv2IBZpJ9JahJSGk+0IFlbEEQrt/Z2f4Qn3BYZpKmFW80aE5d9VVLGfMWdykaDKaSoBV/sN02RxL3bxF7dSWMtLyplKs4IEJK3FM6WCoZBdezFouE/kM5opYCIQQQaaKKdJduUAe4HMq2kTi+nLNMrSZJGzVnkV2Ujr0FvKepelobYGxxx+KNq6WoyQpF7X03x56uHbsWnbWpo/ehcoaUOTBd6j6fXxJE0sEqdIJZkuIUXtbGhwCL58CJ2MxzPTRAKanZujCVVMj+Oss0/D0O4NFHg/4ukQenrmI0lzp6fDvcOzJ7FQS+M1baWMG4IOhmsxoRcTWZ5K7UVr7No50+Q0lOrqV9WkETg9iiqqeLVgzuQif4R9D6fcm2epTfiL0jXYoskCvmycgsEGnp2yVdgaG+rNsei1d81t0chMKKRhzQq/C7UFj4QkHCIhmR8aRdJwtchBJCF/hnwhTn9y0BR8+UgEDXlL2CToOpbgiqD0O8pbjljYimOPXWaCK9JKTsXx+ONP4eG16zE0PI7hkWEz5SaomcisETQD1tukkem6CIg1gVpfCPqM6oxZ4swn+XTOOP10TE5OIDY+iYaago1mgWVvbo1M+1ikIUljSWXTaGzuRA+1qvbORQzTbXUwFpP/ZbwifgeVPk3CmdAXK1kns69XUcWrBfukucyGhprVuN30/hJ8hSR8JA8NHUsT8CFgDloRk8wpCaeGOW1ynQjF03zK0E/1wAq7p9biRoG0UYRNYzDfC4lJ8Yi0ZJbJL6QwuhbR+xX17Qg2zMMhS5bgvKNWoq3UABkSu8bj6JuMYcni+WgmQcVjw4gN9yNNgc2KSMYmbRRIZKaFdTTxSKNJyr/5VKihSGtTFivzqfrQEGNraztWrjwJ2zZtxMhkhtpLHD2drZgcT2NsZGjaDBJUbzJ9/L5aI57J8UEj28ZIwJavcJqK20TkMp2irNOwjY45/4s0pCqqeLVh7poLNxGMZtbKZaLJXRIMNXqN1JTCdSgF6xkwaEO4Gg11vpU9J9LpHg33qncWCeiLgVo/1jmMnSNTJo6gKcWeL6O9vQUdFFAtaaj0RAJ62VCQv0ZaleagSFDl5xGhBZFDtJSkgE9h/dgwBqNpbBragcHtu9FYGzVnbEd3F82dpL0aYKYbsymfRsgfhD6c5pZPsGSMWGyeTSqLlM+9NKl5B4KC5Eh2ba1tthrfylNOQ21jG0aHB5CbGiMx5W32pe6piTawDsKW38WLlqGrewE1kVEMxqipMP8yozo6ujE4PIJgMYYWaj8is1RO1FiyCXRmGk2p7mfIuYoqXk2YM7moCdt3i3TslyniXpqitNi1xnAQwZJ8DmMUnpCteSHhN78AA7geWkO91CrKm8hHRGPahl9r0gZMwBXWzLCytiLSkTlVUyu/joSa5g7Pak1cEZ7S8UaWTCPi/Zqror38PXmeW//8Ovzhrkfx4JPPIxHxoa6+0V5OjHKLxTKYSlJYfe4dJukk8o6rDDLLlJ9sloTHfSHhZsRqjo9ISNc050ZaS2IsjoMOPRbD1IIaSXAtLQ22wlyMZFRf14B585dg/oIl6Oyab9vy5UeirqYRIwwvwlm+YKlNnmtr7USMWpLi3rZzgMQUdz4Z/vaQIgnbFHVCea6iilcb9lmf1ur1ufJr/tao+aeUi6K1pR5tHW1o6dDsPX1ipPyyYpiaRFi+ES0uFC2ThdMONG1fk+i05qrem9KQsMih0tRQOG1aMnNifJRmld6ZYBjKlV9fYdwDs8SMP/VuUopEsCXtw0aaPYcvWozDFy/BUP8A4mMxLF24gBqRe/FQRJInWU1RG/NmRhqxmD9HQ9tuPozey9i5eYtpZN4QvUwnXYtEw0gwjzsGh5FKFhAlqZx88jnURg4wgqmvcyvU6Via21RsFImkm0BnL+WxrAmaYI0trehorkdAzt2EHNQk8Ywbti5lnVnZ1KyJeyRjOyuHr3xM5R9VVLGfMWdykdZik9V4HAprdCaLeMaPDEmk6E+xpxcpOCLQ0gm1Ne5NZL23Y0RkBKF5InrBq0hzQm88u5cdBS3fIMEQYWiTdmIzabmXAI+PjZJc9N0cTYSjaUbB9MhE8cuRamvJ8B7nDeF5Dc3ytzScDNNsaFuK1oMOw2jUj8HJGDbxfKqzB7URjeCkSChBK5/FR6KZjsf+zuxrSaRHHrOC5k8fdu7ajU3btpsJE6qLoIHE0dBQT+IaoXbUwHLLvJv5rK3NB2K82vf3b8cozTVpgDKT6hsbrZ6kjdVGZNrx2NYgtlsNIhZ9tK3en7Z1hxWvPiGrZTCU7yqqeLVgnzQXmSx+aRbTYuYJnF7kowlA1V7mjKB3guSu0GJPWg4gk9GK4pr+r+UN8kiyp5cwyPEqAbEhZBFDWbhMwEk83joR0mzKh9Zr2+JOMovKBKTwOta5dEajOpq459401ktveQqlH/qwWABp5msslEVMI0QTY6hrbEa4rtXSDvqDKNCMIde5tBivzodp9ulcuLEOixYsRE93F00aamIkDm+0KxwJ29owSw5YjM1bnzFNSFAcLh+uzNrLeav7mptaaCItsMl1+azexYqhjgQlNDU0IMZ6y2VnJtoJKm8t09Z3mtx0gPKFKqp4FWGfyEWQWbQn2LL5X4vXNzQG0VhHUyAin0UQUZJNOFxjwqkw4bD8KDykUIUjEXtJTRpIWY73CgmgRpzktNWwtRELe2kRSaVUKZxIy0wr/lOa+jKkzkugeSMCdVHUze9GJNiE8Vw9dhQCCNd0M9/z0NPVZSaG5twEasLmC1LGRBjhsubRUF+Pjo5WHLx8oRGAEUVSmkgJmakhTAzvwgMPPoBHVj+GdIEEoWTLWVRYywehuS22rAIRYcWpDkR+cg4rXqWlUaCQFuAu106+TDAF7v28Voo02mLRCmsfYZupiiqqeFVgzuSiJi5BDUpI/BEbEUIhiUwhRPNGzk4Kr6+OwthEoailiRExTUe+C/d1xgxSWR07P4neN2KMNtyrJQEVtyDNQz3zDEomfPrYut5DEnG4kaEQzQ231KNgw88RnROB8XpQzmDNrXHnJHwKW2Q8qfpGFJqoZUWbEGhsQmNjBIHCJALZkjl5G2y0yTmbtZfPSMSgOLs6NQ8lbE7WLIlIo2CxoXH0D/bZ4uLZjc9hV+9ups38RIuI1ogEXR61xou2mmg9QuU5MppMlyXRpG0qv4bi826WsEbheI/CJGhCepDvpbHOj+ZIcPp1AauT4ExdVFHFqwFz11zYbiX/EoAw+UHNOKM3jBmFzmmrrQ9QcHyoqw1Bn3XViIvX3Iv6jlE2hlwmZUQgLSOd0idL1aMzIyIHEk6IAq3PxTqymREWT24ktFpj14M3qqS9t3mQsOmaaSEUwHhcwp1jJPIL+VFf40NrMIP6ZIrXnHmVo0YUrNMbxu4DXopDm/Lc1dlJbStCYkkjTrNOc2Dy8RQGBnrJrSXkaPoMM/2GUACTJJ7Bvj4saGlFkiaQSMXTXryFpJqaOxCO1tgmf0uEWpIXRlttfRNaSH6lPNOjeSTthhdYKyXUN7eZ9seIVFKbuGhsNFNlVVSxXzFncmGbppBKeCtbL2/Px9ienaahD38FApo/0mxkoZvU3v0+9bxyWsq8cO/wSGPRZzamfS0mMiINzX9x2oekxRHGnhIzQ1kvhMKKUDzC8c4pnaym1+tu/tZHt3ZsWI/E5jWIBuRUdWEtx0qPedcH8VPJNIZGRp2Tus59wEyahdadSYzFMDoxgd7+nfDn0tSEavVFEySofdTQdAtTQxkbHaKp48hCc3P0pUcdC/GpMW7UUjRaZjOQNW/H5U/7dC6HhmgQUyQW3ZLIsp4CYRJ4LVpaSUYkOhcS1KKcw9wCVlHFqwBzJhfBTf/nnuaICSAhStBQsnr6sGaaGinITCmvmctwau6ZrEwjt7SeJqJ5xCJBCmnGaXkinX3Njuek0cws+usIyRZt5ub8LXuH6/UrzSoHyZz8MVpeIZOnNkMCa2qox7zaJnQHGxCpZ3lYPg2Xa6mHbE75YDmCWTSEi2gtxlBfnKTGMo6x8UmLp5indjLQRyGPIpbOGqFKr5iMue8VqYw3/vY6bNm6y8xCZcIjFhGK6kzl0asK2nRNs5291eVkAomw9YJiQevTTPaho6vD1RlNNUdCQjnOqu+lilcR5kwunsDaSI4dCSSAfA2FRI28ZD2pJDIULKGhTtP+SxTkPKLcgiggnSeZkEBshIPhnaCVe2pumvfi3hFyKdgMXfk9FFrpS9h4v94pcvG4rRKKy9NYdE2OYGMJbiIEfZsoQBOtqbkVBy5digaaIrVMriubRDg5hk7fKBrivYikB1EY3ohC72Z01ySQm9yGtavuRHZoh5GGBH/n8CjGaNoFmI5m5+7awWtDA/BpLRemGCrFSEYxDA8O2vIIHiq1F0HH3m/t5U/S8g014TCCoVpES5O84Ob/HHv04TjmhBPQ0dbm6sXuclAUL6TVKqrYP5gzucz4MrSsJIW6qNELOVtpDviK0JvHct42NTRTMOqNAJYsPwiXveZEfOjPL8dH3nopVrZSQ6DWUTJycfM/RAZar9SWp9Q8GpGXberFtWRDGE1t3SjVtILKDwVKJpTg/poJNItgjHR43hvSFsFIG9CnP/QSInONSF0zTYtmjE0lWJYSDm+IonGsD7nnN6O4bguWkiyOq63DQTUNaB+YRG77GNY/+jx++7PrsPa5x7F1Wy92kzS6O7tRCNUjFKjFvNYmLGxtQVddVNTJHBYRCfFYWh01DQ8ekQjys1RCjnBpT3o0jihZTt6fjo+gvr4O6599mml24bhjjsWCRYtoekUsJQ8zR1VUsX8xZ3Lx4FOj10EgSlXfkYHavwSGooC6+iDCkSIuf+c78MX3vRt/fvaZOLqrB8d1tOONPO6M+pBPxkkscuCGba8hZplIBc2JoXYh2ZNQaYlLXyiIjvY34qCFf4e25ouQ881HmgTl93kLclf23Y5YTCCZLx1b/vhPk9s6OjtQQ8JobKizT7YW67sw2dKG8UwGtdSQ0qkkdkwMIrSoEUESWY4ayGhvL7Zs78fgtn7sHBxCIlSDyTFNbCvh0OVLsKS7E00RfSo2jKGpPO7dthtrx5zDVptGvwo5TTJ8YVXLx6KtkmA0zG4LTZXLpXR6euahqbEG7R1dZh6uW7/FHMpdnW3o7mqz1y3CrKdwgM+ggriqqGJ/Ys7kop5YmoDJrf12t2r9E43uSJA0y7WOghsgUdRTqFqjUTb+Dhtl2TEyjPjkGE4+6ywsWnYgBd/5UbwhaEuh5EZsPMjHous+Xw01oqVYtuRNOOygT2LBvA+QxC5gN38Akv5aFAI0wbRubilPckpiKksTjPfAH0SxhgJZ24EFy47Ga8+4gETVSlODWk0+g6a6IFLBCJ4Yj2H7xCSaa2txxPxFaEzlsfWp1Xj86fV4esdWPL59K54eG8bRJ5+DFSeehONXHomjjzoMy5Yugb+Wmga1q3xOfhAf2rq74ZfmQSGPJVRrykbE6smDnNmCiEObhrUd5DNx5yohAu7uWUwNRl9zTBoBa7byYL/7El9zWyuamxsRYD5YsXauiir2N+a+QLem8XOv0Z5xCuMtv7sV/SMxU9e1vOK0n4M9dP/AAJa1dOLNp5yAUmpKnwnEA08/jZ/eeSfaD19BzQNYt3YDhYo9utiKEKnE4zGaLSlEI7UklYK9+at3bJYuuYpay7kMI7+FSGwSsSmaMPlJaj1pCnaCWtQAchl9p5kC6tNIkSbnUVCZL60Ls3hxCy684DAsXtSJuroaDI9MYHgyjf7+3Qhnx3HK0gUYfnYDmqiZ9DL+geERxEhSuyZj2DYWtxXfm5sbMDo5iUQ8jRGSjSpEI0daSU9m19lnn2X1pMW7UxkSXimFLVs2YOlBx6FnwUHONBJ5MJfeC5GC0/60LIU3hV9zaiI2ZJ2ITaCQHkbPvA7Wjcw8oK6lG+e/9iwcs+Ioknk9tZpa1NTX20p0bQ0Rc1ZbvPz9alyCsYr/NzBnzcWDGrfP5+aNqNlqWYIKZcOgpR+f2boB8VQCLVTXh0dGsIgk0dLUitWPrcGzz66zSWMesZj5YKZRwXppvZUoLUlai9NcPAJyacqfEok0oqF+Mc2dA2gWzEe0ZhkF7SiaJ4fS3OpAwBdmJx5FKNCISKidghvECMlkktqT7pe/x5Y9YG8fjNThyYFJfOPWO3HbE49hQ/8Q1vQN4XfPrsUzu/oxPDGGjVu34NEn12Djhk3Ytm0zRkf0sahhliNJoiMBWN5rLI81tc3wh6KYTDjzRmaZB31UXuWZ0djkd3GT9jyy8RYy16JQTfV+eylSC35r5rPmEcmMHBwewsjosM0oTlMrmiChlajRzKTEaiwTS3VZhir2B/bBLGLgsnaiNV28Rmyv/fOHBMPbNJ9Dzs41vVsxpElz1ERKHe1aadlesNNiUc7p6uKTYGb17k85N3LsSkPy1nLxBFECmM5qIpw+OhZgOK02J4eycsObaQb5KeDBUAtCkVbbgqEGyx8Dmbagz6JsePo5lMZiJKAiEmMDGB4dxRNPPYNdsRh+v30n7nx2Pdb1DUKj0bk8SYN51brAZgIyLyJAOZrdXkPCWkpCI2UBNGrSGxPUZ0+KJX35IIq6mpn5K/mySbSnn0Xm3MxokvxP+pi96nZiMonW1nqaXPXUjnyQddUUDkLLQWhS4NjIKJI2GbFo68XIlBQ8QtHzMOKqEkwVrzDmTC4enMO0/IMQzWiymdeIhZbmFkTZQ//y1zfhkYdX03Sawvq1623luLraBmoSYSMr3mJCocW05UdwJKLFpTQkzY3nuuf1oK2jY/qaTAj5ZpSUjmU+6TWAmmgrouE2mgT1/K2V/JVPkZNHYHkzXUR8w5PjmKKJFfFr2UzGR8HTR9w0US7JNCc1HZ97Z644UtCmETDBK6cHEYzIpq5O2lDAvpktda6UjZlmlM5QC6GJ4xbYmiFKmUnaRKyqP95k2pQqx9JWwEAYmZw++qY3xZlWUKNfPkfOGqonAaeTScRj7jOdHjytxfKq/1XzqIpXGHMmFzVNz6EroS1RQ7AfAlu9GzmS1pK1XrytrRvDKeCOJ57ELvbEFCskyj2rlmFIJGLcJqjF6G3hOO8tmCbjZufKbChQMKOY17OA5lSzxZ3R93xyGolRtmeEXksqaHFs878UEkyJAhhsYjwa0nWmlMjFJrIpPM8VKKzFUhSFnHsHySasleMMUAPSRDoNYdtyCdy8YXMdK23NRVE+lC8Rn9ZpkebFn4ZUfIREEEBN03zmSWUfpzZSdtyWA0mTEok6YnHD0PaCZjFnq80pnSL3jQ3llz+JYFDEpf+aEhCyYXxvMXL5grwPintxVlHF/sKcyUVN1YSZ/3gAX9HNIjXwtyMWrc9C8qDQFHm9ubUVQ+x5b7z/Iax67nkMpChMTNJ6b94qjcMEyLSSSig+57tpqW9AlEKk3yIge1WAQp3Pp5lOykwIEYtpMzRLgtRa/P4Iw8h3o+JpLo5Mlqit3u8JqQhFwixhzIh0KqAgHtHoh7cX3OxgklP5BUtdk/bQM6+Tv6W9AfX1+lY281PTjmZqcQGmow+06YNn8qWEa7RIuItP5pCOFV+GGsx4fMwW7S7QnMzFtX6N+4Su4AiDZaqVZubyJJIJabSMx5qE6MWrfdUUqmJ/Ys7koibrGreknP/9YQqG6yVlbtg1/rdGzWNpE3qXKJMHdownsCWWREY+EWkJnvpu8e0dIpzmJo2E1NMEKAu4CbyIJVWOP8IoREwylfS1AJoGRRINe37LMeP3+UIkF32lj6RWJjHzlTBvqWwRUxnmN6MPrik4iYjCv1fwmsw37ZVr/VV4aR5616e1tcV+Kx6N6iiErVzHvLg6oQnHcg/278D42DBisXGMx0btK4tT1Nyk2UyO9iGXoHaXTkrVcmaYFcPVk9w0RiesQ81rUVqCRyh2tRxWqJpCVexP7LPmogYsu9/zAYhY1Ltq2YQMNYg0e1wJkt9PVZ7/iiX24oFGlEJat4QmhQmaE0wnCDPCMAORgg9ZCu7IWD/GJnoxlRhhGknTWJSe1tR15pEgkaPw2lwXrefiaUIubmk0pvXQOFO8us80iJAPUa3JS9Jxs4b3khc77/b2MqYO7Z+DyqD4wvpuE0/GtRB3PIkiy19fE8FUmmlqXRaGKzLvGmqPjQ/RNMwhQo0myHyESBaRKOsnwjoLUQsJcuPxVNItwG2+YsKyUs6m9yxegFlFsM/t7q1cVVTxJ8bcNRc2ZgmS9zKda+FOw9CB9cwSUl7XqwBhZKHpFiWwh2UDLxX03WNNuJMvwd1TCe8bQ4I0C81orWGcGfbwMfbqWjwpHNJQr1P9zeypgN8XRsAnKfQESQQYJiGIhIpIJUMY6atFMpZCyswTvXekleeoYVBL0OdjTasicXkajpWXJKB1eLW5884k8vKvvESjWirBh+GRGMtY/hgc8yftKBLwIU/NJBCOIkE1zuqRGonKo/k8ej1A6WrtXr3xzB+2lfJZhP1FBGka5vOqX0tuGvoKgvGLYaYup4efyze4etqzrquo4pXAnMlFAuP12DYXpQwJi3wsGu3RaIj2LS3N6Fm4iFfzCAfSFGKnUZjwUgjlCqgUDI+4ZgSCv7nXtPp69u4UMRJAhkIm/4Tzt7ghaDfVv1jUsK+0Ejd07UG9tnw/vEBy0BoyfsQmBjG8a5dpKsq3rsm8m5pKm5NW5KFzrqROSCs35dcRqSM5mX4iUM1OVnlJk9Ri3H3JbIFxMnxBb1BryQfmmSRTytOEI0Hpfjf6Jp+LIy7Fb+lTe5FzW2XSy+FmEilLDKK4dY98UtrbN6ztXl4r+1l03mG6oquo4hXFPpBLWbD4V0suaMq7fCFuCNmtdat9V1cP5vXMR1t7my1toEavzlhyqVEga+zW/p2AaI6HN3lOIzJKR0KvLy6GGpsQqm/UnDoKmN498kZC5DTW51BjvN/NGykWaS7ZDF4Jlnw7bt6JNJpygvxbRJS82KEV60IaAXJrvtSEAmjnhQLj9fv13WqSmSf8FUQqaNKa8uhIToQpctTCUlpyQs7kGmoVNG+CUcYBEowbYVOeyTIoZhLMLMuh36yLHInBjQw5lOSczqZN21GlRQJxq3Vpi270y4daEpTilGklopGJ55GhaS6uuFVUsV8xZ3IROUg4rffmJmGRcGndV/u+MgnigMUHoLOjA5r3EZuKYSquLxAm7XvLCqdZualU2tZz0Rol7hOpcfd5EZpS+jiZ3lq2BbWpTWiVu4ylkWcaJWoeWvvEfTlA92ufy/l4nLPfFjf5JZcNIpN296UZPp1y6aWTaeSYnnhSBCJ/0eBAL8Z270KAZDKlT6zSPEokE5YX5cnF6+WPJpWXR4Zzn3lN2GiRXk3IUlPRFyO195NIkvEJaik5jNEUG59yS1kODQ3yviwmeZ8W7Va8WrhKs2xVLxmmoU1r37hZzKwDns+TqBW3jousEz06XbNJjNIGWShnohKOZ/aA07qqqOKVwz68W+S0Bpk2opkHH3kSg4NjiI33mz9CPWlbWyta2zooBBLaQWzdtgMTExNU6UM8R5OJcXhfVDSNh4SkYWBpL/q+kWduKUsSlsWLFpCsWimYCyiA3dRCSDgUWtMCDOqlqTHJp1M+J4FznCki9MIRvgTqaoYRKg5B33g+8bQzEU+k8MgDfzAfTIFpjmv5BRXEhFMmiw5kBs1UkYtT552ZJO3hwGUHoqmxkeccV0srGhoaxVS6ZH4XzXMx9SuXRCHjQ4NenmR5a6NRRxZlUrC1bDyCIAKllNWdWxvYjQ5Rn0NrayeWLVtob3lrmN7v16iSXqEokuC7aS7NNg+p+ehuK1cVVbwSAP4/7cN0B/q3eGIAAAAASUVORK5CYII=;" vertex="1" parent="1">
          <mxGeometry x="110" y="150" width="238.17" height="70" as="geometry" />
        </mxCell>
        <mxCell id="VpvmrexH3NGM5sz_Zpp6-7" value="&lt;font style=&quot;font-size: 21px;&quot;&gt;scrum workflow&lt;/font&gt;" style="text;html=1;strokeColor=none;fillColor=none;align=center;verticalAlign=middle;whiteSpace=wrap;rounded=0;" vertex="1" parent="1">
          <mxGeometry x="380" y="80" width="200" height="40" as="geometry" />
        </mxCell>
        <mxCell id="VpvmrexH3NGM5sz_Zpp6-8" value="" style="endArrow=classic;html=1;rounded=0;" edge="1" parent="1">
          <mxGeometry width="50" height="50" relative="1" as="geometry">
            <mxPoint x="160" y="240" as="sourcePoint" />
            <mxPoint x="160" y="330" as="targetPoint" />
          </mxGeometry>
        </mxCell>
        <mxCell id="VpvmrexH3NGM5sz_Zpp6-9" value="" style="endArrow=classic;html=1;rounded=0;" edge="1" parent="1">
          <mxGeometry width="50" height="50" relative="1" as="geometry">
            <mxPoint x="200" y="240" as="sourcePoint" />
            <mxPoint x="200" y="330" as="targetPoint" />
          </mxGeometry>
        </mxCell>
        <mxCell id="VpvmrexH3NGM5sz_Zpp6-10" value="" style="endArrow=classic;html=1;rounded=0;" edge="1" parent="1">
          <mxGeometry width="50" height="50" relative="1" as="geometry">
            <mxPoint x="260" y="240" as="sourcePoint" />
            <mxPoint x="260" y="330" as="targetPoint" />
          </mxGeometry>
        </mxCell>
        <mxCell id="VpvmrexH3NGM5sz_Zpp6-11" value="" style="shape=image;verticalLabelPosition=bottom;labelBackgroundColor=default;verticalAlign=top;aspect=fixed;imageAspect=0;image=data:image/png,iVBORw0KGgoAAAANSUhEUgAAANoAAABjCAYAAAD92B5mAAAAAXNSR0IArs4c6QAAAARnQU1BAACxjwv8YQUAAAAJcEhZcwAADsMAAA7DAcdvqGQAABzYSURBVHhe7Z0HeFVF2sffFCCNhIQUAiEBCYFQRKVZIPQmRVRAH12/tcJavvVDpCyu0kQUdKUXFUFW9FkBC+hKF6QsoqyCgIUuvYiEhJAAyXzzf++Zm3Nvzr3c3BTuDfMjh3vOnDlz5syZ/7zvzGkBBQUFIoACCH8lRuBPUECAY2JCyBUS53BnEK9IHBdpeoxt16VzfBqNlwRyBS6tSshJBdiFxRiznggFcZy3tYvMFOwOUWBEVD8yPfzTaK4lgfiPK3dJ6yK2x2ToyS4YiK8Y1sgcF2moZU/FEhBoxDf2j+Xi7F+jKQsCZIX0rAZ7CIuD1WUElBBYKCUebymNNDSaklB6Fg2oNEqxTkMgdnfQS7TINNea0h0M0Wg0lpTuYMjVgOEspqdaUmum0fgC7DqWCdCHs0ZY004ji1ehNFxHjeZa4/FgiIrGFlBtcRVLiG0uX75MBaJAms5ACgoKlpOTtmVarq6TmQcx9ICGxp/xfNTRQ3Hl5+fT77//TmfPnqWTJ0/RiRMnKDPzHFWpEkLxCTUoqWYiRcfEUHR0NIWHhxlb2UBWnAWnBGa1TqPxF7wf3neyRFeuXKGTp07T1m++oSWLF9N3276j06chuN9tkSUR4ZFSbLGUmlqfevS4k3r16kE1EhIpomoErzejLZimIlEsoamozpbl/PksWrd+Pf3jjcm0fv0aI/TqxMfH0/8NHkyPPPwIJSTEc7paYJqKSLH6aHwZAPMmS3b8+AmaNm0aTZ78Jl28eJHDiktGRkeaMWMKNWnShJe12DQVDe9dR8kff/xBr702kV5//XXZN7tihBafgIBA6t27L815a4Z0JWsYoRpNxaFEw/trVq+hhQvfL5HIgBAFtHz55zR2zFgjxBFYOI3GnymW0GD8lAE8deo0ffrZZ3TkyBFeLimXLl2iL774Qvbx1hkhhQLjUUctNo0f47HQVB9N9c22bdtG3333Lc+XFrgssHTZ58aSTWAK3WfT+DMeC40FZqrrR44cpkOHDhlLpUNubh4dOniE8i6VzBXVaHwNr/toGNLPzc01lkoJ2Ve7fClHToXpapdRUxHwuo8WHV2dwsMjeb60CAwKprCIaAoJDTVCtMuoqRgUu4+mqFs3mVJT6xpLpUOoFBjuGgkOCjJCbGirpvF3itVHw4VqxS23NKfbb7/dWCodatZMpD69uvG8WVzaqmn8nWK5jhCbGnWMioqkHt17UEpKCi+XlIiIqtStW09q2aqlVJkWl6Zi4dVgiOqndezUiR599Anp8oXzsrdUqlSJevfuRWPG/N0WoDWmqWB4NRiirBoec3nqyb/Qs88OpqpVq3FYcUFarVq1ookTJ0or6V0aGo2v49W9juZNlOhWrV5No0eNoi1btnBYQUGBQzwzgYGBHCcxMZGefvoZGjZsuAwzVmo0FZBiC01Fxwik/S5+BMmfK1fyacWKFbRgwQLasWMH35516VKeEUdQUHAwxcTEUVpaGvXs2Z0fj4mOieb0zLdbWYH1ut+m8VeK/TyaEhhQ1swM4uTl5dGRo0fo4IGDlHsxl0R+AYukSmgIxcXFUUqdOhRdzbWbaBaVFpimIlDsUUdYLjvQmyHTAikmvLrgnblzqWPHDtSsSTOaMX0W3dK8OfXu24c6d+1Cv/12hHr06EMtmreiF196kfbt388uJiYzWmSaikaJnkdT7N9/kObPm0dz575Nx44fN0JttGzRkoYPH05ff72Bpk2fLi1evrGGKCioErVt2172056kLlKIUZG2Vxpoi6apaFgKDUFXcxFBzsU8+uSTT2nSaxNo+47tRqgjoaFhFB0dRxcuZFFm5lkj1BG8uKfnnX1oxIhh1LJVcyO0EC02jb9TxHU0iwy/KsyZfXv20pMDB9KfHnzApchAtahIatK4IcXGxhkhRcnLy6WPP/mI2rVvS48/9jgdPXbSWONaZAg3/2o0voyD0JTIDH0xsGaYlNjOZ2XT66+/QXe0vYMWvL9Ahjj2r5wJDQuj9EbplJpaxwhxDd45MvfduZQh0174/kJ+GNSVJUO4EqEWm8bXcRCaGuxwJbgLORdp7NjxfN0LAx+eEBISQjfUrUe1a3t+q9b+/fvouSHP0YcffmiEWKNE6EqMGo2v4NJ1VCKzW7Lz52nsmHE0Y9pUGVY4oHE1YqJjqGWLWygpqaYR4hmnTp2iwYMH06RJrxshrtEWTePrFBGasmoKLGdnZ9H48a/S1ClTKDcvx1jjGdVjq9NNN99MdVJSqErlykaoZ+AtW+PHjaVxfx9phFijLZrG17G0aOraGLgs+0mvT5pM06dPL7bIAAZBQsNCKS4+gSKjqhuhnpOZlUVvzpwt83B1y6bR+CpXtWjvvPMOzZ49nXJysowQz4mOiaPGTW7i+Zo1a1Ja2g08X1xg2d58801avWq1EaLR+BdFhGZmw4YNNG/+fDop+0veEF2tKiXVirfNy75anTreCQ2cPnOaZs2eQ5cuFx3l1H00/0WdO1fn0Bzuz+fZpdD++COT5s9/j7791vtXysGKqdd843paSkptnvcGfP5p3bq1NG/uO0ZIIXqI3/9Q58tq5Fitw68KN8/7I9Z9NMnWrVvk9A3Pe0tsbCzVu6Eez+OLMan16hV7QMQMXMi5c9+lo0ePGiGF+PNJuN5QolGCcsbqXPr7+bXuo0nWrl1HO3fu4nlvSUysRZWr2IQVFBRENRKTKDIqhpe9AY3Az7/slmKba4TYcHXCNL6NEo87wZnX+fN5tnQdN27cKIWGgQfvDyw6Opbqp6XbFoxkqlevLq1cgm3BS7Kzs2nZ0i/4A4cAhe/vrd01RZ6b8q7AzufLWVBALat1/n6eLYW2evVq2v7DD8aSd8TERFHtJJuo1M3JtWol0m23tuB5V+Am5ORk14MmsGp79v5C//rXv3hZFX55Vxa/RhaV6iLwvQk+UIGdxWZexrwv5LEkFBHamTOn6fvvv6fLV1y/lhtPSVevbhtNdEW1atWksGoZSzYiIsIpNs79tTR8nPC+AfdSZNWqRkhRLly4QCtWrKW8S4V3qPj7iSg3DJGpLoIv4XwOzcv+3pAWEdqKFV9Jof1oLFnTtXNH6tG9q7FkzX//+1+aM+ctOn8+m08qPr279LPP6J233zZiWBMSUoVaNG9O7Tt0MEKKgrR++OFb2vWj+3xqLJB1FxX4559/plmzZtG+ffuMFdeWvTIf+HAKfq2ocBZtx/bv6fDhg8ZSUSpXDqWmzW6mGonuPxiIVnPRRx/RK+PH8fLatV/T6DEv09k//uBlV6DliompTm3aZBgh1sCqbdnyH2PJf+CW2Wict323jdq3a09hYWFUVVpw3IB9880304wZMygzM9MWqTQwrJiaBz/IrsH48ePp559+tgVYge0sLIlb62KsQmPoCeimNG3ShBqlp1Pr1q2pcaNG1OzGG2nVqlVGDPeY86Lm3ebPBMdzEZXLy7NkPMJBaLA+e/b+Kudc76FZsyayMjQr8voBK3Iu5tCCf/6TevbsRUOHPkf79+8x1rimQBTIShdBGRlt3D7DhkdqVq327GT4EtwyG43z4SOHadfuXTRw4ED6pywn9DvvuOMOevHFF+nZZ5+VDd5hjueuQgBUCruQnOFNpaso/3EcY98QAhqrK+4+IomsSm/EueK6c+ly83Jp5oyZ1LBhQ142r3eO+8Ybb1Dv3r3p3n79aPv27Xy8X3/9NaXWr099+/aVDfUi18dloPKCtNX81ayfyof5XDjjfIeUKzwWpIxo58svvxSNGjXCZi6np556Spw5c0Y888wzluudJ5lhERwcLAIDAy3XO0/169cXsrUVR48eFW3bZljGUVN6err47fBhI/e+T0F+ge23wPa7ePFiERkVKT788ENevnz5Mv8OHz5cJMTHi48//piXrVBpeMvChQtFdHS0+PTTT40QD8Fu3ewaxzB48GARFRVlhBQFed/x448iNDRUyEZF5OTkGGts686fPy86d+4sZB9fnD171ljjBlf5KVkRMThn7sra0/PgYNG2bfuBDhxw/82zBmlpPEyfn+/ZozJyH9x6ygwZIe5Ba3Pl0mV2p1Lrub9l6/Tp03Rgr2/0MTwBLSiOjx9DwjJaTdlk4E3NQDZI/JuRkcHlhg8zYlBq1KhRtGbNGrZ4eBfm1KlTeVu4l7gXtWXLlvyBkOayb/veggX2j/YjDYDv2D322GN8A0FSUhKNHj2GTp48ad8fQP/okUceoW+2FN6kgAdv//3vf5NsXAvfBSOzfDE3l1566SVKl1ZLCopq165Nr776KscfMmQIyQaCpHhowIAB9OCDD0ovaa9tWwPUh1kzZ/K11ZEjR3LeUS4AxwU3+iV5zLgxQT2TOGLECBozZgy/YU2xauUquv/++ykru/A+3KysLPrLoEH0ySefcF7/+te/snsqGxZ2TZFflO9PP/1kbFHIkiVLZJelDcdBmS5dukxa/HzOkxQ8jXzhBb4tEWklJCTQ7FmzeR2Xsy37LnEQ2p49P8uTdMFYKkpaWgPpEhjXxsoMwaKsGhlJLVvdaoRZgxN76LffjCX/gMVmCEChLn8o9u/fz8eGCpcrRbN161auMHAvIaYbZR8GAsRLjyDCTp060bx586hp06b0vKzoEyZM4HRQCVChBsmKt3btWhbBhFcm0CkpsrGy0kZERHBlBMeOHqPP8Knko4WfSoYgMGiCTx5fyM7mMNydM3DgE/T2229T37vvptmzZ9PYsWMpIT6B9xcfF09R8tzhJbkQIEaene8GKpCVF32wPn36cL8UqEYI4LeNdKGT5fa4BRDlJb0o7rua+36z5L7R+Hz++ed8ix746quv+P5cNCoAx/3880Np8eIl3JDgKZRjx47x/J5fC7sykyZN4rK87bbb+Nhuuukmevrpp2jZsqW8Ht8C3PrNNzLsafrggw/47drKPcZxq3J0iTwI5tSpU6JHjx44UpdT9+7dhSx4IQ9WPPnkk5ZxSjql1qsntmz+D+dp0+bNlnHUJK2ekC0rx/VHZAsqpJjEF59/YYQIISuGaNCwoZAtq5AiYTcdbpT0IoQ8wUL2qzjezJkzRa2aNYWsIHw+4LLB5ZKCFKmpqWLlypUcb8KrE0RNGe+9994T+VfyOe6BAwfEo48+KmrUqGF3HfEbHh4uPvroI14G2NfEiRM53p49e4SsbOK1V18T8dKtXbFiBbt8ebl5HH4h25av48ePi8cff5xdR9lYiHPnzvE+zWA7WTmFtFBGiDUd2rcX7dq142OTguJttn77Lbtr2dnZ7PpKK8XHgv2A5557TkgRCGnFeTktLU0kJycL2VhxfsC7777L5S77gLy8b98+7rJIqyykReQw6RWILl26iIceekicOHGCJ+QlLi5OLFq0SGRnZfOxA3Yfr+JB2i3ar7/+yu6EOyIjo3jy1A30hgDZEgYbrhRayfppjXneCrQyGM30Z2JiYmjAfQP4Bmy45P369aP6qan8LQK0mLBsmPCJLAyUwKUGsHL1pRuPQQO4YHADYQFl5WC3ftOmTdIKXaDvtn5Hst9N99xzDwUGBXLcOnXqUNu2bTlde0ssmy5umS1AOCxU5rlM2rBxA91Qty517dqVXT7cYlelchUKC7flq2qEbfQU28AlhhuGfSprxU0kfqSVqlKlim1BYl9voopMB89Dor7179+f09woXTdsu3z5coqX9aN/v/78duyLOTZ3WTYY1C6jHV/HBbCAsD44ZuWiw2rBmh88dJDzg9fYS7Vw+cuGgnbv2s13HiUl1WZdYJAG5YvyQrnd2vpWCo8It99eyOUm/5AvTFbYhYaErzakjHsXo+QBlKXQUOD5hnuAStU4vQHPW4F8HDiwx+3FdV8H/akH//QgvfLKK+yywPWRLS5XDgVOHioBhATgRuFVD3CPZKvOYQppfTge+hRw8+AKoj/BbqIJVDquFEa9cDVSZxYfRpHRb1Iukx3TpnCDzfWjiIBQJ2Wa9erVY7cUII7V/nfu3MmNCeJj6tqtKwsMe8GTJT173kkPPPAAH+fefXv5kgXyl9Eug8JCbcLHMaJBMAPRQPzsbsrdwr0+IY0M3EJcXmnVuhW74fPmvctCw21/aGhwXChz3CDPOB+akU8r7ELDyUOCrsCtUXjMJSw0hHfoSrklxXyioqOrUcdO7XneFXmX8ujokcJ+ha/jXPHQue/QvgM9/PDD3GdB/wuvTQ8KLPzqKcrafALxDQNM5zPPk3RhjFAbGLJHTLxyHZUXlco8cKXOm3kgBCAcEyqgAvs0L6OyAQxCeYoSkFlISCc9PZ37TzjXViL7RvaH8O0GWHK137vvupvWr18vG6dc+buOevXqRYk1E2VajWRfahkt+3yZ9AxqsQUPrmQ7PhyDc11Vy6pMsQyL9/777/NdUdg3rNyuXbvYc4Anob7X7iCkotl2iV1o6mBcER8fSyl1bG+ywqdvlRkubXAgISG21ggtFd6I5Y6cCzncWWc3yA9ApTKLDSfZedSRMZ9Pp8oCEeHC7q5dO/k6nJkff/yRhYBrURihRIWGZfjll194PdLCyNymTZt5f6rioNUPka7cb6bBJTQC2BZigyCqRVWj1q1a0w/bt3PDXAQjiywec4V0IjgomIYNG8b7evnll41QR8aOHceiuffee+1iv+fee7jRGDduHN/U0LixrVuBkUcMmmzcsFGKrye74wqUm3P5mUF4s2bN6PixY7wf2VfjdDFBsLK/y+dHNf4OWCdpiV1d3bp1k+byRmOpKL179ZW+r+1ujUqVK1O06WBKk5joWEqQ/RWMJuJlqkuWfMaF6orQkAiaMnkydeveg3JyCod+gUOFdnZhriGqBcdJRh/C8iQamOOYj+G+AQN4qP7555/nYekDBw7QtGnTuOK2vvVWbu3ReHbt0pUvE/ztb3/jVnr37t2yvKbQBwvfp1qynNUF69jqsVRdukV4BGnz5s0s2Dlz5nAjpoQWGRUpK/u9dP58FvcNMYy/d6/NZVPD6bDE6FufO3eOFi1axOvN4BjQV8RQ+/Bhw2n06NF86QGWA67kyhUrqXOnTrLftZwmT5nMolHHDbcN1gt57NOnt92V7t+/H1uflStXcj2OCC90kyFMlJ+6pKJQZYrGBJ7ErbfdTsOGDqUZ02dw44Jb05YuXerQ8CAtTHbRum5LiiI3srN3734xaND/ioDAYKTEU1y1KPHq+PHi+IkTRiwbsmBFSkqKPZ4nU2RkpGjdooXoktGmyNS57R2iR6eOYuLESZz+ho2bRKP0pmLKlClC+sli1KhRIjAwwJ4WRsiGDh0qdu3aLV4ZP0HIjrXYuXMXb+uryBPrMDqFkbvmzZsL2e8wQopy8tQpIfshQgpFnDuXaYTaWLdunZAVXsgKKGSFFLIVFiNHjpTnca8RQ/DonBSMkP0qLv+U5GQemZwydap45OGHxYrlKzhe7sVcHnFs0KCBkMISdevW5TLHaB9GQPcfOMDxMBq3dOkyccstt3B62C9G9oYMGcLrAfaPdKTQhbQWQlZm+3GbL9rjYvRUmQ+kj7QwithQbieFJmRflUcznXnzH29y2tKFtI1mGukOGDBAtGzZUhx2uoGhk0xr2NBhDhe+MSKJEcQ5b71lv1guBcU3YeC4Y6JjeFQSI5GLF9tGJnEe+st9vPjSSyIz0/E8OJ9XK4q8e//MmbN06NBB6badlS2ibJ34M0spsgPoeDc9/OvBg5+jHW5eB+5MyxYtZCs1hWrEx7P7YnZXkYmAgECKiKxK1WUrtn791zRixN9pxPAhdJ90DTAatGfPPpmvM9yi4C7/lJQ6VE324z5evISeevopWv7lcmou96H6JFfypVsWJJsdkxsTKvuY5tEuBVpNq75CWYD8w51BnxiDGjgW58EKBS6Ynjh2XHoRlbjvZi4zHCcGsfAy2ytXLnMaGL3EiBvOKvYjGyfut6G/g3dzBklrkphYk0cDYXVkBbfvG607Lm6fOfM739ydVCuJv193+LfDVDu5tt3FxX4RD6495itLDwd5U09rYL+wCBiQQVk3bdKUrZjCXNYYDMK5PX3qNIdhxBL5T05O5vX5+QWcZwX6pRgdT05JdjiPuDaGwQ1YeeVqAuQzpEoIxcbF2sMRD4MmKAPsi62d/IPlRzrIE44BecG1QFhVPg8yn9gnBqbUeeBzKf9hbEGlY4XXX5PxRmi4Ij9//nzavn0HXxxE/Tf78myqpDmHSUflOH78hDyBsbbCkPEg/HzD1UGhIetwATBaioK74YYbHEaYcGSm5LlwXnjhRRowoJ8RUr7wSTEyVETY3NLYZhXm+L6APc8Web0aVg2Z28bN2AfXTpSDq3hucJm+F/l3h5KQ23MlIxXFlRlEuLFuzZo14sYbm3ExeDq1bduW3cBZs2Zbri+PacaM2Zx/5cKUJw73OuIPvwZq3mGd6deMVZhDeuZ5JxDuap0znpaRy3jIRwnK2ZNtHcrUwHk7h3WYd1xtWR6cBv4s4ntDoU02kGGyRqJOOiGDOLwUWgKz+1OewAoq9wGtjyxAni8vVOvKLR/+kAejNeQiR/Ga1pl/zTiEGdvZ4wLzvBMId7UO5WHPj8RTK+Icz16uyIcXlkiBba92juzpm6KZ94njMQ+EOJSdRK1Xx41f7BPx7Dpwim/fF2aRP7XshiI13uWJQP5cnCB3BAdXorDQcGPJh/DyeEoblQeuHN5kB9uU0mG4PPfFpDTL1dO0XAmat3eThFqv9oNfc5gKV6h1tgWnZTeUuWmpXTuJOnXuxLduqUEKn8GDArquKK3yKM1yvRbnqDj79DBumQstJDSUr39gZEqjuV4pc6HBh5UdSszZAjSa65BrMyqh0VxnaKFpNOWAFppGUw5ooWk05cD1JzTzBUcDdbFSoykrrj+hWVxgxJ0BGk1Zol1HoHWmKWOua6Fpl1FTXlzXQtMuo6a8uCZCE8L1o/tlCe61tN2lYlgzrTNNOVHuQsPdzuHhVSkuPpFfjYYXyJTXhCeAQ9S7+JxUpt1ITVlS5k9Y4xXieBELXtucnt6QX3BZuXIV2rbte7J998IGKj4sDt4dWJBfNhYPIsfngepavdMfWdEWTlNGlJvQ8OJL3MH/5/95mBJqxNkewBSFNTu/IJ/fO3FXn7soJLToOz00Gn+m3ISGL3ocPXqE39lo9YD1pUuX+eWh+GhBamo9duXYvdNWRlMBKLc+Gq4Tg9zcHP6kj/OEtzjl5OBLNjbdO4vMy/ZAo/EJfGp43+FdIobIlMD0ULzGn/EpoZlxsGCY1TrT+DE+KzRlwZxfjqLR+CM+KzRtwTQVCZ8Smqsv1Fi+Z1Kj8SM8FxrqehnX90qVKhcdXZSL2n3U+Ds+ZdGcRYZlbc00FQHPhQajIqciFqeMwH4wIKKtmaYiUDyLBjeOFVdOYFfaoGkqAMUTmmHVgM2weaIC6fwVwwqquMqSaddRUxHwuo9mE4KhOjfgbo+goGAyHgNzCz6a5/DqcKkx3o/WmsbP8Vpo+LJiSort4/HuiI2No9tvu53i5K878LXPmrWS+euXCrZm/KeVpvFvvBZaWlp96t69u+VnahX4NGmvXr3pvvvvk793uh3YgHDvuacfhYWF2dxH+Yf4EJm77TQafyBoND6L7ykwLKY6D+uD58rwHeWsrGz7awIqVw6l1Ppp9JdBg2jgE49TdEw1SkpOoeDgIP5OML7drD7hBKE2btyYBg18gv7854f4orVZYFpkmopA8Z5HY0PjaGEu5ubSV2vX0MYNm/nD5wWigGpJF7B9hw7UqWOGEcsGPkb+1dqvaOOmjfzBb/TdaiTE0x1t2lCXLl2MWBpNxaP4D36q2NrQaDQeU/w+GgTmRmSqf2UJVpm++VtcjWs0/orXrzKwRKUEIWLeSpDO4a7iaTQVBqL/BzleoA7NiQ76AAAAAElFTkSuQmCC;" vertex="1" parent="1">
          <mxGeometry x="110" y="344" width="218" height="99" as="geometry" />
        </mxCell>
        <mxCell id="VpvmrexH3NGM5sz_Zpp6-13" value="&lt;font style=&quot;font-size: 20px;&quot;&gt;product backlog&lt;/font&gt;" style="text;html=1;strokeColor=none;fillColor=none;align=center;verticalAlign=middle;whiteSpace=wrap;rounded=0;" vertex="1" parent="1">
          <mxGeometry x="60" y="600" width="230" height="35" as="geometry" />
        </mxCell>
        <mxCell id="VpvmrexH3NGM5sz_Zpp6-14" value="" style="shape=image;verticalLabelPosition=bottom;labelBackgroundColor=default;verticalAlign=top;aspect=fixed;imageAspect=0;image=data:image/png,iVBORw0KGgoAAAANSUhEUgAAAGUAAABnCAYAAAAZtIzEAAAAAXNSR0IArs4c6QAAAARnQU1BAACxjwv8YQUAAAAJcEhZcwAADsMAAA7DAcdvqGQAAA5FSURBVHhe7V1rcFRFFj6ZvBGQIMFHAohoEV+IJaA8E5IQ0CgLbhmx+COYskr3B4tlQAoJKr5lyapFfkAVbgkWuiXRjRIVElQUxIqvFRUIuKAQEEUIr0Be3O3vTPek586dYQYmw5078yVd3fdMz723z+lzTp/unnsTDAGKo+sBLie4i15lC7hk3uVg2ZvFj2MzzYlA07W+76UHFu2PiFBwEwnoGrJ34JhvDMcBeoxTwO13dTZUL3sJSCKi5otvTglHXTUGhBIqImu+ACUE5HGBWCIimqJryIkTJ2jv3r10/PhxSkiIPamc6ThDg3MG08UXX+y//RBKJHDmzBnON27caOTk5KAjxGyqqqoy2tvbPTwxIyyawqcQ/yx58Y9jaIZw55zjX2HDhg00e/Zs2rZtGw0cOJAuuuiiTtPmJKBJWrvBm59//pmOHTtG1dXVdMcdd1BiYqL81AQIJVxgyUvhm8uqVwihGIMHDzZGjx5tNDQ0MC1WMHnyZIjKeO+994y21jZJ9UXYHL04l0cr9DKg2862tjYSqsu05uZmSXUwNCOAtiuoYbHouJzrCK+jN6msFVasWEGzZs2i3HG59Mwzz9BVg67yulknAIxWTO/RowclJydz+c7iYlpbU0NCU+j222/3a77CKpSOjg46fOQItbScdmuKCd27d6elS5eyMPr160e33XYbpaWlkTBtskb0Q7ETlgBl+M9rr72Wj+FHPvjgAxbKpImTKCk5ieuaEVah7N9/gObOnUNffvklJSX5XtDlctGhQ4fo999/99y8E4GOdvr0aS5DCBMnTmShKE05m6MPq1B+/fVXKikpYaH07NmTUlNTfZgPwSA5DYi/kO666y5m+D8rKmhHQwN99NFHNKFwApuzC6Ipe/bsoXvvvZd27GigioolJEZYwpS1yE+dC5jfyspKWrZsGT399NM0f/58mlhUROvWr6d169ZRQX4BuRJdHqEoTXEluLzmwTyAUEKGHOqa8d133xk33nijkZWVZWzevFlSYwPl5eXo3MYTTzzBx/n5+XwshOIJB4RzZxqGxAge/SGgHcGoqLWllXOv1O57DOzcuZN9hhAM9erVi2le9aI4tbb68kENUJCHc7DiMV9qGKcP52APm4428UhKxRqorso6UlJSSGgHLV++nPr3708zZszgHDGJk6DaD794/fXXU05ODgtk4cKFbLqEpnC5oKCAZy9gvgoLC/k7uk8JNCT2mK8zHb426ZprrmF1CyWJCxkJCS7Lz5yWFi1axHwSoYDx+OOPMy0c5iugox8yZAht3bpVOKp8yujdm+MQwCWkDsmLS/mMrhRQh+/A/+mjDmgzePDTjz/S/3bv5nhr7ty5XacpVoDTRpXv//u9pMQBzJs3T1iDBOO5557j43BrCjt6q/kXHa1trZyj3tnqOhF6m+HwlZ9E7+8KsFAsx8oWQL1g6zoJ5jYrYYhOzXm44bzQWkHwKxitPh/N71JNiXroAlBlwS/0cJTNjNePdS0IVE+ho6MzHolrSiBIAXjKogcrhoLuY36ksBT0ujrM9SDwxESXRxhxTQkCYBYzDIIxMVgH6iiGYyMDlq05F3QMb1XqaO8Qw34tWpenjPuUIHHy5En69ttvaePGjbR//36OJyyniETCZ9hNs+mLzVRbV0u1tbVUt6HOndfVcUL5rX+/xTHHm6vflFfxRlxTAgBrF8uWL6dbbrmF8vLyKCsri9dzUtNSefrHnLASiKWFsWPG8FoHUlFRkVcCbfr06fTCCy/Qmqo18kqdpq4r4RihJAshYKlg6NChTFPrNv4ShAbhTZgwgUSgx6lQROGqPH78eJo0aRItWrSI7pt2H58TYLMnzVZXmS+c2C9URP/VV19JShwtLS3GnDlzOKJ//vnnmRbuiN566SsKgTm6V199lXceYrOCaBunYOw+6mBnzaZNm3yWsTE/NWrUKHrqqackhTuyLHURIBl/iBZNOXTokPHII4/wvYY7YdZ76tSp8kqGcfrUaY+mdNXcV1CzxEIo7ETtCsxF7du3j9dzcL9qSw+aFoymoF63bt1o5MiRnplwAHT4n0v69KGbBC8AzH0tWLCAXnrpJRJCuXCzxNHiU9Aj0QPb29q59+rlsyXVm83AOhM+U+tNuqZ0lU9xxOjr1KlT9Msvv1BTUxP3vsSkRO7hejlQwoaPzz//nH0KkipD83bu2sm9XAWjgYLScMERQvnwww/phhtuoEsvvZTS09NDTtgsh2EwYhwkDIeRw+zAVHng19CHF1EvFGzsww7+vn37crSOmCXUhJ3/t956K40YPpyGDRvGOXwo0qBBg/g6HDQKJYkHj0EgMzOTysrK6IcffuCpFrUpLpSEQQKmVWpr6+jjjz+mOuGgP/nkE1q/fj09+eSTfB3bmS/VOziPkAoHC9h7jLZghjCCQq8PNeF72Gqa3i2dcz2pkVwkEZRQvHqJ7Ch2FND5IBJmKVics/mCgMTozTGC4fZYCOZCCOu8fIquOU6Asgg6rGhdjah39E5EyNMsu3fvpk8//ZSONh29IL0okkBgOfDKgVR8Z7Gk2Giapb6+XlI6pw/EqMTRKSkpyRAjOqOkpES23I1ITN2HrCkYxyOCxk+P0ZOcDPTkm4bcRA+UPiApdpyQFAIXUbMhAi5DCCUmUnNzs7vtEpHQlJC6uqjPi0AIuLCQFAsJQSnaHUmEtPIIx46d5qtXr+YpDaebL3RAmB78ojmiYH3xA6v1lAcffJBpsZKKiopky92wpaPHrOzRo0c7N6g5AIjaLYf3gjM9evagK664QhJsOCRWEo9l2FJTGvc10hdbvuAhMaTvZMBn9svuR/kF+ZJi0zX64uJiIy0tzejevbvjU0ZGhjF9+nTZcjdsqSnvvvsuSxuLQ04bfYEVuvajJ9889Gaa9fdZkhIZTQlZKLgpmC7RO/jYyQAjsfdYPRMAsJ35UmoYa9DbHQnzFVrwKKT98ssvswnDth4nmy+UETyOHTuWnn32WaZFDCwaP7By9DNnzmRarCT0eB22dPR4OOWBAwcc6VPACqUpQIL465PZh6677jpJifsU2yDSPuWcplm++eYb/nma04fEKF9+2eU0ctRISbHpkLi0tJRPam6AE6C3CeXk5GT+mR0eRqpgG6HU19fzdk5g5cqV9P777ztq6t5fBwPTRowYQfPmzZMUm2oK9t7+8ccffHO4kFVjog0+QhEcYZorgdLT0umyyy+TH8QdvW2gt9uWjv5fr73GG59PtbTwM72cALDArPGgJSUm0fARw+nRRx+VVBtqCvC3hx9mWqyk3Nxc2XI3bKkpW7/fSjsadnh8ipMAVqBNKsdABr+1HzNmjKxhQ01Bj4hF2N6n7N27j3bt2uV+nr2QPpITAbZAUzL7ZNLQm91PsQAioSkhC2VOWRn9p7qab85pEb0OsAXBY2FBIS2t7NxiFAmhhMzVQVdfzW8Iys7OdlyC/zAf976kt2x55BCcptQLTRnm1pQTx09Q4/5Gfoa900wXWKG3CWXskhwwYICk2MnR18eDRwVbOvpVq1bR119/zespTtMUM9CT8fv8mTNnSooNNQWY3UUPprFrGjdunGy5G/bRFM2n4Pfqn332mSPXU3SALejJV4uBzeTJkyXVhsGjbltjCXq7belTfvvtN35CA3qME30K2KHahTyjVwbhtbIKkdCUkJ+M9/rrK6mqao0jtxgBSijIscUoLzePFv9jsfw0MgiOq5oupaWlsjBw005MgMoBQZWlyCFkR49namGbEVYglZpHPRQH9OYIGlYee2f0jrj5Qq/wi3jw6IY9Hb2mKTVra2jb9u2id7g342HDmlcPi2KAFUr7YbYSXVEwJAZKS0uZFivpfIPHuro6PgaEUJgW9iExHgEC6R87foxfHulUgC0YfVlNswgB0OLFi4PSlKqqKsrNzeVlgLvv/ivV1q4Pc/Bo8Ya7WIDZp5SVlQXWFFE9Ly+Pj6Ed+EX1Qw89ZGRlZTOturo6vJpy+PBhOnjwILW1trntr0P8CQBWKJ+igBcVmKfuA2kKHm9YvqCcpkydwm+owJPBhQD4u3hQAupCe7B4hifBWiFkoVRUVFBNTY0j11N0gC3YYjR6zGh+CYEC2g1HfzbztWbNGmpsbOQ+KxTH/WUB1P3LlCl0Zf8B/D5hK4QsFPQSXBBxitMierBCdTSUfZaDBadYKOVuoeDHRI899pivppSXu+ufI0IWyp9//kk//fgTnWw+6WmAEzRGsUEXCsp9M/u6N07gY/GRbr6shMKaUr6Q6/pAnEPNEAQMJSAUf4jPEruBdnPbxb8+JF6yZImsYRhCQ5hXcPSWfMLXFV0vWyBkTdmyZQvt2b2H31XlBA3RAVagTSrHX3a/bK/NeDBfME8vvvgiTZs2jaYI/yBGX/T222/TO++84/EpXpAaorSDz48CYMVCCMUfrILH+++fwbRYSeZtq+oFBFZ1kebPny9rdkJpha4dKPuEGPIwZE1Zu3Yt9wr1sH+nAj2bN3gPt97gDU1BYIlXn4OFSBj43HPPPVRSUuIWUYiGBOdg6wOh+EPcp7iht1v3Ka+88oqk+sKjBefAspDGtB47KCG+L0sOgWqOyPW2uXuvu6zT8Ws2gGn4Vw+WFhk/qgq0c+BRUEJRJ1bDOQA0s5CiHXo7WRAaPMy1eMwZ+MD8kM8M85xHowVEJ1sZQQklJTWFc/1GuRzE9aIJioFmgQDqs5S0FJ+g2cx8LgtGByUQAe7smmCCcvRvvPEGl/F+Ega+gesh+f12lAHtAK+Rq/aZIeht7W1UWVnJP8jF8zQRPKrPPN8R5aC1RAKmT9UPKBS8gWf79u38jhK8tkJVRU8K8DVHA+1uOnKETjY3cwQvhsBuusZUvRwM9PoHDx6k/wOI0t/SQmDCRAAAAABJRU5ErkJggg==;" vertex="1" parent="1">
          <mxGeometry x="110" y="490" width="101" height="103" as="geometry" />
        </mxCell>
        <mxCell id="VpvmrexH3NGM5sz_Zpp6-16" value="" style="endArrow=classic;html=1;rounded=0;" edge="1" parent="1">
          <mxGeometry width="50" height="50" relative="1" as="geometry">
            <mxPoint x="290" y="602" as="sourcePoint" />
            <mxPoint x="390" y="602" as="targetPoint" />
          </mxGeometry>
        </mxCell>
        <mxCell id="VpvmrexH3NGM5sz_Zpp6-17" value="" style="endArrow=classic;html=1;rounded=0;" edge="1" parent="1">
          <mxGeometry width="50" height="50" relative="1" as="geometry">
            <mxPoint x="290" y="635" as="sourcePoint" />
            <mxPoint x="390" y="635" as="targetPoint" />
            <Array as="points">
              <mxPoint x="320" y="635" />
            </Array>
          </mxGeometry>
        </mxCell>
        <mxCell id="VpvmrexH3NGM5sz_Zpp6-19" value="" style="shape=image;verticalLabelPosition=bottom;labelBackgroundColor=default;verticalAlign=top;aspect=fixed;imageAspect=0;image=data:image/png,iVBORw0KGgoAAAANSUhEUgAAAFEAAABUCAYAAAD6QtuFAAAAAXNSR0IArs4c6QAAAARnQU1BAACxjwv8YQUAAAAJcEhZcwAADsMAAA7DAcdvqGQAAA5wSURBVHhe7Vx9cJTFGX/uLskdSYB88ZFcEvIFGCxliNiirVMUpjDKHwKFyqCM7YzjMM50dGrHmXam0pGhSi2o/GFnOrYj/iFoK4JVqXUqVFEBSWJIIE5CAoSAJISEhOSS+3q7v+fdvbx5ueTe5C4kZ/JL3tzusx+3+9tnd5/ddzc2TYAmERXs8nNQaMHR5TgoHk3zi0+N3VaBUgXR/uNABcZcE0GgzeYQLpsuEACZ8OExulFUm/jRZFT5MeaIqImjDc2WIP7qdLBWCs23o1lZO4McwgTisekE2kQY9Jbji2esEVETUSmbXa+k0R0rgAi0pPFTEaegZCDWhlg2ve01LSC0GCFjqwsRvx2kqXEx1gQCqgA28R1MFhpKfB3c6OpaMMhxAn0e6iwvp+6GsxQI+JFEDgNjSyBgqQThyIvlhAPCSHwHCsONRn7hFl0ZXd1uJ1/7Vfpmw0Zq+MFddGrJIrqy/22kGDew3IyKtNHQSi6E0DrxR9dGQZ6uf0Rt7+6nUytWkffQh+SanU6pvgB1vfIqdVdUcPh4gCUSOzo6qOtGF7tHo0sDrHVixMOkATJRsLa//Z0qf/0baiuvIEdaKtlcSeTISiNv8wXytbQi2biAJRPnwoULNH/+fFq1ahWteXANORwOajzXyCaHgl10u1OnTtHVq1dZbhcDPttxEkhTU1NDV65coaAY54xA/E2bNtGOHTsoJyeHZ1w01RerV9PJD96nfHJQ4cw0SpzmpMCVDvJPmUpzXt9DaSt/Goo7lrBsJxYVFtKP77mHCZ06dSotWrSIiVNANu4cNxUUFjBhZgQCAXK73VQo8klMTGQZz/aYXcWvXcy4CYkJul/Ae76RDm56iBq/OE7ZSU6aJ+SpYsYJevoocdVKmrPrJXLNv43jjjUsk/joo4/SwoULacuWLeSwO8jusIcqDIAQyKAa5i7PZAkZxzeF618Ou0/kadApb2MDvfvwQ9T05QmyOR1U5LdTVsBGgaCXfvjWPnr80CHaI7r7ggULKC8vj7xeL2VmZlJJSQk3MrQdDTd37lwqLi6mvr4+KigooPz8fG5wY9mjhWUSd+3aRUePHqU333wzpElmKLIGm3yM4cawkGmDiklxoPVb+vxnG+jUp59Sj8tOM7VEmhcIUnJaOuW/8QYlr1xBgd4+qq39hi41N1NSUhI1NTVxT/H7/dwb2tvbqbGxkW7cuMGfa9asoRf/9CI5EhyxJRIkRoQY3E6Wl2sZGRmaaFEpDI9gQEQeAubwgHyUNBj0iTiQaFrNLzZp+12J2nuOJO2E06lVieLW//IRrbvpPIcjldA4TZCmCa3TfD6f1tfbpz+inHg8Hg/HfO2117THHntMq6muYX8sYWl2hnaULV7M3QOTh0gX0jYF5Tdrn4I5XPlRADwqFc/SNn3iKXluOxUt/RG5Al5qE90xcMedNOvxLZScm8/h6ENYS0PrMD4nJCRQkjNJf4RmJiUmkSvJxXHRzdHla07XsD+WsEaixD1iYvnss8+YTCNZIER108FgJlf5QZdKp9yCFvYnuvNp/j/fprL/fkx3HvoXlR54h1LvXMrjKB50R9GcuscAbmSd4VANMS6mpKRQY0OjLoghhkXismXLmESziaJgJkphSHKxtJOlYI0UeQQNY1ViRhal/2QZpQuD2+nOFXwJ4sAb/xlIpFFmHu9gGaSmpo6NJhoJWHbvvXTkyJGbSByMPIWhwtF9jbMyoAoFqU6sg2zSbAI3yA52qErGhOHXIAsHdGl0/XPnzklJbBCRRCMBd5SV0bVr1/QWj0PMmzePx0oY/UAs6tEsLIOIJCoojYxHAlWZc3NzefKBuRMrdHZ2WicxUpcdz1DjIyYXdGdYGIB53BwJMNZaJtGIoSaK8Q6Mi8KOpLa2NimJDlgdjYjEeNZKLBH9AT9VV1ezP9rhCdpsicR41jwzCgsKadrUaXS24Sz7Y9GlLZEYz5oHQNuUxs2/bT45XU6qrtI1MRYYUXeON0DbWOMEjy6Xi7Kysuj8hfPU29srY0SHCUEiQxDIKxsBbImlpqRSw9kG9keLiUOiUERsVgAlxSWUkpoSMrqjxYTUxLz8PDFZBqmqqor90WJCaaIC3uNkinGxrr5OSqLDxCARCigeozlTVFTEqxesfaPFxCAR3Cn+9B7NS0CsNr7++mtdEAW++yRKLQxBkonNCGhmVZW+jo4GlkiM6xWLUQsNwKtb7HTX1tZKiQmiylaXhJZIRIsZiWR3HPMK4J1MUVExb2W1tLRIqQGCeOMYOhSsdWdzhnBay398AQ1vaPzi4iJewZSXl7N/pJsR1sdEI4cgNN40UZQXdiLbirLsOBqDJWBlpT65DFAURLNAKm/KNnX1SW94hBsPWRZvmijKC5KYKFl2LP9mzMiiY8e+1AVGyPiRgLNF9o9bAuTp1Q9NhkO4HZzklGTpin/gTNGUKclUX18vJcMDhgPb86e7tbWzbDQ3Y4oUDwRU2tgicD/xxBP8riLegTrU19Xx278nn3qKzxsNFz6fj2x/FCQumUa0wj2IdqE3G5Rx27ZtOvsWVH08QI1rg5UXBxFA5t13301Lly6V0uHBtr2mW1s4VaPVeSlSNDRwOAhfjHHxVm3W4oA7WtImD7wD4WX9hIVG8ggkAjB3nE4nv04dCZjE7wsSH4hAorlbT6Iflk0c7MUFpZFtnvrZL0Vwh53RDWnM6YcCYvITSiIl4ld9TV93FzXt3k2nH1xHF//yKvk6O/SAW4Rh2YmsiPjEHwPYL0Vwc3cyEaXSQG5OPxQQk2OHkoQkXB5PfR01/eE5atm+nXoOvEOXnvktXX3vfQ6/VbBMIldededQhSSkn4mDWzxGopQ8RGB/UERwWgEkgYv9cAjBjQ8/oDO/epJa//pXcvZ0Uqo7kxKEFvYdO0Y+Tw9H0/+MLuy9AY284Q95DYAV7TFqG5z9BMi0svLDgkijr9X789Lv9gXp9D/eouOCyJ4bnZSU4iJKnULOKQ6ye7op0KXfdlD3AEcT9rV5Trojyym9Q8BUGNwSuAkyjtJYs+aOZDZHGk4n8tJT6/f9PCdPUnPtabomPB6bg/xYeV3rpF5PgIIzZlJiRgbH09OMLiKe2UZwuFl5586dVFFRQWVlZbzBCVsLL368fd5QyZEOR+BAeHPzJQoEYZYMHzjhepew4zY/8jBlZ+ewrOPgQfrP756hc7W1NN2RQEUBG033+8me7ab8l/9MM9Zv4Hi3ApEPviM0THNue24bvfzKy3T//fdTeno6E9bT08MLethdKhmePkHC9OnTeTs+0tfdDBv5fb10W+kCWr58BX8XcP3Tw3T86afpm69OUpfLTsVeBxX4fTR19QNUuGsnuUrmcbxbAcu3B8w4KbrT+vXrad++fezHwU9UMC0tLXS/RWUNQ3baNLEsiiF8ne104ucbqe7QvykxKZFyxdjuCvgpd8c26lj9IO3d+zadOV1Dc/LnUHZONgXFAgGXk3DzYfbs2VzWDNHlS0tL9bIpFpTCKC2wgBF3Z1xzyMvNpeMnTvAhodHEgPoZKnf5wH6q2/p76qusJqz80x5YTsUvvkRXM2bSoQMH9fM2svycRHxixYX1LjKC3bt27VpauXIlQgf0Ek5xc7XDwnJ3VmQaSV0lvnz9hg20efNm/W6LqqChonBjDy9cQwwHoazhMOR3/ej/qEUQZk9JplmCkJTvLRrwXR6Ph65fv84XlfCDO4o47dva0kqvv7GHCgsKaLuwMUPlVAVXWRjrMhhA4lDAPRHzp3K/8PwL2saNGzXRuuxX8psgxDeFDRLVDHM0vvPC+SFMDw14unWBAP6yM2i8HRMez27dqq1bt076kE7ENycZOguG9WWfbF1jK9+3/D46fPjwgGWeyFO6DG6RRLWwkhnjWQNf0OBcuAicndAdLUB2V7IuFFnKbxGPGpdFOvNXST/uKyJFQ4N+Jgd1M+58M/QMB0Vra2vkFYsizVh5lgnv4sWLqUsYtQ2NDf3ywSCDQCbnFaFwCsZoXAJZQZZDB/j2vb6ORpAerAzyQSDDsLOdmZkhJqAzukBgyDqEwbeXL1tf9gFG7UGLwWRZsWIFHT5ymG05wFiIcA2ACoBIq4VV34gb0Bozw7rCgI9zQbYhT1AQqGJALoQsl0CQDC4S9i126SsqTRfQEV9l0Z9VWGTn5FgnUVXa/LlkyRJqvtg86AWhsDBWahhAsgHkG52ishxueAYwFga5bjdlZmRS7ZlB3j1bANvF0m0JAyogAW2M9KrATPxwoFLgUyW/KRcO1J0YC0MzLFfPVMUBcYmv7np9Xrp06ZKUSCAO+DfEHQzDIjEcjF08HgEScRKionzk/1MiahLjHTiTgxXVgINNSi+UNkbAhCcRR+xmzJhB1dUjP9g04UnEOn/OnDl0o7ubl4QMoYFQQKum2IQnEdDtxUzeVAlhGGP9JIkC0ETsPlVWVuoCyZ9Va2KSRAGcVcS2mDodhi4MAq1aHpMkCsDOxR7jZbGE6xZjo8KkJg4TuFGAjdqRXMuYJFECRvesmTPpzBm5GWF9XpkkUQEz9HQxuXx14iv2929zRMYkiRK4jjFz1iw6d17/Jxs8HlrkcZJEA4qLivmtJF4FA1a00dPjmSQRUKZMXl4ub20pU8fK7Hyx+WLsSIzb3RxDsTG5pGek0/Fjx6UkMmAexU4Tw3EYD7zCsJaLZXTlnOwcOttQr5/ksADsAsWMxAHnbCR5caOdKLos/oLSUsp159LnX3yuCyIAr4pjQiJUGue4Q5AFulXHkWOJ0ttvpxy3mz755BMpiYwRHyNRwItvWPn4n7DY3Iw3qOpjEsGDF26v79lDHe3t9NFHH3FYJERN4t69e2n37t38H5C/C1Bk4i3ms1u3UpoYJyMhahInESNjm09A4Fe9QZ9giAmJmECg0Ooz7gFdGEY9JrtzDGDr6emZJDEqEP0fNa/rdq7drEQAAAAASUVORK5CYII=;" vertex="1" parent="1">
          <mxGeometry x="414" y="529" width="81" height="84" as="geometry" />
        </mxCell>
        <mxCell id="VpvmrexH3NGM5sz_Zpp6-20" value="&lt;font style=&quot;font-size: 20px;&quot;&gt;sprint backlog&lt;/font&gt;" style="text;html=1;strokeColor=none;fillColor=none;align=center;verticalAlign=middle;whiteSpace=wrap;rounded=0;" vertex="1" parent="1">
          <mxGeometry x="380" y="620" width="230" height="35" as="geometry" />
        </mxCell>
        <mxCell id="VpvmrexH3NGM5sz_Zpp6-23" value="" style="shape=image;verticalLabelPosition=bottom;labelBackgroundColor=default;verticalAlign=top;aspect=fixed;imageAspect=0;image=data:image/png,iVBORw0KGgoAAAANSUhEUgAAAKwAAACSCAYAAADYQSEFAAAAAXNSR0IArs4c6QAAAARnQU1BAACxjwv8YQUAAAAJcEhZcwAADsMAAA7DAcdvqGQAACy+SURBVHhe7Z0HfBXF+vcfIgSQ3ntvoQgIhF5EUEFBpCpeFfu9YsGGfrz3VUSl2C9eC+rFCyjlr4jSkV5UeuhIBwkdEkB6KPPO7zkzmzmbPS05JzmB/YbhbJ2d8ttnZ2ZnZ3IICV1LyNgI+ZcjRw61IS3nzp2jpUuX0pw5c2jZsmV0/PhxOnHiBJ08eZIuX76sjoo+cufOTYUKFaKiRYtSyZIl6ZZbbqFmTZtRx9s6UmxsrDrKA7I1h/zDv2uJDAtWXJUJExN8qkQ0If2IFdedPn06/fTTT7Ry5Uo6c+YMHTt2jMWbXSlYsCAVLlyYRdy+fXvqcGsHurvb3WqvbzgP/NzQ0UxYLGyooo0IPsS6Qopz4oQJLNLExEQ6cuQIpaSkqL3XDnnz5qXixYtTlSpVqHXr1vTAAw9Q7dq11d5rh4xbWMNi8nJm37kOQj1/7jz9OPlHtqirV6+mgwcP0vnz59Xea58CBQpQuXLlqH79BtS7Vy/q1buX2pP9iZiF9SVevZ1/ldDDBSzo+HHjad68ubR5yxa2plevXlV7rz+QzhBug/r16Y5OnejBBx/kIoRJJPIhkoSn0gUf7BF22qbQl8yINeaEVufvS9xH34z6hmbMmEE7d+7kylO4qVGjBpcV8chFBadBgwZcQcuZMyfVrFmT8uXLZ8VLhw2/sO6HDh2y1hMSEvh3+/btXI7es2cPnxNpUFyoVasW9ejRgx555BEqUqQIb9dhzS6ER7BhgBPO152uQ2jbBwv6+eef06xZs2jr1q10+vRptSf95MqVixo1akRxcXHykVqfSpcuzQ4ZDKHicRsTE8M1dZ3ZN954ozo7LbDwZnEELRLg1KlTdOnSJUpKSmJBQ8A7duygtWvX8k0XKYoVK8Zl23vuuYf69+/PZV87fvMiHMj8DNSS44uoEWwoQJh49E/8v4lcRoWlSi8QYZMmTVikDRs2ZGsJcRYpXIRFmffGtBkabpAFEPDJEycpKTmJnxB//PEHi1e7cIM4Nm/WXBYTHqDevftQzlw5ebsWKwvKl2iVYnAMCCg8LVDtL47HqaHrNboEqxPLiogOmRExtJ1+9eVXtGjxIrZO6QEWEc1A7dq1o+bNm7MwS5QoQcWli4mSxyOsL5rd4GCBf/vtN247Xrx4sToiPJQpU4Zu63gbPf3sM9Q0Pp63aUkEEqJD9gTEy2+5qAXMea+u52sZRJ2F5eDIfxwJFRmwd+9efvz/8MMPvBwqN9xwA3Xu3Jnatm1LzZo144wqX7684yNRY0+srAQW+MCBA1wmXrJkCc2ePZtWrVql9mYMpE316tWpX79+9MQTT3B514TTwTQkGq2cYJPIEKgF/HDyV24z018vR2eRwIjYlStXaNy4cfTNN99wW2qozVNVKlemXr17s1BRLoVI8+TJo/YGwCkxI8zVq0KWkZFbcsXHtf/66y+urKGoMHfuXJo1cyadCENFEy0IzZo2pWefe47uuusutdVAKyXUNDHy08LmlylOCzMN9DIEm+VcVc7G/v37xQsvvihKlSqF4IbkWrVqJT744AOxfNkyceLECeWjM7JipJZScdoWKfS18Mvuive1/YVFPm3EwgULxcCBA0XxYsUc0yJUV7lSJfH2228LadXVVYywISzpTRqcquOCZVs8wUnjmk5kvWBVJKzEUMycOUt06tRJ5M6d2zFRfbn2t9wivvjiC7Fx40Zx8eJF5ZsH+zU09u28rFavOCRq2NGXwGWNa1sEEYTk5GSxYMECMWzYMNGgfn3HtAnFFSpUSPTq1VusWrlKXcETNjOdggan2E6z+yOfGGLAgAHi2Wef82yw7dfHR4Vg+UcF6Ny5c+KTT0aIGjVqOCakL9eiRQvxxedfiC2bN0uRXWG/7PA1vNMhFTMcxjH2hI04oV7OdvyFCxfEmjVrxKuvvipKlijhmFahuJtvbiTGjx8vZCWQ/bfSJ4Ph1Bw/fpyfhLJeIfLmySu6d++u9thQ50dHkUCxY8cO0b9/f1GkSBHHxHNyVatWFUOHDhMbNmwILK5gEjnUjIhSkpNPsMVFeubLl88x7YJ1ZcuWFYMHDxbJSckez+1phHXT+cDMHzwRvvrqKyHLykKWnfk6sm4hXnrpZXWEM1Ej2BUrVohu3boJWWNNk2BOrmDBguLvf/+7WDB/gbhw/oLyRSWKTpcACXg9cPToUfHTTz+xMJzSMVhXoEAB8fjjj4tt27YpnyVOaRsgvVHEmvzjZFnc6JWmboIb65VXXlVHOhMVgkV5FY90M/B2J2uQ1nK7du3Ed+O+E8eOHVM+yHQyrauZaNepYJEeZpps375dvPfee6JixYpe6RqKgzHp1KmzWL16tfJVpbs9jbHukO4LFy4UD/frJ6pVq+bo/4033igt7Evq6FTMeGS5YEePHi3i4uIcI2B3sKovvPCi2LLlD3V2AHwk3LWKl0gd4o1y6KyZM0Vvad2CfZI5uTatW4u5c+cqXyXmteSyXcTLfl8mBr48UNStW9fRP+2KFy/O5dk0GH5lqWA/l7X5YJusGjRoIL755huvJiorYbQz0ev27dcgXiKVzlpXYN3chqYwNFtBIE5pHYyrU6eOmDx5svJRYbv2rl27uOzbsGFDERMT4+iP6SpUqMAVPMY7ChZZJlg0PZUuXdox4HC6CIDfnj17it9//12dacsQvWj88n7jkGseHWe9bG+KM/crzp8/LyZOnMiGwJ72wbpatWqJybJ8bOfgwYPio48+Eu3bt+fHvNO5Tq5SpUri+++/Zz8QXnuYQZYIduTIkUGJFbVHNIgnJiaqMyUq8Z0iY+Fn1zWLSheOu1P8faTJ8uUrRPfuPYKygE6ORassLSp4eAqiaQqVNKfj/bkKFSuICRMmsF+MCrOZ15ku2ECWVbvKlSqLESNGeL1tYWTYLcHqeODXXL7OsDJU/piZa+Fru2L37t3caJ/e5q/69euL119/XTz88MOiRAbafmvWrMlNcWkwgp6pgh355ZdBibVJfDzftSkpKepMAzPd9TJ+zeXrDac0MZHbAgkZ7aKDBg0SxcL0ejc97uabb/ZuNnMgrIL1dxePGzdOlCtXzjGgpmvevLlYsnSpOsslM9D5durkKTHqv6NE1arOzU6Rdo0aNeKKmj/CIlhLqMYdazJ79i+iTu3ajoE0nSvW6GC8LEdWqVLVMY8i6WBh0V7M+LB94RUs0NpV29atWyeaNm3qGEDTsViXLOFzGJyunUumYObj+PGZL1q8PNLNlhwWh7yPSBlWRxy1xj59+gRspG5ms6xWwuHHIdAuEUKmtSnaKVOnitpBPBnD5Tp27KiurMLhkPcx8sCMgUuZv5IcquP1u+++S1OmTOFlX0ix0gfvv09tWrf2bJD+4HwLW59elwgh012aLyvtMSIOPhfy94FluLHy3dBSGpRw041pDc27E81XeJWKS9idbmdFo/WixYvVGba7SvuX6qVLhDDz7crlK2KpfNq98MIL3JHbnneRdB06dPAEAsHRzkZ4WwnUGxZ0jvDVwUE7vIb7+eef+XgLHUD5ayaiS+awatUq8fZbb4m6des55lmkXe/efVRIfOd/2Muw6JDbpUsXv29OYHm/HPmluJTi6RRsYQjW6e5y8YM9vUJIv61bt4qP//1xUJXjSDlPTy0ffWGNuIRdsHjjkTdvXsdAafevf/4r7RsslwxhWST9Y7dQDgI+cOCA+O9//8ufIuliWla5/Pnzi9dee80TMHvQjbiEVbDo71i5cmXHAGmHVoNDBw/x8e5jP/z4SlNz+8EDB7njy0MPPSRy5crlmE+Z7Tydt1/xBNCPLMImWHzwd8cddzgGRjt0lMD3RsAVa5gJIjlPnjwp5s+bLx599NEMfzYTbofPovABZSDCJli0Cuhvc5wceu+MHTvW+pjNJbzAANiNgNzCvykXU7h75isDXxFly5RxzJ+sdvgSwuoL64SKWlgEiw7BgT4tfvHFF8WJZNv4AK6RDQ8qHS3BGum6cuVK7kRdrVp1x3yJFoei5KRJk1So06LjlvEXB5LPPvuMdvgZca9x48b08MMPU+EihT3BU8jbRS25ZAROR/mPG955MTVdN27cSL/88gvtT9yntkQnUoskRWkt20l9qZBBUCb1d/ei9jlxwsQ0dz/WrW0uGUanpT2dAQapePfdd0XXrl1F+SB6zGWFQ7v9tKnTOLw8eAnCb8RBE5xgHU7UPPDAA35rmn379uXmEw0nqPLPXHYJL07CPXPmjBgzerS4//77uQKckQ8Rw+3QCTwhYa0KqQy2FK1THIISrHWijbVr1/rtkF2yVEmxeFHqq1eX6EEWE8QzzzzDveTS8zlLuF18fDw/CexAe6b+MlQk+Nvf/iZiY2MdAwD32j9fEydPnORj9UV9id8la8BbriHvvCNu69hRlMnCFoQmTZqInTt3cphMjdj1Erpg1fmbN2/2+4k2vu1BDZVxNRo1sAAc8gOfyOADwnvvvZe/rcqZM6djvkbKYWytA/tTi46+CF6wKpJa8c8++6zfV7D//Oc/0zRj6XN9JZpLhLHloS/mz58vnnrqKe5b4KvHXbjdrbfeqq5u4BDMoAVriiwpKUnehbUcLwyHD9nQ80cTKIFcMoc0+RAgW/CIfkcWFzC+QKSLCxgCyY5XxUsRdDss2sHk8bz8w/c/0NGjR3jZiSf//iRVr1ZdraW2ofH5Hi+8ll0yB6stU4L01/lpYuZLtWrV6F//+hf9/PPPNHToUOrZsycPLX/DDTd4DggjUp5qSYVBgrnfeCIPM5xyJSjM0URat27js3cP3lGbg+A64Vrc7IN9FBl8d4dOMxgPLZytC1273q2u4E36Laya6XD1mjW0bftWb9UbdLunG5UrX06tOWPe6S6ZD+edc/Z57cOyPa/atGlDY8aMYav7wvPPU+tWrXgGnozkaa6cOal8OWfN2P0N/tWsigQmGj575qxnxYF7+9xHpcuU9pkgLlkPi8CHvsx9/o7DrIqD33qLpk6dRkOHDKG7776bKlWqxBPzhUqevHmpWPFiak2Ce8aHQQy5L8GihQt9Ttlet249qlO7Npc7fEXUJftht7rmcpGiRejxJ55gizt6zGi6//77uZxbsGABz0FBAH/ko1+twXuHGWUUwQtWnr8mIYES9+9XG9LSs2cPKl7Ce44nl+yPL6trF9Ut7W6h0aNHc2ebAQOepxYtWlCxYsV5qlN/YL9pmX2JFYRkYX/4/nu/02SifGOfLdol+2NaVZ/gEBwnqVq1Kr0liwsQ7vBhw+jOO+/kWcUxTaoT+fPnl2XY8mrNNwJzmKnloFi+bDlduHBBrXlTp05dqlK5ilrzeO5ybaCtKgSpRQm8hIxDDMuIfQUKFJDFhcdp2rRpNGHiROrbty9VrlyZBWqCif6sMiy8NK5hgop/0ILFtJF/bP3Dq6xh0qtXanEAF/Rn1l2yJ1aeKj1pIQPkuSk0e/5joBQUFzDt6NNPPy3rO3V5jl+AeXW1rszyq93ohWRhMTHvpZRLai0tbdu2o0KFCvEyLogL64i5XDuYIrXQApZ/vqyjpkKFCjR8+HBas2YNDXlniCzntuR5f3VxgbWj/IBFNUUbkoX9/fff6fwF53leSxQvTuXKerejOUbM5ZqABQUd4QfLnNUeI6WtYyBy585N/3jqH9IQLqEvvviCasfVVnuUdhS6/V8LN2jBbtq0iVJSUtSaNy1btaKCBQuqNZdrHcsY4UeLy1wOAbzmbdSoEVWvkfoq3wkt3KAEe/HiRfrjjy0+y6/xTeKpgNHuxneD54ZwcQkrQQkW05xfvux7BMLadWp7jXLHZY8AZRkXl/QQlGC3bNniszgAataomaYHjzbhLi7hJCjB7tu3T1rYy2rNmwYNGlBeH2OIukUDl3ATlGBR4UJbmRNly5alPLLGpzFFylbWNbQuYSQowe5PTPRpYdGuhiYKL1yRukSIoASLDi++KlG1a8sKVz7vChdwiwNZB4boP3XqFLfuXGuV34CCDRRpvC/WFa5IFgcQhgvnL3jCk56bAaeEmHl8HQX6UPz111908uRJOnv2rN95G0LBvEa42CefiL1796Yff/wxTWXZTDt7OnL64J/6NbdFCwEFu3nzZp/lV1CxYsXU12oRas66fOkybVi/gT748AOaOHEinT131vtmQJoa14WY0GfXq6MO7h+nhm2cqzJOi0f/6qfFoUOH6P3336d+/fpR165d+V34woULeZ+JPs8Ju98afQ3g7/xQuCjjnZCQQIcPH07Tdm7lkfxnNypIH35bxYmVus08JqsJKNhAfRnLlC7jiagtkwFvy2AewJoNf3c4dezYgV5//XWaNWtW2g7knKapNwua4Z577jn66quveD1QGKxM1JlkxOHEiRP04Ycf0tdff001a9ak2267jRYuWED33HMPrVixQh3lias+T6eFKUDTTyf0+eY5TuH22u8HPPXS3KDyVOt8ucvLuGBROrtAtbijhYCChbXyipgNvc/MEE4U+Y+3GZFPDytXruRWiucGDKC77ryLH3FpMgLgUmr73r176ddff+VHOLhqfJEJEGY8NVC8uHzFU5lEWJ38RVe4F198kXbv3s3TOL3xxhs0Z+5cvpFh7TVe8Zd/SDdzG2Brl/YSnuKF2o5zkH4cvhQZPvl0MTH9REUYcfDVKcmMD+J85arMS/nHfiB/5B/ORVGL08EhbHYBZzUBBYvhGv0VCUz03csJEqZIotc6hPHMM89QzA0xXo8460bC/aGW8Rhctmy5tMLnafv2HdyJeN26dbwPoJiwYcMGGjlyJL01+C2aPHkyW1GvRyf8U3FBT3g03eXMmdPahl5p+KYJRQU78Gf79u18XZR3NQjfr7/9Rtu2bVNbPBw5coRmzpxJycnJvH71ylU6euwojf7faBo0aBBNmTrFuvGADgOOGT9uPB8z6cdJlJSUZO3TaQ9x6m1oS583bx7f/BAojjlw8AB9+9239P9e/3/0f99/b4WB01J5FXXIwPnlk08+4QkTcKiT27J5izoyssiM5eEiu3Xrxsu+kMUADpe0DNbofPf3vZ/3YfS+YcOH87YaNWqINm3a8OwlderUEb/M/oWPAfZPm4EUIs9hhdGsly1bJooWLcrzBNiRN7f49ttv+RrTpnmGj4R/shjD21q1aiU38GYGA7Jhu47TqtWreSCSalWr8hD8GBmyXr164sjh1Dhv2rxZVKpcWVSsUEHcfvvtIq+MA4ar1PO0YryskiVLio8++kjIG1RICy5atmwpSpQoyfNQAExNhSGJKlasxJ/tI60wQYcG8TXDGS0EFOx//vMfn4KtU7eO2LN7jzrSg1NmhwNMA+pTsEhb4/v1uXPninp164p3h7+rtngYM2YMCwAz3WiWL1/O4sUoftKSqa3eIMMTExN5XrF33n5HlCheXHTp0pW3p0EG4/Tp06Jw4SJi4MCBvAnHYTZzjOOPGwlTQ+l0atCgoejRowdPAYWZdYoWLcbf/ePmALhuhQoVRf/+/WX4TvNcEhAZzvnrlCe8h2V6YPhMDH16/HgSCxeC/fjjj3l/X3nDFi9WXCxetIjXwX333stDXK5bt57X4S9utmgnYJHAH3j8ST/UmlSwfPzYy23hwryOLptZ2+SqWV67JMu52MdlQwXKtWjmiY+Ppzdef0NtJWrWrBm9+eabXFGbP2++2uoNikR4nKKi9cagN2QcY+jxxx5LUyFF/Dks8q9Vq5a0aNFi3o5wTJ8+nR599FHuZT/l5ym8HY/x9evXUdcuXdnPqVOmysdyEg0ZMoTL3Sijli9fnrp3v0defz6vz5g+gw4c2M9labR/Y1upkiWpV69eshK4koshOi3y5s1Lr732Gs2Z8wt9+PFH1KJVK94OLlxModjY3LKM7CnuoaUHxZ5oJ0OCPZC432+nmHBiClLjtU1qxevmYZe6jvImynGNGzehnLm8MwblUWnZaN78eWqLN3iThyHv4T8+FXriiSeoR88eNHjwYHWER6z6Zo3NHcsiXLs2wWqznTlzFt1yyy3Url07WrzEI+RpU6dxHFq3bi1r9TFcXq1UsSJ9+umn7DcchCkf8bJc7Cn7zpg5g8rJMjU+N9HHwK1fv5527NjOlTD4iTDjJhkxYgT1e6gfdZEVVgxYoenVsycL/x55M/z73/+mY0eP8XZOQ52WqckXNQQlWCexgNNnzngJNlLWNSCctlIwMG+eVcYMDawkrEkB2wdwIOcNN1DBgmm324EoS5cuTa+++ir94x//4IzmV9bygog7W1gJLFXrNq1ZqGivXSsrfWfOnGaxdru7G02dOpXkA58WLV5EDRvezB/mgTOnT9MpWcFCcxm+8ID7TVbUZHlHWuxWlDdPHjor0xzpnrBmjXXMr0uX0vnz50kWa6hggQIsNlQW58+fzx/44QPA3Xv28DU0f3vgb9zTXxYd6IUXXqA7Ot1Bq1et5ry20lL+izbhBhTsTTfdFNJoHjrT7MWFSGD5j7TFTaUUih848+q6vwOsip2z585RclIyvwTxh2VBc8WSrMSwNUMrinVdtR9hqVKlCtWrdxMtWLCAZs2cSbLMSfnzF2Ah47Xphg3racnixfTQQw9a4SxYqBCVK1eeZsyYyWLTDs1oaKbLkzcP5ZM3nKw8SRF+z8UU7J8rf7EsK4NUvkJ5volg2bmVYcoU+bjPRUOHDqF9f6ZOzIF8kvUB/rZq7Nix/PQZ9c0otrRatPhnpms0EFCw+PTF38sDWXVQS55E0JYmJkeMJ7KZBdLXzw2CYXSaNImn1QlruDyrQcbCCqakXKLmTZurrf5Bm+XePXu53KetoxcyGGi4byPFCUHASsKyAhwvK1o0dswY2iPD0eWuLtIgeB7VKDJs3ryJdu3c6RUXbQQArPTOnTuk206yYqa2pgXnI3wYKwIvUfCp9fgJ4zm+jJE1Dz74IJflUfRIkmVooC1s1CEj5hfMY1Bc1opxqJOTdz4fZ9bSAdeCvTdlCLOVAMuOqOtJgXBTECafMJk8ebLIHRsrZKbzePpo8vnggw+45eCxxx7nY+ytHMeOHeNj5syZw01TMsPFsKHDRP58+UTf++5TR3kwz5VWTsyYMYPTSFp3bjkASKcPP/yQWwNkeVXWzlN4O8AxtePieDZtTLKGJjSwadMmHqv18qXL7G/T+HhRo0ZN8fXXX4uzZ856jtm8WWzbvp1bF8xmLVlU4P3du3cXsjgkZs+ezeujRo3igYuBfAoIWbkTL730UtTPARxQsLt27xYlZOTtQtXuyy+/tBIFRKpZC01ZmCXcp2DlZfVNIx/x4u133rHCiKkqAQQA0VatUsXah3bYAQMGeN1wZhwOHz4sZA3cOl6f8/LLLzvG2zwX4saxmF9Xg/0wAvBHWj4WoYU8dcPGjdz+Kp9qXtf86EMpvnOe623fsUPISlOa+SUGvTGIBbxt2zYesh+CxU0Gdshz0O5at25dsWL5CnHPPd29zpXWXWzYsIGPjWZy4D8ZYL+gaQW1YyekYGU57CEu3GvwCItE2QflYhCofwNAJUtaUX6TFBcXx0NCctZI0HlGZiBXVFBGt49EYgdJhCGa8GjPly8f1a9fn4tKgYo8SAc0T+E4M8zwD3Gxb9dg/59//smvg1FmbdiwoSw35/K6HvzeL8vj0vJSbpn2DfHlR968fIx1XfmHt4NYR17Im4V/cU0ch8kAcR20TOiRB3GOWX41K2DRQFCCxbhIBw8eVGveoG1x2LBhXNuMRhA9zmjOA0/ic5ShE5UpTvBNZ2v10Enl65xAOPnpj0DX00IEfuOBfcZuMxw6ffgXB5nHOWzLagKbKklbWXD31VKA99z+Cv9ZjZWRSHeVccgs/vORycBJWDje3zmBCEWsIND1OB5BHGMXnBkOfS7/2o9z2JbVBCVYNLf4egxv/eMPfrQCvuNdXCJIUIKVNW5uInFC1k4tweLO1aLlX1e/LmEmw4IF+xL3WRUi/bhxehS5uGSUoASLWrG/t11/GMUCF5dIElCweLQXK1aMihQporakBV8FnDrl3cnYLc+6RIKAgtWPeLw7TzP+gAI9/NFxQ4NzrPKsq1uXMBJUkQCggd1XOXbfvj/p2HFP9zQTtxzrEm48Lw5gBX0IC1YSwtu2fTu1a9uW3xw5ge+jBjw/wB0n1oVB768xo8fQylUrg+7th4o7OuGg07l+oZGGkSNHcqcL8x24uWxSu3ZtSNvRtW3bVuzds1cd6XK989NPP4tSpUqzNjCVfSCH4ypVqsSfMdkx9Rjz1uDBPOb8pcuXPNKT6HKrRlegbr/9dn5f7QQmW0jcn6jWXK530E3yyJHDvIz+uYEcQH8PfKmh0boz9RizctUqevmllz1mW2231/D1Ca1btfYpWIB+pdYnyd5euFwPqDzftWsXjzwTCmiF6tG9B8+sCHRR1K7FGHRsKVykMJcXTEVjWa/r37u63OXVK8sOer2j5z7jUPxwucZReb5hw0ZauvRXz0qQYBTMu+9Ota5aj6YugVcrgaloLGvLqn9hXTFUj6/mLRQLtm7bqtZcriuUpvB4X71mNR07dtSzIQjwdQa+Bqlbr17qk1lKjnWnfxVegmVFy52mojV6W+dOnblPqC/wpebRo8EH1iX7I+tCUmcefaxevZrmzZ3Ly8FStUpV6t2rl2clVZuOpLGw5q+J3nbvffdSqVKleNmJUaNG0ZHDzk1fLtcmeGzrJqiEhLW0atVqXg6WWnFx1KlzJ7Xmn4AvDpysLb629GVlMXYVxoryN4myS/YF1tR6bNvAuGGzZ8+SxxjjlAUAdSgMFBIsAQXrZG2feuopv7N2f/LJCG44NuGISq7KG0Avu2QP+JEPwyX/sSU1JGEKGJ+0z54927MSJPi0HgYwWNJlYXGRpvHxPoe2OXjoEI9qYlpZ/ciIkTeAXnbJHiC/uG4DZdrkoAWMb8MgWHxLFyxoyurSpQt3rgqWkC2sFvAzzz7r90KfffYp7ZORMPH3OHGJbpB3UraOogWzZs2madOmq7XgwIeP5ouCYAgoWBOIVVvHW2+9lSrLC/oCE3kgAmdO26yst/5dsgk675zyEGXXGTOm08WLxhD9AUBHqrZt29JN9W9SW4IjJMGytTUC++STf/fbTxZWFqMCMrgrjTvTtbbXDjyc0pzQmrIw+xCGBwiVoATrVI4Fjz72KNWsUUOtpQVWdsLE8XT8+HGP0A2x40719XhxiX7Y4EgwFNP48RMoJeUirwcDrCuGZWrcuLHaEgLywhli5owZPCwOvHJyMTExYtasWZ6D0enGuSOYSzbkwvkLPLyRU777cw0aNBCrV61WvoRGSEUCJzrfeSe1atnSmqvLDvo4YjKLPbv3pLGyLtkTqRv+nTp1Cn07diwvBwtmfe/cuTM1bpIO6yrxEqyvR38gXnn1Vc9QQD5YtGgRjR4zmoeZ1HCk03c5lywGxTkMA/XduHF09FjaL038gWGX+vfvr9ZChwWrher0kiAYMJDufffdx3ePLz777DNaKIVr3RSuWLMtGMQas/Cg30golCxViof2RM8sjbbWQYMR9jS+vjQIhkOHDok6deri6j5dkybxYtvWbXy8LCrwr0v2QefZd99+67fe4sv16d07deIT6VV6NEAYfnHIkCHi4oWLapOH9Ih37NixPGWPU2C1e/jhh8Whg4f4eFe02QedV8t+XyaaNm3qmLf+HMbrXbp0KfuRkYo3xuvnOZv0NDsW0tNgRWsKD4MI6290nJwsdoj33ntPnDvrGbfUJfuAQaDtY+UG4zCn2fsffKB88eglvcYKn7SoRQeC8JMvjH9K3Lt27fL7sSJcwYIFxaQff+TjXbIH+FAVAzDryfpCcb2lyJOTk5VPHtIrWk87rCG4kNGnGaePHj2aJ1FzCrx2mLkPQ5W7ZA8wbH6hQoUc89LJ5ciRg39R5FyyeLHyxUY6JJf64iCdejXRd8zlK5f5bsyTJ0+aiJiuZctWYv16z0x8QFtrl8zHsnb4seXBFyNHWp9sh+IwN8an//lU+RIeUgUbDoyIJiUliVtvvdUxIqbr0KGD2LBhozpLJZwtwVwyB6e0x/gC1apVd8w7fw4W9umnnwl7XSW8grUB6xkXF+cYIdN16NAxW0wIcU0DoUKv2tJKpk6dJm666SbHPAvk7u7aVfz555/Kp/ARMcHqiE+ZOlVUrlzZMVKm69ixoxS4K9osw2ZZMyLWZs2aiRUrViifwktYBKvFaf/VfPrpZ9wy4BQ503XseJtXmdYlc+D8MrJs2rTpIYtVV7KqV68uxT5V+RR+wmNhdWQRbxl5u2DPnDkjhg8bLooU9t9yAAfRusWDzMUyNNJ9++23AZsl7U6LFZPToYXIa+4x4C2HDBG2IoElUlvg9HbMOvjkk0+mmTDNyTVv3lz88ssvfJ5LZDGNy4hPPhFly5Z1zJNArkyZMuLzzz+3Zm/UOmD/bZrICOErw9oCZSaEZt++feLBBx/0+yZMuzp16vD0lZcv2+5Wl7Ch8yg5KVkMGjQo4Gt1Xw7Nl2+++Sb3j01DGMUKIlbp8iXgxMTEoEVboUIFMXToUJGcfILP9Qm8DnPCXC+sXbdWPPLIIyJPbv9t5r4cpiYdOHAgz8mbGbBgnayh07b0YPqj36bt+9NjaYN5zVewUEHx2KOPiS1btvC5gP2EV0YQrW3XMfY8c1o3t02fPp3nmHVKd39Ol1lhWSHW48ePs3/Sd/6NJB4Lq66jI2OPWIbQ3uBXOi1atNE98cQTPJO2mQi+HGbgnjRpklWg5/BpvxVO264r7HH3sX782HGeURyvx53S2p/T+YQyK3r5+ZxZPUJYRQItUu3CjvTS8l+J9sCBA+L1118XhQsXTpMwTq5ixYoCvcswW7UTHO4IBD1bYqSDmZ+//vqr6Nevn8ifP79jGgfj0BqAkdvN2cwzi9QyrIpTRMSq0V7LX30ddCDH3V66dHDvqtHKgJcMbG3NCpn2U1/jOkWnK4yCmZeo8I4YMUI0btzYMV2DdejXisrwBVv/6cyC0BTx+6+/iStXrqTJ7IiK1wBNXmj/Q8uAUyI5OVTIXn75ZZGQkKB8UVyngrXyyhb/c+fOiVkzZ4p77703YGekQK5ly5Zizpw5yufM04cJxcfHiwkTJohLKZc4smYgIhogB6+RGO3bt3dMLF+uRYsWbKF37typfLlOcUhPvB59/vnn+e2TU9oFcma9omePHmLVqlXKZ6WNCMrDFzR58mRx8NAhq1yZaXeNj8tsWL9ePP7449xcYiaeP4fWhi5duvBbFpSLr3eWLVvG7aJ4p++UXqG4EiVK8NgDe/emzhCUFZZVE7l22AyAmue7w98NuRaLyhsefRCu355COr2zLt194iQGbAtGJBDq4MGDwyJUuIYNG8rK1Zf8aj1aiDrB6oxBmRqjytxx++2OienPQbjdu3cXH3/8sdiwMbWvrYXKe75WYB2k4udYU1DBiMsXTudimy8/8enK/PnzwyrU2NhY0adPH25RiDY8MyFmNQiBjyERMFP4//73P5o0aRIP3hAKMTExdEv79tSuXTtq0rgxNWrUiEqXLq32ekD0ZVktNQx+wiIF6xm7weFY7Y9OTvbTB9Y1bfja7gSmFpJlVFq+fDmPy7p582a1J2PUq1eP+vTuw+OmYXTsaCNqBCttvXdm6VDJTRgkd8aMGTR27Fge4Tk9U91XqlSZ2rRpzYN+NKjfgOJqx1Hx4sXVXg8sGFzQ1IwhSr2sheUkMKdtdnSS6+P8+Weyf/9+Htryt99+o7Vr19L8efPodJiG5i9atCjddeed9PAjj/BQqtFKdAgWaGGYArGRmJhI3333Hf3www+cYekFlvbmm2/mYXPi4uKoRo0aPBoJLLKdNCLSqWUPoz3cfuIBLH/lcWluVsXFixdpx44dLNLdu3fT+nXraU3CGtq6NXxTS2EU9WbyJu7bty/1ve8+Fm40Ez2ClXBQ5L9AQybhUTh+3HiaPmM6Z2RGqFmzJouXhVu9unwMlqfSZUrz6ND+Zn20YwoQQuV1LPiPihcnT57kmxITUGOOiO1SrGsTEmj16jWUnJykjgofmKEdQ7Zj+CCM18poNSDcKi7RRPQJVoKMd8pw3qYsESYwmzVrFv0oy7aLFi/mMfYzCixsnTp1qHLlyvxbo3oNKlAgPxWRVgflOcwCWaxoMboh5w1yewF1VmicOHGCJyY5cGA/xwePeQySd/jwYY4Dyux79+5lyxopcHO2bdOW+t7fl8dpTYMWqvz1Zf2ziqgSrIUOURDphIHJpk6dym7pkqW098+9ak94yJM7N5UpW5Zq1arFUz2VL1+eH6PIdFlz58wsVKgQFcC0+0ZS6mTFJHsII8AkJfrGwsjkOAYCPSot6uUrV3h7JPEItQ11797Da14shMNLlEb68z4sRIlmvQWLpSgJWKhcSrlEU6ZMke5nWrVqFe2UtegrmSACkDs2loqXKGGJVANBw3JmJZhmFWV0VDZ79uxJnTqlncDNpygN4UYLHsEqoXLAo8j8B4sZbgh37ty5NH/BfK5Nw4JZM4xfR2CGn7p161IbaVFR6/eq+ZuGKZsZKRasleHZLPAWyhLYy1ubNm+m6dOmcSUNwkXbpZ6b/1oEZezqsuKI8nfLli3p7m7dqIosj1s4GCZzOTvgVSTIboH3hT0eZ8+epSWLl9D8+fNojax1oyaOWngok6BFKxiqv1q1atyq0bRpU+rQoQO1ad2GcuZSk/4FMkLZzEj5LsNmp4jYws1RkutONx8qQUuXLuU3ROvXr6eDBw/SoUOHKDk5WR0R/WB4/jJlylAFWQGsWSuO2vPbvLZUEBU/A+vNHK9IZyaHWuebmxPLsznaSRUsMlr+ZbtHBcKtw2oG14yPPsbWvouJnH//7Xdat34dbdq4iVsY0AYKUScno/kpcypt/siVK5aKFi1CpUqWoiLyF81rLVq0oAYNGlDr1q0d84jjKv/85We2yV8bOdAdr2zZspypni3q9xrDKxN1JG1xRRtpwpoEWfbdRDt37qLdu3dRUlISFylOnz7N841dvJgiy8HhL0rExuaWLheVLFmS8ufLT/ny52NLijIpHvl4nVy9Zg0p3JLqDAPknYyLKUJ/gsyuYgU58H0PZueObxLPFii7RiQYdEZ5ZSwmCZGLvuK9Y/sOOnL0CDfwb9q0if766zTt2bOb/YCAcR6ar44dOxZ02kGUGj37Dpqe8ufPz6+L0UEHrkqVKrwvDbYnhl2A1roSMqOXzW3ZkBydOnVCL396fsDzFJs7Vm3OpiAj5V+wwskoeC2MSg8qbygPO/VFsIOw4VWwBpWlULEL1BfmcXo52HOjFe9Kl4tLlJPhmRBdXDIPov8PWnyI8pTxfiwAAAAASUVORK5CYII=;" vertex="1" parent="1">
          <mxGeometry x="625" y="500" width="118.99" height="101" as="geometry" />
        </mxCell>
        <mxCell id="VpvmrexH3NGM5sz_Zpp6-24" value="&lt;font style=&quot;font-size: 20px;&quot;&gt;sprint&amp;nbsp;&lt;/font&gt;" style="text;html=1;strokeColor=none;fillColor=none;align=center;verticalAlign=middle;whiteSpace=wrap;rounded=0;" vertex="1" parent="1">
          <mxGeometry x="633.98" y="613" width="105.01" height="25" as="geometry" />
        </mxCell>
        <mxCell id="VpvmrexH3NGM5sz_Zpp6-25" value="" style="endArrow=classic;html=1;rounded=0;" edge="1" parent="1">
          <mxGeometry width="50" height="50" relative="1" as="geometry">
            <mxPoint x="495" y="560" as="sourcePoint" />
            <mxPoint x="595" y="560" as="targetPoint" />
          </mxGeometry>
        </mxCell>
        <mxCell id="VpvmrexH3NGM5sz_Zpp6-26" value="" style="endArrow=classic;html=1;rounded=0;" edge="1" parent="1">
          <mxGeometry width="50" height="50" relative="1" as="geometry">
            <mxPoint x="495" y="584" as="sourcePoint" />
            <mxPoint x="595" y="584" as="targetPoint" />
          </mxGeometry>
        </mxCell>
        <mxCell id="VpvmrexH3NGM5sz_Zpp6-27" value="" style="endArrow=classic;html=1;rounded=0;" edge="1" parent="1">
          <mxGeometry width="50" height="50" relative="1" as="geometry">
            <mxPoint x="290" y="560" as="sourcePoint" />
            <mxPoint x="390" y="560" as="targetPoint" />
            <Array as="points">
              <mxPoint x="320" y="560" />
            </Array>
          </mxGeometry>
        </mxCell>
        <mxCell id="VpvmrexH3NGM5sz_Zpp6-28" value="" style="endArrow=classic;html=1;rounded=0;" edge="1" parent="1">
          <mxGeometry width="50" height="50" relative="1" as="geometry">
            <mxPoint x="495" y="534" as="sourcePoint" />
            <mxPoint x="595" y="534" as="targetPoint" />
          </mxGeometry>
        </mxCell>
        <mxCell id="VpvmrexH3NGM5sz_Zpp6-29" value="" style="endArrow=classic;html=1;rounded=0;" edge="1" parent="1">
          <mxGeometry width="50" height="50" relative="1" as="geometry">
            <mxPoint x="683.99" y="490" as="sourcePoint" />
            <mxPoint x="683.99" y="430" as="targetPoint" />
          </mxGeometry>
        </mxCell>
        <mxCell id="VpvmrexH3NGM5sz_Zpp6-30" value="" style="endArrow=classic;html=1;rounded=0;" edge="1" parent="1">
          <mxGeometry width="50" height="50" relative="1" as="geometry">
            <mxPoint x="710" y="490" as="sourcePoint" />
            <mxPoint x="710" y="430" as="targetPoint" />
          </mxGeometry>
        </mxCell>
        <mxCell id="VpvmrexH3NGM5sz_Zpp6-31" value="" style="endArrow=classic;html=1;rounded=0;" edge="1" parent="1">
          <mxGeometry width="50" height="50" relative="1" as="geometry">
            <mxPoint x="660" y="490" as="sourcePoint" />
            <mxPoint x="660" y="430" as="targetPoint" />
          </mxGeometry>
        </mxCell>
        <mxCell id="VpvmrexH3NGM5sz_Zpp6-32" value="" style="shape=image;verticalLabelPosition=bottom;labelBackgroundColor=default;verticalAlign=top;aspect=fixed;imageAspect=0;image=data:image/png,iVBORw0KGgoAAAANSUhEUgAAAG0AAABECAYAAACLW7uoAAAAAXNSR0IArs4c6QAAAARnQU1BAACxjwv8YQUAAAAJcEhZcwAADsMAAA7DAcdvqGQAABKXSURBVHhe7VxLjytHFT7t98y9d5KQGyDJJoAQiJBAWPAQrwUiAokNC1ggXr+OLRI7FhGPBSxASCCBkEACgfK8mTsz9vjttvm+c+q4y+1uu8djz9Wg+WZquh6nqk6dr05Vdbs9yQKQO9wq1ML1DrcId6TdQtyRdgtxR9otxB1ptxB3pN1C3JF2C3FH2i3EHWm3EDdGGh+7FD56eYLPY67bdVz/Jh8s7U5aXsm8ziVjYPaaKNuKM2OhOL4nlDW5psdVENUra39f2Jm0hSSmXNBu24CTEAitZ1HNTOyPZrId/mzESgNXQK6O6xPna+8VyVvWB5LEUlr3wNjL8kg1F1B6sTIKu2iZRRXMTsrGFeqoAbwtrWBRR77Nq2LZZK4R9uvGrwrXhWPn1du+WitXw+5P+bXWHC3UEMUV/OvVtQeSmvpQAeIug3zZKFG2lM6a1ohWydVbzFlgqwA1YjwPDlnJCUNfenoELYqzF2loK8zzkF4gPUefHCv7rpWOeX/YmTRWWkgKleuIBdIWM7RYg9I2sOlwIMN+T+ZpKvVGwwaGio1GHYMzmXq9IfVa3QxZa6CZyPkRTzTtKlY3R7D5Copa8dE7ty5DrLbBMRKmn01UlC9AGnUPk6B8ou4P5aTFGq9qr2mtpHlQlJcgNOp3pX9xIaPBuQy75zK6OJf5bCrSbGO8IAXdNZokiiQzXjfS2A7KE8S9g0Ud5NZrxqN2iD+YFAywDQinrJPMCnNJ6uynjYHBeDQgZVgNRq1hgtATGs2mksU8TiAanWBfTGtfKEvqTc0PwuxQk96jgeTRAmaF5QTGX8/ZN0pJY7av73Gc2sznMA5txz/wNkmncvH4VPq9x9J99Ei6j89A2DtYQabSrOkCIjN6JEih0VJ4HofEuPUeqbCijSWWWYhQDwYS1oD35tU34juSIn8B/TotTgh4LAhoYDOl59YbJINjqkmzxYnkdZFuH2sZwYkBKZBFeegKQmkFcJsButQaxzIYjiGfyIsvvST1VgcjxsQKIvvGTssjDVKbjWRweSnDQV9Gp2/K6btvy8UpiMISSYUbuNp8W9oEhobxYCgulzQ8l8gZ9wOUkUBDXp0sn3XrNBxdD2J6yozFKappLl4wMklJ5khRE9RbwOMVWaWV0UOnRa1lcXitpGNmwuPhuYhlk8wAcU2f96YyGIxA1n15/bvfk8aDe+i7udTcr/vCRtJYsNLhbCL9y770zt+TSe8M3nUmo8sLmcCr5hgglzZ6wGSS6jKT8JgIw2Veut7VLCUZnL0mQ0Kokver+0WIs4xx14tX3Rtz7Vo+JwW9DGmsDAuQwOVRUT5kBUvnCcbCVQQ9+YTiX/bHlYZgu4z/579vqocmx8/Jt7//Q6l1jtCGLaXEvj2ulLQZctkZDTrqnct4NJTR43fk7N235PLsbRmNhyisSSvBYQRXLnlsigcODkQHR4+ioSPDMp9y3m1RWjuNYEYnuZzpmbqM2762DpWibNxWaIN7nQkALM6aVHCazEhaOlF57sFpCoIQuO/xymYvLweYdKn0B0PogSX06KF858c/RQvtlSZXR3N9lJI2xczEjiHn778nj/79D+mfvSezcVfmox4MyyUKg4ccB6PEBOPExo2NbPKQoRzyLJdHZDs5aggzuOZEII9xTgKfCEpyKIv7jMH8uIw/nFgOltlSZ/0iR9MrQH7K2weAZTpObRNLL/K73a4MRzOdzLAiVpaOkfajnyCN+AFRvjxy/cd+8Mc33pC3/vU3qY0vpNVuqsI6u3kSBDB022fCgPirbIZWbUmCUcJ+RmP43kYRburcwIn5nJ5pSyzVio0ft0kw28viEdhwOBlsIjGtbZFs7p+owjE4SUYGiclIdbgOMVj3/KInp6en0sKBI8WW0cRVu3XSBKStVtsrSkmzrXwuv/75z+Sff/kTOOxLg2RBGXpEUm9BJoHinP3U0LTUQbJJvXAGtlFuR3oarYnlkwQiyV+0iZNgMKAZLxw0ADU84yuGYxnbJbkkhXKcOrhyUnAyIFNPl+hn6UEUQDtMU8dVMoLnqVAAourdQVfNQru93gBe1tO9ODSaXQNpC5C20vyeUb6nITRkKn/+1S/kr7//LZaBUbRU8fTHmRy8g4YMWvLvnJs+iYIs830AWVdBVi/uDbbMIqJpXXK1DG3wGK91UIa9hiDZjYaRZWW4og73FpLNCcb2mw2STGJ5z8e69B7KmTcrIMj7RjM+YTpzSc9EsERCle5FV5566kR6OC1arwbVQ0nDnvaklscxFGzXUvn7796QP/zmlzIdXqoxSsTN0BjYfE66zUgmSwPEw8sQ55N8yioxoS1dQkGapx2Wn+rhR3M5gXBRT9FfKG/RAGvLYibH9mwoQSoTVnACuAcvwWM8to2Hz7+o41sB0o17H5Jv/eCHSITbhgPBRlIAW1WgWP2ezHCzimGq8crBMhqDg+WAzFBlhBFsz4PLen0zcsjXyULySCzleVK1g4l6JPtAYJre5F6lSyRupHlFEa52n0cyKMs08zUNz40Db1cWnEhxSOFdkE1ndv8Wo4btotW+h1i4rTggtpBGZTAAi9LKIbIOM7LP6HKirgIjlN7Edp1IRxY3zmxS6XIaYJOAJJlsVt/0tEmwQdcwGeIASkNhDmHygV1LHxAlGmBP075xk9zC/UcY1zzM9JuCTwAS4QQwL0mwx9GIAXmyHGpDGNGMiRi8xeMmn7VRFSS6po+1iuyAPLXRYVFKmgFLEI20w+D2BSPJ1KShzeixwahbmX68p7Kl1NMWLya5KvjJxBqggj7TDAelQ6KUNCuoS+fo3sqsfjIwomICHbZqFetn+fvVfQ4vn05wQ51rlxO73TmGmk/Q05pqKByrWzgJBaMsjROWmGqoImukZGEVtvwVt2Nl615DXW0ZLR3ilaGHsVor2MH0idtXFXHCZFGxtvtB6YjMDDjC4x6J9zA8mOgxHobAIoWyamptMrjDZMplizxsOzLD7gu8Aaing2WrqpOelB0ssTHst+dVlFtCrYhrqyPtFp8u8PkdH6TS8+xIXwVm8M2yLnM1crI2ra6FLH2YvaXGx3ewCx+38TO6Be5LXWfeQhALP3ofCKUWUgPg91ig1HL229U382qoKnc1ODFGNJdBxi2o4tqvB8d1jYmVB/3xHtA/1a7xszbGaauO5R0a5dM6jM9vQskbH5YmPPIuDbMJZiwSnC15+esmUGaznBHHIWRynsc++XTG97tMdnewlxQrTbPZQYLLYDR5cSla2g+BjZ5GFVpHRzhBdmSWznGfhvv9xZjzzYQ2wMmy2W8Ee56HTagiU4xQR7vk8LxvtucnO+b5pPN4UVgFLdKcD70HXRod/JScT2duAht6oVeJTJvHki7um/E1f30wRYjJcnieLWmb2zGZqxkhJhq96MHJnoawLwtsk/sS86mDxSm3Hgyup135MNzBR1cE+5wlHWz/bU0fGqVW0Xc9oGcTSyNu1fQwYoO8mdm0C3xCEJlnOXkWrJzEUpbEuN/kwVXC6vqV4GTIQw8jvIYJc2hsZaABXeeNBzKd8y0nEzfjGIFlgeVPEqaje8suyOrz6oTo6TEHfV+zlPz9o4LbcIZCDMuCvlvB30CIvwZQFLaRypAn1gxteXH8yYNey6M9x5TXCWUp3/KivhXMuQdU6uX4+L7oO4b8FBATqgopVZBvw4licMR5cf7NgR7EfqlfWG1WnApjaNhe1m4f6fXQqGTdpx80pNmgpphV5mpb1++85+VD1fXf9qYsVAHJ9UlwPfC2wQ4etrdZ3jo8r5p+18UW0kyJpPkM7vLb+g7iRJpQnrPNBlRGRGy4fMiD9fLtxCSV1SuDt8cr67knXx2sG/ZFdM8PUK+C7TdGu6HSSHiUVQPg56iOexOcyrhMuCH8gOLGYnAj+5VlHjwdk7QJcb3rYDfiAtA933fEYENGhjLNrtHbRlRqt93q6NtP9DQzXrY8kpTl+4qByLxxKJMPsSwD81w2TseI68Xy+eDlvMagzi5DeFtlYQ2shxUnT9O6podFtckArVxN/f4XrzCAe1SRgYrAOh7cyzwQbMfLvU1vn8HBciJfHsvlr4SXe/28DvkQj0njWs0tkQG3sIq4r0Niq6WpYuvoGEr7RryuXJwuIiQmoSx4XW/LDetgfr7fXVHUf1HIE8d0EVRV6Nbs8PS4Tuq+sYE0MxD/drCnJY0OlvNsI3YS8vB83iLYW1CrS52TWkSKy7q8kxjXJ4rybgQFXTJrUsDlVm+4Bkrb5oedMKHGaR81Mn7rCd+OslfB84OICSoihmA5v9CgsrhRLTK+18uXMa03+AGeLrvmwXapl4dtoI4r1+gQ4q03YzOsD/cgqDAhUjk6asskpXL2lDwJH/blUUZUjNiY3B+3yRNKBAJlfU8lPF12LYISilAVS3LRpsdZnWQRtIvtaf79gOpt74pS0lhgKmIvax7JUYvfoTFN+WREj78VZ5bPfoLGZF0atgx5wyoRJSTE0HrRpHAoiQjersc3AsV8j9+9TL/iG6qgdkSWgS/FPvvcB2Azy9zux7ujgqeZrhi2JXaAz34iJrAM7llXhZJTQC77o/Hj5W4raQXDtfpoK3wkQ+IIPjD++Kc+Lc2TE01PD8kYsJE0Fup/LGi1ZKTfMuRAVwer3yq5gn1jAh0kyL4KZQ3lPWtZXoFItpH/MNLyuBMXMLEBdjNtY1TCQnWq2YZD0dOYNa6fyEsf/ZieA/T57IFRStpCv58cGa5kZlZdJt3wHoray8tsks2DMiqrxK4qxEmiS3KBF26C9r82AbCfBf449/iC6guvfFEaTz2rGXw1o11q1f1gQ/Nc+/lxhH1+dHL8EAM4/OdGfAeFj8mW4COzOF0A96RDg4fH43v28g6tMF0k8sxzz8nLL7+MPYxMwtPCxDgkb5vbhhIGm+2Z6/MrTeWHiW17RtESSTA/nbNtBPSlgfHFupruWe5dm7wpljV5tAf1lnk5b1Lk1KecImqeHw6/8NIry5MkX53jgYVWspXqMCgljR6mSoR0++n7etQ3Y5vmaqgC8oryaEwnoqwsn+/QfkoIyYOysVyRF3I+rRAVE+ihgEjLs7YxDeT+ybPy/Cc+qWmW8Ltr/u5jwjeND4R1zQpANY+On5K0+UDf8as3m9Jqt8N3v3grwG9Jrm/zfOUujQik8TZ54CHghGsI91mbgdFEb1kpqHM9+3Yn26QNPvnqZ1DGN64xVgQnqpJRr4HSb4LGw9O3svhFuv6FDAdD/UcnlxencnZ6Ie9cjqQ3HMrZxYU8Mx1IfXomg/FIv+pKsHGG1mIijVr2kU3cacIv7GHf0q/mYuPI3q8sVE3BV9Ywg1Y8S9vG7zaP5DmylvgIkSp47yNDIIz6wQYnH3haHpw8lPvPvyxf+ObX0T+fyW6qv3+UkrYZ/EyN7/UbAQq0Yv+oZaIGSYdT6Y6mctHry+njUxm9/0jG3TNJZzjcwOMm44HMpvyHMTWZ9scy7j+W4aRv34tDW60GlmJE5/zvAewPfdHLSUw6HQVi2D/6jPSw4SwwQXjNAUTr+4lLTyJh9A5MJn4lao088zqTAdF8OvT0Qzl65iPy5W+8Licffl77cw+j6of2MqIyaSueB4OxWrrA/T+MDnMqEbr8qAdow/jDOa1JyPOKkyC8Rw8W/BeDqKODxF6wmIeNG3XmuGsddrty2evKeDiS4WVXTh+9L/1+X/eV6XQisxEmwGgM4klAX3r9GW52qWUiDUyadg3GZntrowsZuJi+UGNl/zKiWGAkOnF8FjuXZ1/4qHzss1+Vj7/2msyTth7O4sd6cUuHwtblcZMSnO35Tf4qYMcM3kKRIiwr6sFk8VdvS+D10HQ0wlLd68np+6dy+vZbMgbp5ykmyZT/EwUTJJ1IvQuP7/Et4ZmMJ2cymma98gsmRy17BT4PfdViXpdPvPJ5+dLXv4b7sg/qvItxE4QROy6PGTYRxzIuofhFgvdasb8a7J1CeitEQjMaDyEP369W+kQWfVrrUB9cuexqDtOqADPp5TOZYg9Oe+fSH4yxR2OZnoyhw1xGwwHCSAYjeBq8cDToaRujYRfqY2UZTuTVr3wZXvY5yLd1UbnuxN0FO5Gmi1AwXv5rPQkfe0GC/4UNKc1zqDEtugS7VzPb70q5q0ajx3EDT6V+0w3SVSYlRzCk/R8RKBnJoB5vfmloyPC0S//UpY066Hj4pN4mFmU4mZhewMPGYyzN8NhFh1/9aqEw3JwBt4K0GPmZ5r7EnE1DYbfcC10on44RExbHC6HGxh/oRElbskgeT65XP+UtxxON80l4V4xrk0bY4y7OvGwg7o1q3ILxeacsYpyB8QLRJwoSxNVEF1sdJ79I+H9A2h1uEiL/A8b5ofIuOqXXAAAAAElFTkSuQmCC;" vertex="1" parent="1">
          <mxGeometry x="634.99" y="359.5" width="109" height="68" as="geometry" />
        </mxCell>
        <mxCell id="VpvmrexH3NGM5sz_Zpp6-33" value="&lt;font style=&quot;font-size: 20px;&quot;&gt;sprint&amp;nbsp;&lt;br&gt;delivery&lt;br&gt;&lt;/font&gt;" style="text;html=1;strokeColor=none;fillColor=none;align=center;verticalAlign=middle;whiteSpace=wrap;rounded=0;" vertex="1" parent="1">
          <mxGeometry x="730" y="370.5" width="120" height="57" as="geometry" />
        </mxCell>
        <mxCell id="VpvmrexH3NGM5sz_Zpp6-37" value="" style="verticalLabelPosition=bottom;verticalAlign=top;html=1;shape=mxgraph.basic.arc;startAngle=0.3;endAngle=0.1;rotation=-60;" vertex="1" parent="1">
          <mxGeometry x="414" y="378" width="100" height="100" as="geometry" />
        </mxCell>
        <mxCell id="VpvmrexH3NGM5sz_Zpp6-38" value="daily" style="text;html=1;strokeColor=none;fillColor=none;align=center;verticalAlign=middle;whiteSpace=wrap;rounded=0;" vertex="1" parent="1">
          <mxGeometry x="434" y="413" width="60" height="30" as="geometry" />
        </mxCell>
        <mxCell id="VpvmrexH3NGM5sz_Zpp6-39" value="&lt;font style=&quot;font-size: 20px;&quot;&gt;retrospective&lt;/font&gt;" style="text;html=1;strokeColor=none;fillColor=none;align=center;verticalAlign=middle;whiteSpace=wrap;rounded=0;" vertex="1" parent="1">
          <mxGeometry x="629.49" y="310" width="120" height="30" as="geometry" />
        </mxCell>
        <mxCell id="VpvmrexH3NGM5sz_Zpp6-40" value="" style="endArrow=classic;html=1;rounded=0;" edge="1" parent="1">
          <mxGeometry width="50" height="50" relative="1" as="geometry">
            <mxPoint x="650" y="310" as="sourcePoint" />
            <mxPoint x="650" y="250" as="targetPoint" />
          </mxGeometry>
        </mxCell>
        <mxCell id="VpvmrexH3NGM5sz_Zpp6-41" value="" style="endArrow=classic;html=1;rounded=0;" edge="1" parent="1">
          <mxGeometry width="50" height="50" relative="1" as="geometry">
            <mxPoint x="669.5" y="310" as="sourcePoint" />
            <mxPoint x="669.5" y="250" as="targetPoint" />
          </mxGeometry>
        </mxCell>
        <mxCell id="VpvmrexH3NGM5sz_Zpp6-42" value="" style="endArrow=classic;html=1;rounded=0;" edge="1" parent="1">
          <mxGeometry width="50" height="50" relative="1" as="geometry">
            <mxPoint x="688.99" y="310" as="sourcePoint" />
            <mxPoint x="688.99" y="250" as="targetPoint" />
          </mxGeometry>
        </mxCell>
        <mxCell id="VpvmrexH3NGM5sz_Zpp6-43" value="" style="shape=image;verticalLabelPosition=bottom;labelBackgroundColor=default;verticalAlign=top;aspect=fixed;imageAspect=0;image=data:image/png,iVBORw0KGgoAAAANSUhEUgAAAK4AAABrCAYAAADuKbnpAAAAAXNSR0IArs4c6QAAAARnQU1BAACxjwv8YQUAAAAJcEhZcwAADsMAAA7DAcdvqGQAAEZrSURBVHhe7X0HnBzFlf7bNLOzOQftrnLOWQihAEIi2mSMwWfjMw5nbIwTNsZgHM53jud4//s5nDFgG/sM5owPsAFbICTAIJQDKMeVNufZMDvz/75XXTu9o5ndnQ1C3OmTequ7usKr9169elVd3ZMQAuQczuFthkQnPIdzeFvhnOKew9sS5xT3HN6WOKe45/C2RPyKy6ncuencObzFiF9xE5zjHM7hLUTcy2FM3h0MOlfncA7xITEhURITh2754lbcIJS2qyug4TmcQ1yAvnpSPJKUNPSp1aBKCOEfFdfoPK7OhWcuxMEw2oE/JhxoWWc4DAV5PjwYtOonJBhzr3Sdw4jD8rkvdtt7b71MEnr0Y6QweJsN5pC2EaYvCmyFZ1s4srB8tjyPddg0Zwa2ot5h2MqSloSecDgxKMVVIvDf9mxD1PASFhtOpTFDi1jxFrHi+0NkuYMtZ4CIKJ48d/QifO6OP6OwFUaGhNUHEzfcnWlwFtdFn2GY9WXeShjOhOlwrtHEhAQ3fWZSGXKl5/2eeCdd7FCD4QnVGnFYDdNHuihkvVYDQRFZq8XDtovpcE/LcGK0HaZsU8ZAQpyMKEz5tn3DhUEpLtjMP9p42+4Rb/8AERaEEWQPWRCym3kUOtMyzk27Fb4btsxY4WCh9CUEcZiyetHbC6TpdLrcMLRYujSIA9F90nBc9Pu2vtNDUBuhqMOst0PwcaO14y1EL0aplUKgymosqSpqYtjCJUh3T7xIEtQiyTlnnAY94bBDC8bhkEya9FpBungOWtAmQ7/pXGyj6WhG4UMhpI2iEYyy0X2F7jJxFiWNObFhJCLvR0sXK+9QMXjFBUaIpiGBjEpUq5kgQUdJEYujGzG0suYwCEoiTrlKQ1UJN8dYGGtlogmI90yoUXGBeah4plbSwnKpOM51RJmGXnvgJuklfeiIRomN0hl6DI39wW1Becr8NsqGjDtbQU4MGq62DxiWGZHhcMJYKWupoMBBCBiKGwx2OyrCIxl/iYDeYx6GRgkMUQOjLazgAwbrUgUL02jKYRzOtWLes0Acldeph357MIQOiH9JUN7ERDNaJKAXmrIGQnjYwoZh28LQxBC2zJGQ1WAxJMUd2YZYzg00PB1JySm4nayMNy4CRU3LSyFQiZOQyiowkqIoY/UYGgVmHq/XK2lpPj18OJKTk/WeTRcvqHghKF64LiqlHQmo1BwJwu0ydZj4hIRuSQLZvtQUhCnS3NolXV3dkprqUQVmUtWzfuAm256b9jL/6QW40yOFE751GNQj386uLgl2k4lOpAOWxLj4Sjwdtoz+wlhITkmWRAi1ta4WVyFJyy1Ql0DzJvKpX4J0dbTDpaA7gTikMRbO9GPLkiRqCLBl8xbZt/+AdCBPQU6WzF+0SErLyqWrsxNp6Wv2T1MvIDHdliRPEuhMkm64qtA5kirBQJeEujuZCOVZu2LoI12pqani93fI9h1vymYclTU1kupJlhlTxsv5C+dJYVEB6OxEmcaH7w9uuqmwAdTPR/p5ebkowz4dBX091lxwvwvpAnoeL2gEhuOR75AUl+jdcBNGK5H3kpKSJQVK1dOjkTAABpNRbjJ4n9f9hdHA+Ja6atn58tPSdKpSh8/MolKtO6ewXNoaO6Wt7YgsveL9KMcMfxRKKAQaOEFzymBcc3OT/NfvfifPPPOsbNu+U9rb26S0IFeWX7hali87X9ZcegWscKoKkuXEoikaEkFP7e5tUntkJxStFZ1IJLO4VAqmL5WMnAIJdnUadwDxxs0JiSfFK4eOnpC//G2DPPmXF2TrrjeknUqOeseVj5LVK86TVcuWyPzZ0yUrI31Am6FYviWbsjly9Kj84bHHZdSoMqmoKJP09HSVud/vBz+aNf20qdOkrLwC7WYHiw9nheKyEUTvEpTTvSKTk+GTwcodO3FSdr+xT5qaW6QbliojNU3GjSmTqZPHYVhPQi/un9GE8QXDy1tGAWHFIH0KeMOjv5AnH/gyLK9X74fg2xJF5ZOlqaYdlrJF7n/sJcQYi6qrDcjHodquQhA/+MGP5Ic/+B7iuiFUD+7TQoeg+G1SUVIkN73nH+XyKy6VCRPGO3lZRiQ/IoAEHo9Xjm/9m2z91c+kctdGWLY25WdWebmMWrhWxi2/ToonTJdkTwrdYYC8hhKD3h/+7GH50X8+LJ3o8Kle0KTMhqeO6+aWVpk8ZrR84RMfkisuvRAdokPvEUZWhk/2OpLOlJQU2bZ1q3zotg9IdV2jzJwxTbKyMtV6t6DshoZ6bePq1avlE3d+UnJycuK2vMOluEn3A875gEDC2ZNj6TsZYplJkEj21pf+vkUeeORxeeh3/y1P/OV5eeb5jRq398Bh6eoOyOiyEvGm+pCjL6kbGCGE6zBugKm1oeqEPPPr78EVaJPEZI+keDxQAK8e/tYGJPbL+OmrZc6qi5lT80Mdobz0dc1SFK3t+vUvyNe+9nVcB9HxUlAnyseRjKHdAwG3+tvlhfXrpepklSyE65CZmXkaXeY6HJJn9Lvb6ipl06+/CaXdIIkoK9kLvxltD6DMqu0vS+3h/ZI3frpkl5Sjek4cE+AieOXvr+2QB//rCTl+qgo+rhc1hesizYxraGySZPgdc2dNlYyMNNwhPzmC2LSmHW7YSxqPhvp6eWXjRjlZdVKqqk7JwYMH5dixY1JdXQ3lbZHGxkbZt2+fZGZlyexZs9XfH4jMLJh+OLY1Dl31o8I0hJa2prZOfvPoU/KNH/1MHnvyGanFcJMMn8zrS5W2rg5Z9+om+fa/PyjPrdskXsRH8DQqKEjbcZje+ILwz+BybF/3hNQc2y2F2WmSl+6Vjs4O6Qp06hGAVePoOX72BFjOcEXWlzSWnJ0tSR577I8sURXCwu2i0DplZabJU39+WjZs2KDWzbgcxuqyLDPZMvlYG+M9SSHZ/cyvpWrPDgx3bG9vEXgycqRu90Y5sW2jtPvhQ0NEFHRnZ5c8t/5l2YURi5Y2FhJgKLbv2SevbdqhHUwtLOpgu9lOHRmQjs0gPQZGmTnqZGXnyOQZM7U9bCN9ah5UOB6M42TwoQcfxPErHX1sRwiXN/LozbVhAMSlB5nBRu5+c5/84Oe/kl37DuqsnMLtggIZx5/KDUbARThyDP4o8zuK0Rcsg0zI+vAXLeFy14Edr2A4SpNls5fLRecvl8VzF8usCQtk1sQFsnjeYhk9drRk5pcqHUa5WAbgqpeCaG5udYRrE0RDgna2DRteVGvEa41FHuO+sACyWAuCRcPoA7/55OtQ9MY6KBlXAZCOfj4mfr6CAhz5kgTr29HUKF1tLVpWMpTxxIkqOQD/sz3Q3idNSWhXfX2jVJ6qQdVoI6o33YZtRV2kBXWaMkw5lud0CfLz8+SSS9ZKeUWFtEIpu6HMdEMC0PwOuIjdSMu4o0eOyA9/+EPZvn07eGlcLlvemcCwK65K21mnJHNa2tqlHsMXrUQ7LGKaN0UWTBglZUW5UpSXIeNLc2Xtkimy9qIl8J3NUN0/jGLYtMb/Y7UY1un3gZGzZq2S+QsvlBuvepdcs/YGuRbHDe+8UVYtWSul42drHuRgbhYBsulMOnUj8CR1mXMHbIuxpja9ETbR3t6u1zYOqXDOdOCDxqBs5ge7O9s7JMnnExr5Lli1BAzPqYUFMnrKTJm7Yq3MXXkJ/NvJklM2WnwZ2abMhCSMXPWYGzTraNAXSEFiEjqJJmP9MBA4I9n60EPbwHuGXnd7eNCQLFq8RD71yU/J0rlzZWxeruTn5MoE0DhrwmgZlZkFORlrnITRY//+fToisBjb/jOB4VdcB5wJK+O0y4fUMs2owIRmwXT5/OXnyR1XLJTbL50vn71qsdx1w0qZNXsaHP2BKa5huA0Nszgpo0UrqZgo3XALUnO6Mbx2QKn8kpLVJcmZXXpemlEuReMmqnJxwkgBhoXnsANFpiSFJz7R4BZSqje1pwwDTuJ4bcq34BwxMzdXJq28XKYuWSWTZs6XqQvPl1krLpblV71bpk+ZKzMnzpGF7/gHKZt7niSlmM6VBEVsammGBfRH1BMdoSBcg25qLjuQRigZ1qViHA+3stliaXW5knDj9dfKv3z2o3Ln1RfJR69dI5++fq3cdcvlcsOF82TJnCk6YnLU4qTVFGGU90xhhBSXgjNFp8Av8iSlSlFOutx+yUL5FI7Zpdly06Kx8r5lU+Qdc8ZJUW4eenFAhzb3rL5v8GkRrYRJz/Mk1DVl0cVSWDYOgjMCIVRuTrFp+eCucfjMUKrcDncEgufdialshsYxjQ3NfQrJxPFIxMSul5IzLf4hcC61IC23C/ETV1wvK6/7oKy+9j1y/qor4cbMFS/KMB2tRUomLZKckjFmPdcpA6W5a+gb4AXXqzWX48szN8/DbdC/zjlDc04EobxcSZkydaxce8liue2yJfKO1QvlfFxff8Viuft9V0kogZOsREwAMzWP4V24jJHGsCsueWCGjiS1gpm+NCnOLxAPqirN9El6PlQuPUHaOwI4YAXBzO70DMoVoHAdSfUDCoJpw1aTR4qMnjFHVl/2D8r8aOBarYbQZJ2ooLoeN8ERKq3JuHFluDTKSViBEzaeRyAQkElTJosXM3qb1pRnz5mO6RmHYRv0Bjr80ulvlQ4/Qvi2XXzo4OQlHd2BDvV7QyH6wEEdiUqLSyQvN1v9zb7A5crc3AwpKclDXbZM27RwR2d14TrD50zHIwjF7EzJQ0fiSNWpB/2bMdnFku9JkcQUM8pwrZd1Eu7yRhojYHHJHPPsnzzKzs6UMRXFaHhAWtoRD2aG24eTZK8kZBaAU9wzwAlb3z5cD1CItSD0bdWykOEBkclT5iEuhoC96c4JwTLMUhFDWkmCgli1cpV4PKlqVaxA3CHrpbyyMzJk8aIFmHimIZ5C72lcL6hCcDcX60xMAeeTld7TQL6hcwXR8VkS83V3B2Ts2HKZPHGceOGDWjqigevBk8aOkVnTpqBDcI2VabUk3o4K2x5z7vyBZoTgBggmuiYSAf51ohP5mzButLfBB88AXRgZnM5wJjECiksJmWK5/FRUmCfvuGCuXD6nQsoKvJiR6q0wklMllJqHEyg1/nL47g/ksXYMKqsDtWrUJChhN2bGQqb3YihK53VukZUDM2lgrDYvTXoq7qLFi2TlqotwbpTbDQqZNPg7umXNxatl4oQJuj6rTXeOSJA+dZ9YlheTs9RcxEJ53WWj3gTeS8tUxTX32EGC4vN55OLlS+EHT8RIxWWy08FZfyF86BVLFqqiB1RxSYzpmH3BfZ+GmiNDAuYMQlfAdY+jkS/BIx+58gK5eu0qycbEDTm00T1tj8aAYcawP4Ag0dwDYJmFOZnMLfbIyjGpkp0GxaXm8j7z0+rkYajJLQNHyC2nzTGKtrDWwQ13VAI6AzejhFoxmQlxdQA3qQgZ+RIqnwmLx0VzA+aLLI5Wk/1nztxZ8sa2LXKiqkaVgGSR7AAsYADSXTRnlvzTHXdIecVozcP9B6xLR4EobbB0c9tlKARF726XhK42VVjt7HzSVzZJEgvKcZlCqpWHzBfEUFJWViaJSHvwwAFpbGmTgFMH03TBEuam++SmK9fIdVdfLl5v2DKbNkY0sj8wD10+DmF1J0E028ZyQpJb4JOVS+fK+eefJ/5UjpagEfeNu6YZDaOiYLgeQIzIkzOk4pnSz+Ex1NoogfpTRh9BuMCn010l+cUipZNABSZCCiiMCjX+hpnhnvWzXlScXYRhE551M5hOZBVIaOIiWLuMXkw1/nhvRaMAgnBZcuFTzp86WZqrqqWryy/oDpIG+ksKET99snz1/i/K9DnzUB/dG/KEuUk/wxigXPkvM1MSs3NEmutFMCFTl6l8ooSKJqFj+ZCChfAgfXxooBll9sQKGZvtk8Ya0AR3iBuKsn1eGZeXLbdcskxuveUaySsu1ocxQwMqY7vgy0prE8w5aFQGmx1oga5uCXhAZ95oNB0ukI5WpJdCR94YTBguxR3yJpvT4LgJCWiI9kL22LZaSag/ISHMmkPwmUJNEJYvXRJGTZSgF8N60K6Zmll+vD6T5RP9Ua5zcqij7tLXDm77q0hLrSTOXgHlLYeV444uPkkyjI7eejKWkzfYULgc3mOHZf0rf5FDO/cie5eUTxsvq1etlEDxNFg9lMH0Wg4tNZ/OGR5EAwWneyOQThI9Ejy0U+TINpGcAkkcv0gS0rLBDk7WHH8Y5ZonXqwANSV7JBWTu8qdW+TlbZvleF29ZKfCz54wUcbPnQeaSiSE/JwcE3GK1wDNMaMmeYSOg44VOgw6IaeQB3KDTPmoWjJyJFQ8CZNJyE9lxjppfdE+CiEKzprdYZEwQwVOUCqXwmgRCFYCkWJIYxkUCBQDPVWT8hwnxtI6meOAnVxx8wqfHGkRBNyEztrjEjz6piTPXStJiOct1s/hnisPPI8EO1yivqFgVh0SPUni8dfC8jQgMxQqq1Q6UrIgHDOhNJu6nRY6/rLtTG5wL0AKfGGl14kLoDN373tNEgorJKVwdM+kg+upnFwpn9mBaAT0DniVBKuFwpNbMJr4YQTgFwcziqUrKUNCgU5tk8oBtcQnXQsqHwPKDgWAF1z+SqIRgpVNhIuTgokrQS4F2NFwz73CY/kQibNYcc0sPTHJo48qlX89mgSBID/3seoCvbWsjpSN0rO3Ri+7LyRDKfh5H1alvR00sFY2LtAORnu5LssrxiKOigHrGa35pDsZZemQ5twmubY885fld6M9+MsO0M1Rg5bcpDAjR7hslkX6Eh2hKY0sE+m61UKCb1wx0HJxH7c7uzphzbhfAkYABiBJVyLCQg+XrkVpmVAxrbcbPi/pGk4kJfMRNybTOCcrqZusl+AcgPzUkY4dPoYMh0txh15CBIysHAuBVunsn/GMBigobp7W5S9tNf1aClZv4nJgvpnJa8Ay+QjSclGHKoTKOpSXkmofJtAXYySUExXSAkaCisUdZWoVHSVk3p7qEEflUn8EQyPbyc0sCRz2Nc7kiewQdGESaPIBvaOnhs4k5kdH136MCMaxfcxDIfMxbBLvs1qqJtM46SxMngSMKkiPfBztbCchWB7vxwOVIQ66P5qfCol4lsL2qcj0CKFTGTeBFLJDjzQGpbg9zY/KB0SqT8ZmcGJhlMMmpe9EgVB5yXy1ahQH8pj12AGQhDIoBGvd6Y7w2u1XsRRlLIY4C573KBTSUzAGNs7xQXFPL6m8SG/LZcg4LRch9cy2izvh7MzawpZDGilYY0tNHkO/OdccPEc6G0fQ7UmGT8tN5wYonwfT4FA6XEf4BAHz0qVAmYQuF9q2DxBmHkBAebn/gbxxYpQ3TkelQWB7yE/699FkSHrNn+HB6TX0B1ROxaOA+aKebtxwE4Qez0sqaE8jndDCCMTscTUMBRnWbYgBKwCC+chU1kNFSbGCZZp+ZEOGE6yN+1YNwzXKtAltc0OVycljQxUY/ruZxzalqAUPdxSrKLatscA77rvaWZCVWdjuMCfjALJwROGbHyzIdCpbzsDLM0O+6UA6f3DB8ANlwyAorY4cIjuIdlwdBcgHJ3KIiFtxO+Gf1tTWyKmqKvH7ucXOKJ1dCaAd4p7Q/qA+KYdkpI1lCdzK2msShQkSeQiVRX7jIqigcSsuqwKlJx36xi8y65Dv3OoLKrAoCan4anlxz9JulYVs4rxgQPQxj2Yzfr8VNgPntF/YtPSNlRRdpTCv4/fViSJB+Xg8cFUcpXWPapGILJUuBtvA3XNV1XVy/MQJ+MLhtzKGgrgnZ6dOnZLfPfon2f3mYbn8klVy4Yol2pvCFpBDNydmp/uP0cAHEnykyXCgpCTqC48cvpIk1ZuCCRLyQQlPHK+SivISJ1UfYDWgle+ZgVrxt/t1GDx5slrqGpvIFJMuFpgXdYaoVEjLkMrR1RmQ6VMq0P5UCMiUwR1rnJSRL69v3S1jykslPz9H78UC+UAr64fAj1We0ldy1PKq8lE9+jMM4CX+0f3Kzc6UkuIiFoqcjHOS9AN2Tro3nDtQrgMB91TQsFmwzd3BTnny6Y2ydds2fVx8150fksLCfCfF4BG34jLx5+/7lnzzG9+Tm951jdz9mY/JjBmTdIe+MhzEpnhgeXr8soGBimuWqIzltmSxvEgSzYI/74mkwmpzIX7Tpm3yzLoNcu9dH9N7fYGbxJNgidJSzTtpHWC2F+Xc/sn75WcPPaIdCaXrvQEDybvrq2XTlg0yZ+bUnjciPHyTN5Gb5QNy7btvl8984lZZecFSJ1N08OVRWsrNW3bJnZ//irzw/AZJ4gQzTnS3tcl1N14j//njb4rPlwLFMmvYsUBeE6Rb35RGo6x7NBD0Ulxk4/ympqZabrz1E3L0wH655b23yL9+6dM99QwF/XXd08AqR1eUSG5RvuzesVNe/ftr2lBVLhKkroNJGxW4R+XkUo07GWfPHvhAXi/fE0vRITxWA/lKDd0FXVZBksb6Rrn1w/dI5ckqJ0VskMz1G16XZ599oaeT2Hq4vycR9SbC+powjoMjTEq6sVTOaEO+cMca8cQTz8hLL78sbf7+h0p/e4e+ckRitZNSiaLV2c8BJpIIo4g45zqAe/JIsO08mIadha/pUAZ0DazSkmccUcOTtf7BdXAue762aYschlzaMVi8c+2FuGMndUND3IpLzJg2RWbOnCH7TlTJ7v2HpKWlCcJCI9lC+roxFI4gybqW22Xezed6Y8/aJxilTIbg6chzzU+VGAy1DGbJQT8sZmudCoMIdHdKRmaSlGS6d371AQy5W15/CcOmEQQ7DMHSe+oZxKHEOVDd1WvTtqa6OhmFIdvn699yZqEdXo8XncGWGb2+/g78wQSUS1Xo6AG/hMA3ioiTKLoeNA6qrOAzD/KT2SxojKislBVHELulcmCKx280BOTpZzdKKsqgMaDB01E5DiseC4NS3KkTx8vsqZPUv2toaIWla0APMxu7E+iQ99ku+lnsvSHpxpDYyQ9Q4OAw42aIUWIwFxrASRMFnorDy2WZ/S9L6OAWlGQeFZcUl8hrL/xR/vHDt+p1X6Bgzl82X+677z4Iymm+5ePQ+al8UDDUFRZT6K0fuEUe//2DMn/OHL0eCDjxhQo6V4ME6eA2ytpjknRwkyTD5+S8gJaVk2NVVvCZnKdSEwy5s48Pmqiw9rsRTEQZDUTxOAdpaW2V51/ZLK0oY9n8OTKqtHg4WKyIW3E5xJeUFMCPmyTZGT7Zf/Cg7Nq9Ry0jBaWr5H2APc484k2AAuOcCqy+UYe0tTRKY22lNNdjQuIcrQ3Vevgba6S9sVbaGqulvalJ2qHszXU1Gt/aWCVtDSclPzMZ92r7PVJDqKvuFPKiPFyz/M6WanSkIc540aa2phqUVW/KRrltjSdxXiV+nJflYTiWVvFH0NPraK7VtN1tKKOhDjTBZ3SbwbjAp3Lt+jp8S2MD3I9W6Ww8Kv7mGtAGvqGengN8Jb8bayqlsfq4tNRVSQBDPRXWdr6we2fkFgtMznnC1h17pRlWnsuE11xzmXYGynw4EPfkjEMHh/N1L/xd/vVbP5Rt27fLh297n3zhcx9Tq0n0NTnj8NGlCkLLxMkcLTDO4bPW7n1NDrzyKGbisV+/Vq5wCYzDPPLocNbeAsXnk7gESc3KMdahD4Q6WiDELgzHmDF74Zcijm36zh/3yJMv7e1xXeJFp79Lfvn5i2VyWbZue7QIdvJNh071qb0ZGWgftxw6NyPB9kHZ+NrOnj0N8h/P7ZfNJxvFM4AlxkiQJ2sWjJW7b1qAtoIOTszAM+VdBCAJ/ANRqJ5rt2k5pTJx+XvEk53rGBru3+iGhebmel6fLl8zOevQuQff7/vBvz8sDzz0W300vPnFP4ovLR35wXPcj781vTGo/BRsXl6W+DLTpL7ZL3sPHIHV3a/DTl+gsHhwA4b2Fwxj5o0HI0UKtrO1Be5Yc+yjrUk6mxskAKvW1dYsXX7zAqHP5xWPN1nvd/nbcLTGPFg1P55BMD/LZXx7c7MlZXAAHd3trYbGNlg3zOpJY3d3CJ0Zrg4EF0Kn7WxrQX0xaEQ+7l1ISvFITmampHIki6nl/YD0YGTqxBwk0GJ4FmhrPI2nXX7SA7p5TZ62Nkl3RxsGULh/6NCJXF5TI8H5CZ+SJesDHIIhD96DCYFS0y8WaW3rkmef30CbL4sXLsQcJBMdh+4f8g/SMLgxKMXlO/YTx1XItCnjJQR/59Cho7J95xvq6Bt3wUnIxlimM8C5HXY0nkzADfZ1WvIALIIvtwS9vBRHCaxnAY5C8eLwZIWv07LyNM6bVSzezHxpD3nleJ1fmjuSxZdTJOnZeTjyYxx50pWcJSeQ3h/0aJleHD6UOQq+n0Pe4ADLxA96kH6Wlwbrn5pdLIneDKlFBz9e3cAvfui3wWLRmJGTJynpOdLQFpCTjS1wiaAFgyUKPObXfFKz8sULOshD8szy0R4+XKdl5YJWXGcXSWoO0mXkqi+rYoJcoL8Afe4w6C4wWm9RtnrGj/h1yxtvHpCDBw5LayAkixbNUmW2GI7JGRUoLoCokL+9Xc8fffwvobmLLw0Vls8K3X3fNzWura0t1NnZqedQRg3RwJ7zrq5AqLW1LeT3+zVker+fR2uoo6s7FECabqZD8g5ctHcGex+4ofEIu0BLU2tr6Ovf/mlIMiaE3vPBL2kd/eGh3/5PSLImhr7wle+F2lCYvzOg9X70rq+GfCUzQp7CqYM6xDMq9OqWnVpHB+jrDLDUUOjFl7eGxs9bAxXICT35/Isa1xcOHakKrbzyfSHxVoSSCqZErWsgh6SPCd3wvttDDY3NPfwkjzsC3VH5yjSUEvlPyv3+FsinBXLyh9r87Tj3h7qcNkWC4u3s7Aq1QzdqaqtDH7njntD46ReE8sbMC7366nbEd6q8g8FOGG/WMjRoZxkMuNA8bcpYmTFrmrTCl+IH0Sorj+uymHXcrXVlN7XnNsrsvaUF5goD7W4SDHBAX0cBb3WfKt+G5eSi19HZrvH8HCd3+QfgOybR94KbkKKPGPsG2iytTQ3qViSj7gCGRL5RG1S/cmA70/pCkJ96gh8fDMAVAG36JkJ3F4Z8shrDfofdNB8bnKQmcpcc5gpJQxoCAB3YwKsO8A28oxsSwCw/Gl/5NR3d7kkZwNLbDTO6WqSfowrTctrkjBYXtNIGt7d3y/MbN6HiTpkyplTmzpmsk7WeB0fDYHEHrbjoMzJh4gQo7yROIWXfgaPy2uY98HOjTKxcbSTRlAX6KK+UMRyGOCEYKOhH0edKEO7/tIVzktfunMcGmdvY2upcAbjm/oq+3lqIB7p3Q9nKdoK2CBlxaak/cBmpHcpF2oYKs5UzqBMm+puG79FAPjhvhpCl5AsEYzfnWP5w2yTvRyofr6mc3FDOr+5wFcPfnSAXXnyx6gondJRZMGiUd6gYtLS60SM9yYkyccIYKSsbJW/u3SevvL5Le6okBKQDVtHf1iHtfhwQAkN+cLgDFofP0fn5HsrFbMTggYvTBGUaHInwZ/CZ3jACvJHmZlMHhqSYBz+XWVlVrXkIfsyDPpnbmgwVVBZadiqu0k8FJlAF39AlP/hVmmj0kZbahiZNp80bIvjYVSdTUEgqoB35ToezTImzRFV2axxwznywlvwMLJ/qteNoA31+bUunnrchLhjkum+7PPXn583ONPD0XVdfiXhO2KhqmLzFrD8+xL0cRsZyYZpDhS/VI+s2vCJf/Nr3ZeeO3XLFmgvlns/dgRlkujz3143SiFk6l5ksaFW58D192kSZNWM8mIKhMNm8ysLmqDXGbFq1EMObfSTrBsmlMpARfAJEJv7k57+Sz3/t2zJ7zgxZvmSBCikWmP/V13bItp075fN3fEg+e+eHDA0g4JP3fF0e+NXvtY2DQWdjk7yy8X9k3uwZsKxcnuNeBY+8/PfX5UN33iO7du6Rq6+9QirKSmPWQct47MgpefnV16W6rrYX/+JFJzrHDdddKT/5/tf0A9SsUod9HBzpekkeCsWP13E3WJBWFTzshjvIDwmSVirsgUPH0ZbNvVePnEL4GdQr1l4gfK3olg98Uo4dOyE5JcXy6p9/o4+5dYUCI2RKim9YlsMGtY5rX91hA+pra+TL3/iB/OyhR2Xp/HnyidvfLxPGV8jdX/m+vHH4iFlpsEBVXE7xebwyd+pEWbnsPBldUS75Bdmq0Lk5OVJUmCuYJEinv02tM5dP+FPx0Gg0PKTlkW8km0tpHfCvqbh3//N3ZPykCZI8AMvJXUrHDx+Vz338g6q4VA7uLxhuxSX41O+V17bKB++4W+ra2tDG7B5hRwdsHO631NVJIyxvF84Ha6N6FPd7X5NUfmgPFpUHP3cFIiALcJR+vc4zYGmTPPpNXb6R0Q535cDBo1Lf0CBvvHFI/vrCy7Jr337BtJs6bkAZwIpyvpKfmyU//fbXpLrmlLz3g5+BDIOyevlKeeAnX8N8CHJMSlFfO82XdpqbMRgMSvHNkGMeJhSXlsrCubOkICtDGmBhq2rrJD0tTQqhgGbzcJLwHS6+SkKl4y4sbgPctHuvfOsnv5Tb7/mq3HDbnfIuHD9/6Lc6vHA4/+WDj8q7//GT8uFPfFPuuf978q3v/Yc8+Os/yK49R+CO0J9yiAE4/ORmmTVP1qmbnhFGHjbe5+UaaYaT22A4XQU32Oe40d0H2nxQCD7CjqSr98FtkMlSkJenn2U9bRI0SFBmHZ3dsnXHAfnFQ4/JN3/wnzAu35KPfOorcsv775Urr79dPvixL8iePfslBaw4eOykfPjOe+UDn75fvvvzX8qOAwcFxCttKkuVZwquvRpmZWRKQX6W/OVvL6nM+WrWhSvno0PQLUxStwOB+rvDgUEprrF25pzbEWfMniVzF87DUHJEtm3bIY1NjVJSyC/GxB6yaeXYeCpyaqpPLS43fVj4uzrlQOUJ2X1wj6zbtEUef+YF+dGDj8iHP/tF+d3vn9ANOOrw4x8nEOl5fMITZop9Zcii5xUiJ8zIz1NhWpDBIwGygCOUvlfmGvbNJK53Z+mJQzsS+LlU5KFlHAp0cgY/lTU99fTzsPz3yP97+Hfy+NN/kxdf3Sa7oZDH6yulqbNNAnAhrJuVCL841ZOp8qFyxurY5LkPaS5avFBH4Fdfe0Nlm5GeLjff+A7oByXECbjj3mEEHQ4MSnEJypyC5yx58rhymTd9kgSgbHv3H5HKU3WyesUSyfKmqUIwnVFiWmp3lewAaEgUBafXq+9pgZncYsdey97OIfipZ14EQzjcUcgmvVFalh9W2EjldcPn5SYTKobZzDNSoNjoLuirTGg7aTJ0WV6Yuu25TcOnil5aNbR9qF2KfOSHsze+tlnaQ3zUbd60ZbNN242MzD83BlYz/duZMydLVU2N7Du+T5cZl59/ofr3kWW85asK1BNjeUOSm5sLl6FEfdMjGGI2b9st5y2aLde+c41uoA4LKRKMp5Bik+FWPp5zZ9nJhnrZum2fuacWBQA90evoDXYUW6Zl6UhZWwvtU/ECmXQzN0ehQRUQBidclaeqZefefTrKRYepAyqsob3uDcfQ8AwhU3hB44Lpk2XFsgXy7HMbMVR26hc4r7x0aQ9fzTLYoFUtKgZVmpmZGitpLF1QxpaXyfixY6WmDr1u75tw6uvk1puvlZuuuEQ86PGnwzDBLsEMFNbK736DQxJmwbBIHN44mXEP/YRlckwMUSEGAtLXxRUSZwgeMNCWACY1QW5cimhXPCBP/FCm3fuOyP4jx9THdu7gHsVvQkfFnIOgGxa5W84xNDxDmMGVhKXz5Sv3fVqaW5vlv598VjtJO+Rz0YXL1I10j2bDObINvhugsbrEAVoCXUGZNnWinLdglrT726G8zbL7zSNSWpInn/rYrfKFOz8KxS6B8Gjt0HhTgDY+zDTCnvGeEbpprO0kVMSg8Nu6f9/MTT18183ksaW64WZyNHD3VLjOkcbp9J0J8C3f1tYOqampdZSWBsPwk7IwPDZ8Js/DVHL5ymxEMgCfaGSQiK7bmOJiufeT/yT3ffkuSYIh27X7gLy5d7+0+P0yeXSF5GSlozAalTB/1W2EYof0Q4RDw5Dst7G2UFz4m2PHjJZ5c2ZpXFV1jfz1+ZfkqT+/KH974RUwLCTvu/5qee+1V8qUsaMlx5cuPt3a5zSKgZ4atnnRuInjx8vVl66Sy1dfIHOnT+nZfU8l5C/o7Ni7Q6qrTikjeQxUL9xKzGwjAVOHKZyWlm9YUDniwjCNBlTIY8ePyo5dfKpJN4F0JcB3TpJpY8fI1ZetkivXLJerLlkpq85frD8DRSRBSQ0F5i+XJHPTM2XWxLFyy1WXyG3vuV4/vfTk//xF/vTU8/L7Pz2jqwn8NNSaC1eqTpgnm5CPM+LyPAQrbF9nGgoGtY5Lv5WP9gjuMeBf/rbsE0+ul3vv/5a0tNRJkodLOezZRoBcgw2ixwehlCnOvl0LkpCami7XXH213H/3bTrEsOEmP3rzG/vl/R+9R7oheyop06eneeWuj3xALllzgTz8yH/L13/8c8nOzMS9sIITSqcqd1hhrX926/VXyT994GZlKCd/w7aOO2uG7sfl833+3u62bW/IXf/8HTly/IT+XoTlCUHrx0PfnHD1JK5ANMP9qcaER39mYBC9rBPW76Ybr5ErLr5Ivv3jn0GNOHQnqREYXVost7//XfKOy1frejnBhwf8JSBuq9ixa5+898Ofl/rWeklFW4KoPwDFTOFLsUgbqTXmkW+3LpE+9uufy/Rp41RXIvGWfoKJikPC7UHwN2D5NGzh4jmy/+hJOXLylBytqsZRJUdOnZLDp6rk6IlKOX70uByqPNlzHEY6hkdOnpCGBvMoluVzGYUNp6EqKymRa69c3bOoTyHyE+9PP7dOZV1bVy+NKMdYX7eChqS68pS0g9nmOqzUfFTZqj/xxCdx8StFn0BxZkLCctHRgm3ShNGBG4LcCkgr3FTfIFXHTkhHu/tnoEJoa6c0tbYNWmkVUMJK8GXTjh3SBvnoj1QjGiO7zJoySS5fu0of0ZLPetBYOFVxE1NDzUk5BnkdpJwoO/jIh1AeZUaZHuWBdvE4jDSVtXUyYfpUjLyToirtcGLQFtf8xoI7Kz8uHJLKSjTweCVmw+bNAsYfO3FCNry6VZoa28UDt6mr04NhxSslxTly6UULkIJLM4lSVFwoEyaVC7+TkAAmcijiKBMMJsurm3fK++/4vKT5+I0C8x2HooI8ee7Rn6P8Gtn48mvype/+uy49UUGZhooxc+IMOXD4TWnhphVS49xbPGe63HfXx6W4MAtlDd+Ts7+/9JTMR9k9VgxKx05y4ni1fPEbP8AkCb45LA7j+dLo6OJyyc3IRsc+Jo2Y4OjIhPiSvGJZDiPwt40bZf1LrzpLS/GBbyRMgGs2YfxYfdOWD3doEctKiuWj771Brn7nJfqrn3Y1hlY+ERaRcmtpaZM9O97UPRX8GdsX/77bPFgAqDIZ6T65Ys1CycvxCTeIhyRNjUxJUY6MGQMZYtSMhuGyuHF/2JlM5VBj1J1NDB/c0piTkynl5WVSVlok5WUFMrqiWEaVlkpBQaGMmzpJpk6bKtNmTsJQMlaWzp8sCxdMgwIXIG0e8mZJCAoELuijSNbBx4ksl/7S/zz5vH6P1logPrGZM3WajBuLiZ8ky+//+DSNDO4bBpM///Te6+RoZZOcqq1UAelkEMq7dO4s+GLLkCo8yfzzX9fLlu27VDCDQTc6x21wPUqKCpVPBBfe+ZNKhYWF8tRzL2gntr4mXx+6ZNVSWThvihw+flxq6xu1A/HpUmF+tsyePkkOHDoqBw4eFn6wJF6QS3xkTG/TLoPxy+Uzp06RW2+6Hm4L+cFY3qNrY/JQA1NAR0lRtowaVSBZuYVSOrZcZs6eKtNnTZHpM6fIrNlT5PwF02XsuImQb4mUjSqUsrISyeTPsJL/MXjItg/HCBe36lNpzGHOe6BxVAqjbOZWInp4CI3xyVI08vIL5siVK+fLFSvmycUXzJOpUyZgZg+GgVGR63zOxFdBRcrKzJBr4C7oBh8d8mnJOuTZ9et1dSEz3RkGHaUlaHFnTJ8shTmwIq54nufn8bcLwqCCjQRovLmvIwW6QYunRDrgDrvxY4tl+qRxGElouXrTQF56oUCcxUdXg/5BMcCGoyweLC8ZVh6KOCpP6zPujFntIVSpkM5cs+4UmTq+VK5YPh+yWyCXrVokly6bIythcNL4KhIKJe946G4yGgcYmZHG0G020aO0nDjZImkZ2RA3y6GgYFwIigOVdu4jn2Od3EB0D7iMko4Z7eWXrREvfQfkJ187MRy/uPF1DMsBTA456ektXipoBjqNN8O9rGNgFJfLQYbh/A4ZQUEM1uIagfdmKa+thUl3Pjxti6cyZaRn6C/22Hy6VNVTP2jhP14PgiRmoQXnQwKWwZFyTMUouWAp9xBw1DSjFw2H1mHIVPCaBoL8MUtaZnKt6oz2cJSijaaS0ujwIO0mfuirBv1hUIpre6c21pwY4ZPpDqjE+vYu1wOR3ORBz6SS4lTv08pqUey1FFFscpi9pCBL1mJoDejTOOYKSR0mWK9v3qG+U4bzlWyCxRZlZmOITZA0bpWMQGlRJv6G6eXEZOHM6XLzDVfJonnzdNNOdka6lOdnydyZM2T+7Nk4ZjnHbHV58nKyNU1mmk/mzZgpV994teRmZ6ug3RbcrmXyuX+y85E+grHc+JPCj39AGVTwaCjZmg4fsrw0T1auWCLXXXWFTJs4TjJglVnX+NEVsnDunF70zAKNo0aVSlZ6mh6lJUUyenS5bjwyI2AiLHxAKqC4S89boDu2zNZGKKT1R1GvpdXKjI9ojWJrtAMjb8JOB4y7hXTUA+feSGJQikvOG4/IgFaVgrLW1TxZw7m2lo0wwxR/Wj8IJpBBZIy+vWB/FacPGIvFn0xKlWWLZ+mkQ4FCuHF83fOvqFJwsweV2d7LzuHP3vMXj07/wk1W9ijdaheeh4Xkphsvlx9/6x55303vlFGjR0tRWZkUlFbI1GWrZeryNTJ52cU4cL5ijSyZt1zKKsZomtziYrn+mkvlP777Vfh6JTq5c7s+FDyRmekzExyHRLVoHECc5qvgqUgQfDqUdMKESfKZj98m/3r/Z2Xp0vP0R0kKMLEaM2uuTF91mUy5wNAzZfnFMm/JhTJt0gzQWyqFo0bJ+HGYT0ycLpk53HxEBeuW8lFFsnzJXJ3gUj8tXW7Y0YF5SAs3xXBE5KvpYLzeY14zUlHm4TKs4bJljCROp3wA6D2c8dRYT4b2uvd572qYk3E0vvYefa1YzaUV4H1a1flz50tpTjGYZ7oOZ6/7D5/SdGmpWaZwgJtaKkpGwcrAx06HL2aiFVSYokL+hoPZakcYS0OrkQyfPBMhSw9KG4T12rqnJa3thHzxvWvku3feJPmBOtm0fYO0d5olLAq4pKhYPM5v71pYq2tcoaB4PFlQVHYuA74qw1Z4UoIYfhGL/1QEkpIHy52Rlqo8ykhHp/QZH57W+dj+N2XTn/8kSyuy5cefu0XevWyK1J14Qw4cP6STH7oHNfW1cvTUMT0nuIJRmJcPf3U8eMa6aDUNfT1wCYDNNxbXyIdy6lFIZHd3TIK8tEpsrfZIonftbylcXIsBKgg3Ol956TIxHxWhQLrlQOVhOXa8UlJ9Ll8WxXkzzXUGhnMKqgfwfWn9olkGJuNvhLnJUQHzBv7rx6ApdKdj9oZhp7vcsI+fKN5UWLAkUw5HBrowidqBeysQ28kfguZ2T+qAuhiuJ40MmYfKZT5RxUkUO1C4HJYfTo+0SD9hdJnMmzutZz387YyzSHH7BwXBV1AuuXipeBMgSCeenwnlJC3VR8tqYmkt+CuLXErj3lA3ijKydIkqcr3WKlwGZsu0/47ctcRsTKD4rTEuLtk6LJiOfcaOvNbiuEchlpKWkqqKz3Om4VsD3NRuFcyC1xnpKZLqhZWF0qV4fMJvDhtKNIFuTeSvDLFT8ZxP5CKK6QE/fTRuTIVccN58LSGKh/C2w9uuCVTIEvh6q5Yt1MkGh2Bulnn2b69JaSGXZ8LpSosLISi+7tN7lpubU6ChGdocXwGwCpeRbtY37dDHtxCKC4t12FWl4k8mMYEbibTuEXEukC4PlDFRld9RzqwM3RMcEv6STXidlr8imZGZI14ff5wbCg+f1OvhyoBzHyc5WT7JxqhBmkmX2YTvJEBorS9jaPRnTBoHxZ2nvDoTQ/lI423Z9/j5pDkzp6slIegu7IN/t//gCaiOiaPi8h02IjcrvNpA/zY7L7xfIFKIVBSfz0zqLBhXXFwASwV24ZzLa+73png/MzMNCkR29i6vx89lGky4uLDPJBzqi/PztC3mq4n0YU1eWunsrDQoLCePiEMH0k6jd03e3LxsyYXFZtv5PVv6/6zDwKwiELTIOdkZMmniWMnOhl+PNOTN2x1vO8Ul4+nzXbRyiWTp8pdpQgACPFZ7AopCy4SJAv7l5jqfrO/5yVWDWHKzrgLXjN3CpUKxE1BxqRo+DNu8b60aLWBBfrZRPqs7vYBI/Dc/Q2WUmx0mOytTv3mWmkqLiXiTTH8hnW9ohH+CSSQ12SMeR3nJA/tNW5ZDxSdPotXNtduSoiKZMXmSdgLmDSv42xdvO8UlyPac7Ey5bM0FKhgL+yIe/1LvcpzJGS2XFRUfSqjgoigvlYDKm5bae92Xy1PZWel6j3nTMUHUN49RKv9xkkUlcj+DZ1qznc+8GsR06XyvrsdyckedTy0pd9ZxmYzxtKZ5sJDpoMFMwAyhfDM6lT9S7Sgen7Tp0zbQ7PUkoH7605q0N3B/8rjRsmD+LH3q+L8Fb5HiRtEaIBrfo4GC48uV777hCl1It+h5rIv7FHh2brZeZqa7Hkygav3xENcM3IIKRmVJz8xyFIaKygcrmOgVOhYXZXN5zboK6v/C2nJzD7L2wO2C2Dd109LhTnDPAC55P8vxcTnJ0k/xo2zTMdLFAxcizCa6L3AzWAfoZt6c7DR1J0gvv97OyaYW7AIVdcqE0XLJhReIF50DTpW5MQQMVEYjjUErLvirSkABR4aEeQjBBw8moT59YTyu9btYji9KZTHgimZY8jY2GlgWN6fnQTHHFJWbOlwwVtW4C3qdBKH2pEmQnIwMpOG6ZG/lBWWajF/s1mulM1EK4DqkoaMEdajl5h64Cvyn9Yhk52RD8YxSW6jF5QoEotgyKk26z1hcxpA+KiOXucAldT94zyo0H7aYzsUjAQrvdVYWSBdXV5AmLV0V1wNr39vHNdDdYePGyuIFsLb8ghDXzFVOAxM7RWkeLDl8QvmJGH161+KW4ZnDoBSXyklXTYWCP2F+maHU6C7/OIvWTIAM/B0AFSKGUL5SQgb2Xg8Nn7utVyQ44WCVqV6fXPeOC6WL7gIrxQFqtFz+0k1OdrYOxRzmM5DWpjGTNv7GWXinEkP7qNID/zIDh92/mpOTrpMg/U0GIDONW/jQzaB8tICcKLnLootg6DftMw8FjFVUy6p0okPA8qenpaq1Nm4E+QPF5RouLDH9ddJA/nm8fHkSRaI8ui5cs6Zy63IZXAgPf2NXBUF5GIPBzlCSV6BPDtlRVAnZTXDfsMLQGx1sH9eYTQcl3UHOH0BjIvxp8lgf80Ku7tHlTGFQimt7ttvKGgVGvEZQOOZg4zgc6mzaQYgKCyno3k8ITZnAMpz7BKL6BOvibHrVioWS4m+Rjrpq6ayrks5TB6S77oi01VbJ8+vWyY7t2+EDwqo1n8D9ak334rqn5KEHH5I/PfEUhGOE14v5oMVHf5IdCfXk5OXoMK0pcZ2W7lN69ckXrgtyc1XpuC5M5dCnSBQoiqRF3fz6Jnn4oYflF7/4hRzb+4YEGuukvfqkZMNX3r9vn/6+WmdHh3Q01Eo37u3fvUMef+wx+cUDD8rW7bu1c9BQsH4qtgedIBvKzQclNAB739wtu3ZtVxqViUjY3tIkY4tz5bzFs531auY2HUlFRH5TXm5EXNLv5oSSn6gyvcaAeZNTzIRS+aByHpQqDRqDro1tNspqQgs2hJaHC/92ssIP4QUCAQlychDAwbdeca7XELIyIYVWCekjmBcTCfT3RI4eOSjVJ/ZIR+MxaW88Lh1tjdLSUCXN1Qfk43fcIZ+88055+qmn5VTlcWmtOyyttYfkxReel+9859ty9933Skd7mxZHhbMWk4rHfQ52rZa+LYXPLZr854U1tsMt256fnaNPrsxXJMNlkDkeT7I88MuH5f4vf0X+8NgjcurobtBxSFpqj2DClSAvblgve3bvFn9LjTSDNn/9ETm8f7s8/PAv5d4vfkF+98ivpK62zlhqlosy01MxgsBVINtpxV988UX521+fU7pABJdYpL2hWtKS/VKYz43yZKpRWlNOdCupo45LlsafNr+6Y2QXENhdCWJewUft5i1e6rQZWXlQ/mcCcb8BQQGad87sWE5CWQSHsKD4/W3KlKwsMIxDEu/jv52gUIG5LJOKWbP2enMTPZbp0HO5cRVpQwHzmwmxwA07/MG5Pbt3ya9/9Wupq3e/nh6mh3FjxoyVCeMnSWtLI64pfB6Gnpvfc4sROECLZb91duuH75LX97wpfPdt9pTJ8v1/uVvzsuxTpxrl41/8ulTX1mMC1CEf/Yd3y23vvU4fR3OjNtuolQDsjE/88QmpPHEC586og3vc4LP2krWSyU9HwdfdjpFh57Zt+ttgrIj0kf7pM2bIRRetkt89vk6+/5MHpbapWgqyi+TWG98pV162TNLTM+SpJ/8oP/75I1LdRmOBOiGj0iyv3HDd5XLTu2/WztPVxY4U5qdpS29FZRS/MJ9EfkAGQf3xEpOHSskNTXxjIhsuGLNRaSlrlaNDLx9wULaxMFxvQAzq1R3OViOVikKpq6uV3/zm19qoT3/609LW5td7ZBL9vGPHjqkQ8/Lz5Oabb9YvLYYBFacviCMhSOWG/xhDcY1fhd6Pcjs6YV3a/fBBUanDZN5nxyJjQbEy1jz3t/G0JIZ5ZKS575Wnn/6zvP7667J+/UY5UWPe96JVWbpwinz329/Q7kB2dYDum2/9uJyqqta60pIwe4dyLz1voaxZs1rGjh2HOlA+BYr6+JNLpqOjjahb3ShYP/2AH4d3WO/ODj8GIyo8qYJVh8978OABeemll/TgN70aWgLSgSSlRVnymTs/ImvXrpWm5iZJg6/74K8el3/70c9g+ZE90C6ZcOnnzZ8DetbKBcsvkOKiEihV5HcSlERtPydyx44fk6pTp2TFihVO282oQTDv008/LY888lv5wx8eA89bcZ95jbvAd+Sefeav8tqmV+XLX74/5n6Is05xCd5ramrU8/z8fFzTlTA9kuCQ09raokqekZGpcQaGBA5jnLTQDlMJow1nINkoLtwN/ayR8oDvl5m3TGlxrFLSv+55G9kpiunUSug97miiP+qR73333+TBB38pLS3N2uG0A+Efab766qvlq1/9iv6MKtuYnpYpF666WA4f3u+U163Wmj432/qjf/8PWQFl0Y0xrFQrN5NGhsoT5DPKjM6Ef7jEfZOOe3TffGOv/Ou//Iusg1tDK8y2caLG0a6wsFTuvfceueaad0h9YxMmefny2KOPyX33fUnq+WEUFEaOs2OQ10uXni+f+9znZNbsOZqf9NgJGvlpVYAvvHIXmc/HvR1Mg790eXiFC46mDQ2NUl5erm1mXstP3m9rbZN2dMCioiLt8NFwVimumwHmyZBJF8kYwv3kKAwKlXFguCPcWHBbS6t8hGWgBdNRoQ1TSYszC3Z27Nu8mi7BI1u3bNbfnSWofKSdeTvaO6WiolzKR1doPMEJ0Rak56+C840GC7aTL3hOnT5DystKUDZXTpiHtFA9MStHmYzjFboa4sPtNSssIZ0M1VRXy15M5JqbW0wdyMOOyvfUqNhjx02QgoI85OEr8PzN3Fp0pMPCX9khL8hy0sOXWtMzMmTSpEmqUGbFISwT0yRzbdvnlhdhecuQfGQnIv9Iq+l8BoZvTBuOi8RZaXHPfhjFIHorOq01XyUy5wSHRu46Y3vZ2czDDbMMB8m6BJ+ModoKI6wALN+WFT9AGxVMO78pg34z+W420ZP3UBLtiCSHG9dBD/6TTK5w8EmeLue56DGKRRmyxKFCazanceCsUVzDV9uI/kPLSHdo4e7Z8YTuvPHAnYfM5DkVljTZQ5fBYGWYtp0fmsbIYNwI4/owjR1l2B71pcEjd7sGA6tsrEMnewDpI7/5sEPXfFEH77F+KiktIYd7XrNZJIE7y2ih7dcth0pXPLD8dfN5uBR3yCWQD2TGQEOTp3dIIRG2cfGGhD0nkwYSEu78rW1tsnHDi6qkXGLiZI2rDVRcKgLdg62bX4f/26abXzjZ5KNapqEvy0fQHNZ37drpfKsgXE+8YF76kC+99IocOnRYOwM30pAm1ukBfaSL7sHBgwe1PkMPf/OYac0GHE7amH/rli1Ko+W3GyRzKLT2hWhyGi4MWXFtw/sLTdrooZuhNm6gChgZRjIrWmjTWrDOAwf2y09/+qBaJt6nH0jLYGmjojzwwC9k567durGH0czHg7vCqNgs4ze/+Y3U19ehjMGzlnnZkR56+CFZv3690mF8f1Mf66Yi7tq1S/70xJ/k2FG+okNamdukod9LC7xu3Tp54k9PgP7wfl83mIdtRBbNR9hwoIgli8hwOHFW+LhGGHGRERNkklXOaGEscMZcWVkl48ePwdXpjKYyHThwADP6Av2egFu4LJvkc0WisbERaYrUQg6+TSyvW44ePar7EYoKC08ri/Q0NDRIa2ur5OTk6CvukWl4XVNTo+5DWRlXAsIyM+Qbvsfiv423Ybw8jYazzMe14AWLOz10MyAydCNWmlhMGwoTCZuP9RgrZTbGRMLeZ/vdCmDBckzIWffQfVyCVpLl8NfllZWAu1jSxPpIT2R9uMW/moaHrgQg7Isue7+/dJGIJYvIkPhftaoQL6P6wkCZyJBgvbZqe8+NyDj3dbT0wwXyhIjFF962fBsM60zxfSuqjY8VDqb9Z83kDG1wHezd0UOTNnroZlp/acmsvkLLyIGErNdVtcbZcixsegv3deS9yLxDgaHNlM+2O83vAW/xiHYvGpjGpmVo8pvy3fW4w8j7kaFtfyxZRIbDiSErLtsQPowiRAtN2uihZRTRX1rLrFhhPEx0iuyFeMuxIWHzWkQqQl8hT2OFbDtptdcWjGed0dphYcthGlsOQxtv0pjQ8tiGkfdjhZEysGFkecOJYba49ggz3qTpO3Q3bKB5bBipQLGYGBnGUsB4y7EhEUlbpOD6CnkaK2R5LNJeE7zu/wgrrL02eYfH4tqQiMZH3naHw4n/sz5uf4hMb2mMFUZDf3mihVAH5nRCA9xS6G3AXg8EJo8p3w13vK0/En3R2Ve+vnCW+riRB/5omr5Dd+MHmidWaJWyv5AK2VcYmd7SGCskImnpL0+0kKfh0Bwsjoe9Jmxcf4fJQyXjNf5oXiqciSdsOFj6ici8scLhwjD7uJEH/miavkN3owaaJ1bYH+NiKWZk2F85kSERLy2xw94Hi+Nhrwkb199h8pyuqDaesOFg6Sci88YKhwsjbHFtGnMSK3Q3qr+0/YUorc/Q1jXQcmIJIDIkIssYaN7Tw94Hi+Nhrwkb199h8lhFtXn/D1vcMPF9HyaNOYkVapsGmLa/cKAYaDmW3/2FpD+yjIHmjRmaAOWZw8JeD+QgWJ77OhZ9g6I/osz+wuFC3JMzJufWOm67Gy642j9k2LJ6QpywhZFhfzitnH7CaBho3ljhcCFWef3VF3k/VjhQUHf4gT6r+ENB3IpLMIslPBZMqWbm2R/6Kyse2LL6Cwnd1O34vJEYaDk2jIah5D0T6I+OWPT2ly8WqDd8RD0cGJTiDgjuUuNp3RkCm52Af6YLgsThMAMjiXi15H85hkf9o4FMdjF6pPrHYEGlNf/Nv7MWZJujtMrDM8TGWPI6W+Q4copLOAwnzjrlsORQIc6UNsQDkmT5Z3nIUcHSPcKw8rKKSreK52eLHEdGcdHWnp7pBLa9Z0uPddNxVlpcksSDZLqPMwWHJT28sbQ4l28tRP4/fyWUbDtI4RQAAAAASUVORK5CYII=;" vertex="1" parent="1">
          <mxGeometry x="583" y="140" width="174" height="107" as="geometry" />
        </mxCell>
        <mxCell id="VpvmrexH3NGM5sz_Zpp6-44" value="&lt;font style=&quot;font-size: 20px;&quot;&gt;sprint review&lt;/font&gt;" style="text;html=1;strokeColor=none;fillColor=none;align=center;verticalAlign=middle;whiteSpace=wrap;rounded=0;" vertex="1" parent="1">
          <mxGeometry x="738.99" y="180" width="120" height="30" as="geometry" />
        </mxCell>
      </root>
    </mxGraphModel>
  </diagram>
</mxfile>
